M48
;Layer_Color=9474304
;FILE_FORMAT=2:5
INCH,LZ
;TYPE=PLATED
T1F00S00C0.01000
T2F00S00C0.01200
T3F00S00C0.01500
T4F00S00C0.01600
T5F00S00C0.02000
T6F00S00C0.02500
T7F00S00C0.03150
T8F00S00C0.03500
T9F00S00C0.03543
T10F00S00C0.03937
T11F00S00C0.05000
T12F00S00C0.13787
%
T01
X01488Y00218
X01893Y00187
X02345Y00185
X02771Y00131
X02972Y00998
X0295981Y0107158
X03173Y01082
X03175Y00925
X03456Y00916
X03492Y00897
X03542Y00874
X03591Y00854
X036Y0059547
X0363457Y0052757
X03795Y00622
X04142Y00616
X0414Y00448
X04175Y00447
X04251
X04307Y00486
X04439Y00495
X0438743Y0066857
X04397Y0073943
X04441Y00842
X044255Y009005
X0445351Y0099598
X0444261Y01038
X04436Y0116919
X04276Y01171
X04187Y0119
X04155Y00943
X03894Y0101557
X03839Y01019
X0378335Y01025
X0376547Y01178
X03681Y01168
X03278Y01563
X03245Y01564
X0438743Y014212
X0449503Y00324
X04592Y0032
X04605Y00109
X0423Y0013629
X04226Y00237
X0406Y00355
X03789Y001
X03217Y00187
X04977Y00235
X0481821Y0047209
X04814Y005159
X04836Y0073534
X04869Y0080978
X05213Y00783
X0540378Y0080978
X05399Y00229
X0577Y00245
X06168Y00226
X05874Y01019
X06032Y01228
X0584803Y0137479
X0545963Y0138239
X05125Y01397
X04722Y01386
X0631579Y0137579
X03243Y01942
X03206Y01946
T02
X0096262Y00658
X0088169Y0108331
Y0112268
X0084232
Y0108331
X02055Y01422
X02347Y01359
X02878Y01413
X03225Y01378
X03332Y01373
X03369Y01335
X03371Y01264
X03421Y01302
X04059Y01332
X04383Y0135
X04412Y01295
X04463Y01321
X0444Y01383
X04535Y01386
X045Y01268
X04108Y00809
X04018Y00873
X04016Y0074479
X03936Y0041
X04031Y00289
X04963Y0137
X05382Y01384
X05775Y01373
X06153Y0138
X01169Y01938
Y02028
X0088014Y0199886
T03
X03513Y00208
X0522Y00104
X05632Y0010157
X0603857
X06436Y00104
X06319Y00835
X064006Y01238
X0648162Y01296
X06247
T04
X00158Y00319
X00213Y0066328
X00109Y00835
X00519Y00974
X0058262Y00704
X0091514Y00134
X01005Y00081
X01142Y01165
X01462Y01045
T05
X01117Y00492
X0097265Y0078535
X00911Y01305
X00206Y01437
X0539232Y0073534
X05775Y0070964
X05973Y0079725
X05953Y00889
X0646194Y0091335
X06395Y01009
X05273Y02445
X0047172Y01999
T06
X01672Y01485
X04892Y00624
X04869Y00177
X0592496Y0075657
X06382Y00692
X0649268Y01009
T07
X00312Y00193
X00459Y0019011
X00949Y0053877
X0366Y00391
X03521Y01057
T08
X05243Y0036
X05673
X05644Y00584
X05618Y0105
X05243
X0616Y0132201
X06063Y0036
X0648162
T09
X0111982Y014669
X0121982
X0131982
X0141982
X03372Y01004
Y00904
Y00804
Y00704
Y00484
Y00384
Y00284
Y00184
X0141982Y017669
X0131982
X0121982
T10
X01201Y00399
Y00499
X01401
Y00399
Y00799
X01201
X0163
X0183
X02055Y00801
X02255
X02478Y0080532
X02678
X02901
Y0050532
Y0040532
X02678
Y0050532
X02478
Y0040532
X02255Y00401
Y00501
X02055
Y00401
X0183Y00399
Y00499
X0163
Y00399
X02168Y01033
Y01233
X02468
X02568
Y01033
X02468
X03101Y0080532
Y0050532
Y0040532
X06395Y0172
Y0182
Y0212
X06195
X0599318
X0579318
X0559136
X0539136
X0518955
X0498954
X0478773
Y0182
Y0172
X0498954
Y0182
X0518955
Y0172
X0539136
Y0182
X0559136
Y0172
X0579318
Y0182
X0599318
Y0172
X06195
Y0182
X0458773
Y0172
X0438591
Y0182
X0418591
Y0172
X0398409
Y0182
X0378409
Y0172
X0358227
Y0182
X0338227
Y0172
X0318045
Y0182
Y0212
X0338227
X0358227
X0378409
X0398409
X0418591
X0438591
X0458773
X0298045
X0277864
X0257864
X0237682
X0217682
X01975
X01775
Y0182
Y0172
X01975
Y0182
X0217682
Y0172
X0237682
Y0182
X0257864
Y0172
X0277864
Y0182
X0298045
Y0172
X00676Y0179472
Y0209
T11
X047056Y0235973
X0483709
X0496859
X0510009
X0523158
X0536308
X0549457
Y025369
X0536308
X0523158
X0510009
X0496859
X0483709
X047056
X045741
X0444261
X0431111
X0417961
X0404812
X0391662
X0378513
Y0235973
X0391662
X0404812
X0417961
X0431111
X0444261
X045741
X0280087
X0266938
X0253788
X0240639
X0227489
X0214339
X020119
X018804
X0174891
X0161741
Y025369
X0174891
X018804
X020119
X0214339
X0227489
X0240639
X0253788
X0266938
X0280087
X0148591
X0135442
X0122292
X0109143
Y0235973
X0122292
X0135442
X0148591
T12
X05773Y0252832
X00808Y0252331
M30
