G04*
G04 #@! TF.GenerationSoftware,Altium Limited,Altium Designer,21.9.1 (22)*
G04*
G04 Layer_Color=65535*
%FSLAX25Y25*%
%MOIN*%
G70*
G04*
G04 #@! TF.SameCoordinates,6B560933-D042-473C-9E78-3B088F3B31AC*
G04*
G04*
G04 #@! TF.FilePolarity,Positive*
G04*
G01*
G75*
%ADD10C,0.01575*%
%ADD11C,0.01181*%
%ADD12C,0.00591*%
%ADD13C,0.00984*%
%ADD14C,0.00600*%
%ADD15C,0.00300*%
%ADD16C,0.01000*%
%ADD17C,0.00598*%
%ADD18C,0.02362*%
%ADD19C,0.00394*%
%ADD20C,0.00700*%
%ADD21C,0.00787*%
%ADD22C,0.00070*%
%ADD23R,0.05906X0.09843*%
%ADD24R,0.04724X0.01181*%
G36*
X20387Y89087D02*
Y89866D01*
X23505D01*
Y89087D01*
X20387D01*
D02*
G37*
G36*
X43643Y89866D02*
X44813D01*
Y89087D01*
X43643D01*
Y86878D01*
X42864D01*
Y89087D01*
X41695D01*
Y89866D01*
X42864D01*
Y92075D01*
X43643D01*
Y89866D01*
D02*
G37*
G36*
X88484Y20767D02*
X90564D01*
Y18967D01*
X88484D01*
Y20767D01*
D02*
G37*
G36*
X100117D02*
X98036D01*
Y18967D01*
X100117D01*
Y20767D01*
D02*
G37*
G36*
X155410Y98550D02*
X178910Y99850D01*
X200010Y97850D01*
X155110D01*
X155010Y97950D01*
X155410Y98550D01*
D02*
G37*
G36*
X54185Y123689D02*
X52584Y123694D01*
X52602Y125503D01*
X54185Y125489D01*
Y123689D01*
D02*
G37*
G36*
X64415Y123721D02*
X62814Y123726D01*
X62832Y125536D01*
X64415Y125521D01*
Y123721D01*
D02*
G37*
G36*
X41935Y171682D02*
X45382D01*
Y170466D01*
X41935D01*
Y168641D01*
X40718D01*
Y170466D01*
X37272D01*
Y171682D01*
X40718D01*
Y173507D01*
X41935D01*
Y171682D01*
D02*
G37*
G36*
X21167Y218183D02*
Y220264D01*
X19367D01*
Y218183D01*
X21167D01*
D02*
G37*
G36*
X40718Y206759D02*
X41935D01*
Y201893D01*
X40718D01*
Y206759D01*
D02*
G37*
G36*
X21167Y229817D02*
Y227736D01*
X19367D01*
Y229817D01*
X21167D01*
D02*
G37*
D10*
X556706Y107756D02*
G03*
X556706Y107756I-787J0D01*
G01*
X515763D02*
G03*
X515763Y107756I-787J0D01*
G01*
Y42543D02*
G03*
X515763Y42543I-787J0D01*
G01*
X556706D02*
G03*
X556706Y42543I-787J0D01*
G01*
X637206D02*
G03*
X637206Y42543I-787J0D01*
G01*
X597106D02*
G03*
X597106Y42543I-787J0D01*
G01*
D11*
X560052Y117599D02*
G03*
X560052Y117599I-591J0D01*
G01*
X519109D02*
G03*
X519109Y117599I-591J0D01*
G01*
Y52386D02*
G03*
X519109Y52386I-591J0D01*
G01*
X560052D02*
G03*
X560052Y52386I-591J0D01*
G01*
X640552D02*
G03*
X640552Y52386I-591J0D01*
G01*
X600452D02*
G03*
X600452Y52386I-591J0D01*
G01*
X79291Y107272D02*
G03*
X79291Y107272I-591J0D01*
G01*
X76380Y99398D02*
G03*
X76380Y99398I-591J0D01*
G01*
X107533Y146729D02*
G03*
X107533Y146729I-591J0D01*
G01*
D12*
X610738Y101042D02*
G03*
X615462Y101042I2362J0D01*
G01*
X521744Y109101D02*
Y121699D01*
X527256D01*
Y109101D02*
Y121699D01*
X521744Y109101D02*
X527256D01*
X507613Y78247D02*
Y83562D01*
X502102D02*
X507613D01*
X502102Y78247D02*
Y83562D01*
X507613Y71062D02*
Y76279D01*
X502102Y70964D02*
X507613D01*
X502102Y71062D02*
Y76279D01*
X517956Y70964D02*
Y83562D01*
X512444Y70964D02*
X517956D01*
X512444D02*
Y83562D01*
X517956D01*
X548556Y78184D02*
Y83499D01*
X543044D02*
X548556D01*
X543044Y78184D02*
Y83499D01*
X548556Y70999D02*
Y76216D01*
X543044Y70901D02*
X548556D01*
X543044Y70999D02*
Y76216D01*
X559456Y70801D02*
Y83399D01*
X553944Y70801D02*
X559456D01*
X553944D02*
Y83399D01*
X559456D01*
X644544Y40868D02*
Y53466D01*
X650056D01*
Y40868D02*
Y53466D01*
X644544Y40868D02*
X650056D01*
X603444D02*
Y53466D01*
X608956D01*
Y40868D02*
Y53466D01*
X603444Y40868D02*
X608956D01*
X562544D02*
Y53466D01*
X568056D01*
Y40868D02*
Y53466D01*
X562544Y40868D02*
X568056D01*
X521744D02*
Y53466D01*
X527256D01*
Y40868D02*
Y53466D01*
X521744Y40868D02*
X527256D01*
X507613Y14613D02*
Y19928D01*
X502102D02*
X507613D01*
X502102Y14613D02*
Y19928D01*
X507613Y7428D02*
Y12645D01*
X502102Y7330D02*
X507613D01*
X502102Y7428D02*
Y12645D01*
X517956Y7344D02*
Y19942D01*
X512444Y7344D02*
X517956D01*
X512444D02*
Y19942D01*
X517956D01*
X548556Y14613D02*
Y19928D01*
X543044D02*
X548556D01*
X543044Y14613D02*
Y19928D01*
X548556Y7428D02*
Y12645D01*
X543044Y7330D02*
X548556D01*
X543044Y7428D02*
Y12645D01*
X558556Y7344D02*
Y19942D01*
X553044Y7344D02*
X558556D01*
X553044D02*
Y19942D01*
X558556D01*
X588956Y14784D02*
Y20099D01*
X583444D02*
X588956D01*
X583444Y14784D02*
Y20099D01*
X588956Y7599D02*
Y12816D01*
X583444Y7501D02*
X588956D01*
X583444Y7599D02*
Y12816D01*
X599456Y7201D02*
Y19799D01*
X593944Y7201D02*
X599456D01*
X593944D02*
Y19799D01*
X599456D01*
X639106Y7351D02*
Y19949D01*
X633595Y7351D02*
X639106D01*
X633595D02*
Y19949D01*
X639106D01*
X629056Y14684D02*
Y19999D01*
X623544D02*
X629056D01*
X623544Y14684D02*
Y19999D01*
X629056Y7499D02*
Y12716D01*
X623544Y7401D02*
X629056D01*
X623544Y7499D02*
Y12716D01*
X608384Y66444D02*
X613699D01*
Y71956D01*
X608384D02*
X613699D01*
X601199Y66444D02*
X606416D01*
X601101D02*
Y71956D01*
X601199D02*
X606416D01*
X581768Y72738D02*
X595232D01*
Y65663D02*
Y72738D01*
X588106Y68216D02*
X589189Y67133D01*
X588106Y68216D02*
X589189Y69298D01*
X588008Y70480D02*
X589189Y69298D01*
X588008Y70480D02*
X588008D01*
X588008D02*
X589189Y71661D01*
X581768Y65663D02*
Y72738D01*
Y65663D02*
X595232D01*
X618668Y65662D02*
X632132D01*
X618668D02*
Y72737D01*
X624711Y71267D02*
X625794Y70184D01*
X624711Y69102D02*
X625794Y70184D01*
X624711Y69102D02*
X625892Y67921D01*
X625892D01*
X624711Y66739D02*
X625892Y67921D01*
X632132Y65662D02*
Y72737D01*
X618668D02*
X632132D01*
X637544Y81201D02*
Y93799D01*
X643056D01*
Y81201D02*
Y93799D01*
X637544Y81201D02*
X643056D01*
X645406Y107358D02*
Y112672D01*
Y107358D02*
X650918D01*
Y112672D01*
X645406Y114641D02*
Y119858D01*
Y119956D02*
X650918D01*
Y114641D02*
Y119858D01*
X637304Y107358D02*
Y112672D01*
Y107358D02*
X642816D01*
Y112672D01*
X637304Y114641D02*
Y119858D01*
Y119956D02*
X642816D01*
Y114641D02*
Y119858D01*
X628823Y107358D02*
Y119956D01*
X634335D01*
Y107358D02*
Y119956D01*
X628823Y107358D02*
X634335D01*
X624160Y107358D02*
Y119956D01*
X618648Y107358D02*
X624160D01*
X618648D02*
Y119956D01*
X624160D01*
X614656Y107358D02*
Y119956D01*
X609144Y107358D02*
X614656D01*
X609144D02*
Y119956D01*
X614656D01*
X605817Y107358D02*
Y119956D01*
X600305Y107358D02*
X605817D01*
X600305D02*
Y119956D01*
X605817D01*
X596756Y107358D02*
Y119956D01*
X591244Y107358D02*
X596756D01*
X591244D02*
Y119956D01*
X596756D01*
X615462Y101042D02*
X617431D01*
X608769D02*
X610738D01*
X608769Y81358D02*
X617431D01*
X608769D02*
Y101042D01*
X617431Y81358D02*
Y101042D01*
X576411Y84656D02*
X589010D01*
Y79144D02*
Y84656D01*
X576411Y79144D02*
X589010D01*
X576411D02*
Y84656D01*
X563444Y109101D02*
X568956D01*
Y121699D01*
X563444D02*
X568956D01*
X563444Y109101D02*
Y121699D01*
X576411Y88287D02*
Y93799D01*
Y88287D02*
X589010D01*
Y93799D01*
X576411D02*
X589010D01*
X75599Y70456D02*
X80816D01*
X75501Y64944D02*
Y70456D01*
X75599Y64944D02*
X80816D01*
X82784Y70456D02*
X88099D01*
Y64944D02*
Y70456D01*
X82784Y64944D02*
X88099D01*
X130399Y133356D02*
X135616D01*
X130301Y127844D02*
Y133356D01*
X130399Y127844D02*
X135616D01*
X137584Y133356D02*
X142899D01*
Y127844D02*
Y133356D01*
X137584Y127844D02*
X142899D01*
X370956Y21324D02*
Y26541D01*
X365444Y26639D02*
X370956D01*
X365444Y21324D02*
Y26541D01*
X370956Y14041D02*
Y19356D01*
X365444Y14041D02*
X370956D01*
X365444D02*
Y19356D01*
X54256Y34884D02*
Y40101D01*
X48744Y40199D02*
X54256D01*
X48744Y34884D02*
Y40101D01*
X54256Y27601D02*
Y32916D01*
X48744Y27601D02*
X54256D01*
X48744D02*
Y32916D01*
X446544Y87295D02*
Y92610D01*
Y87295D02*
X452056D01*
Y92610D01*
X446544Y94578D02*
Y99795D01*
Y99893D02*
X452056D01*
Y94578D02*
Y99795D01*
X371784Y119644D02*
X377099D01*
Y125156D01*
X371784D02*
X377099D01*
X364599Y119644D02*
X369816D01*
X364501D02*
Y125156D01*
X364599D02*
X369816D01*
X455338Y104668D02*
Y118132D01*
X448263Y104668D02*
X455338D01*
X449733Y110711D02*
X450816Y111794D01*
X451898Y110711D01*
X453080Y111892D01*
Y111892D01*
X454261Y110711D01*
X448263Y118132D02*
X455338D01*
X448263Y104668D02*
Y118132D01*
X348600Y102200D02*
X355600D01*
X348600D02*
Y109200D01*
X355600D01*
Y102200D02*
Y109200D01*
X95501Y191044D02*
Y196556D01*
Y191044D02*
X108099D01*
Y196556D01*
X95501D02*
X108099D01*
X143444Y106858D02*
X148956D01*
Y119456D01*
X143444D02*
X148956D01*
X143444Y106858D02*
Y119456D01*
X303701Y16244D02*
Y21756D01*
Y16244D02*
X316299D01*
Y21756D01*
X303701D02*
X316299D01*
X260901Y15044D02*
Y20556D01*
Y15044D02*
X273499D01*
Y20556D01*
X260901D02*
X273499D01*
X217301Y16117D02*
Y21629D01*
Y16117D02*
X229899D01*
Y21629D01*
X217301D02*
X229899D01*
X303401Y8044D02*
Y13556D01*
Y8044D02*
X315999D01*
Y13556D01*
X303401D02*
X315999D01*
X260901Y7344D02*
Y12856D01*
Y7344D02*
X273499D01*
Y12856D01*
X260901D02*
X273499D01*
X217101Y8308D02*
Y13820D01*
Y8308D02*
X229699D01*
Y13820D01*
X217101D02*
X229699D01*
X174201Y15444D02*
Y20956D01*
Y15444D02*
X186799D01*
Y20956D01*
X174201D02*
X186799D01*
X133801Y15344D02*
Y20856D01*
Y15344D02*
X146399D01*
Y20856D01*
X133801D02*
X146399D01*
X288744Y109913D02*
X294256D01*
X288744Y97315D02*
Y109913D01*
Y97315D02*
X294256D01*
Y109913D01*
X625399Y140344D02*
Y145856D01*
X612801D02*
X625399D01*
X612801Y140344D02*
Y145856D01*
Y140344D02*
X625399D01*
X587199Y140244D02*
Y145756D01*
X574601D02*
X587199D01*
X574601Y140244D02*
Y145756D01*
Y140244D02*
X587199D01*
X174301Y7344D02*
Y12856D01*
Y7344D02*
X186899D01*
Y12856D01*
X174301D02*
X186899D01*
X133901Y7244D02*
Y12756D01*
Y7244D02*
X146499D01*
Y12756D01*
X133901D02*
X146499D01*
X280844Y110013D02*
X286356D01*
X280844Y97415D02*
Y110013D01*
Y97415D02*
X286356D01*
Y110013D01*
X625399Y148244D02*
Y153756D01*
X612801D02*
X625399D01*
X612801Y148244D02*
Y153756D01*
Y148244D02*
X625399D01*
X586999Y147844D02*
Y153356D01*
X574401D02*
X586999D01*
X574401Y147844D02*
Y153356D01*
Y147844D02*
X586999D01*
X548199Y140844D02*
Y146356D01*
X535601D02*
X548199D01*
X535601Y140844D02*
Y146356D01*
Y140844D02*
X548199D01*
X507099Y140444D02*
Y145956D01*
X494501D02*
X507099D01*
X494501Y140444D02*
Y145956D01*
Y140444D02*
X507099D01*
X467799Y139944D02*
Y145456D01*
X455201D02*
X467799D01*
X455201Y139944D02*
Y145456D01*
Y139944D02*
X467799D01*
X428399Y140904D02*
Y146416D01*
X415801D02*
X428399D01*
X415801Y140904D02*
Y146416D01*
Y140904D02*
X428399D01*
X390901Y148644D02*
Y154156D01*
Y148644D02*
X403499D01*
Y154156D01*
X390901D02*
X403499D01*
X548399Y148484D02*
Y153996D01*
X535801D02*
X548399D01*
X535801Y148484D02*
Y153996D01*
Y148484D02*
X548399D01*
X507199Y148084D02*
Y153596D01*
X494601D02*
X507199D01*
X494601Y148084D02*
Y153596D01*
Y148084D02*
X507199D01*
X467799Y147844D02*
Y153356D01*
X455201D02*
X467799D01*
X455201Y147844D02*
Y153356D01*
Y147844D02*
X467799D01*
X428456Y148544D02*
Y154056D01*
X415858D02*
X428456D01*
X415858Y148544D02*
Y154056D01*
Y148544D02*
X428456D01*
X390901Y140544D02*
Y146056D01*
Y140544D02*
X403499D01*
Y146056D01*
X390901D02*
X403499D01*
X352401Y147544D02*
Y153056D01*
Y147544D02*
X364999D01*
Y153056D01*
X352401D02*
X364999D01*
X312001Y148344D02*
Y153856D01*
Y148344D02*
X324599D01*
Y153856D01*
X312001D02*
X324599D01*
X271444Y146903D02*
Y152415D01*
Y146903D02*
X284043D01*
Y152415D01*
X271444D02*
X284043D01*
X230401Y147603D02*
Y153115D01*
Y147603D02*
X242999D01*
Y153115D01*
X230401D02*
X242999D01*
X189758Y147344D02*
Y152856D01*
Y147344D02*
X202356D01*
Y152856D01*
X189758D02*
X202356D01*
X352501Y139344D02*
Y144856D01*
Y139344D02*
X365099D01*
Y144856D01*
X352501D02*
X365099D01*
X312201Y140644D02*
Y146156D01*
Y140644D02*
X324799D01*
Y146156D01*
X312201D02*
X324799D01*
X271544Y139344D02*
Y144856D01*
Y139344D02*
X284142D01*
Y144856D01*
X271544D02*
X284142D01*
X230301Y139744D02*
Y145256D01*
Y139744D02*
X242899D01*
Y145256D01*
X230301D02*
X242899D01*
X189657Y139744D02*
Y145256D01*
Y139744D02*
X202256D01*
Y145256D01*
X189657D02*
X202256D01*
X134158Y209756D02*
X146756D01*
Y204244D02*
Y209756D01*
X134158Y204244D02*
X146756D01*
X134158D02*
Y209756D01*
X134257Y201656D02*
X146856D01*
Y196144D02*
Y201656D01*
X134257Y196144D02*
X146856D01*
X134257D02*
Y201656D01*
X131856Y204501D02*
Y217099D01*
X126344Y204501D02*
X131856D01*
X126344D02*
Y217099D01*
X131856D01*
X459056Y35357D02*
Y47956D01*
X453544Y35357D02*
X459056D01*
X453544D02*
Y47956D01*
X459056D01*
X400844Y118501D02*
Y131099D01*
X406356D01*
Y118501D02*
Y131099D01*
X400844Y118501D02*
X406356D01*
X391356Y13201D02*
Y25799D01*
X385844Y13201D02*
X391356D01*
X385844D02*
Y25799D01*
X391356D01*
X355544Y14801D02*
Y27399D01*
X361056D01*
Y14801D02*
Y27399D01*
X355544Y14801D02*
X361056D01*
X459720Y72334D02*
Y84932D01*
X454208Y72334D02*
X459720D01*
X454208D02*
Y84932D01*
X459720D01*
X407401Y28944D02*
X419999D01*
X407401D02*
Y34456D01*
X419999D01*
Y28944D02*
Y34456D01*
X409801Y37044D02*
X422399D01*
X409801D02*
Y42556D01*
X422399D01*
Y37044D02*
Y42556D01*
X407401Y20944D02*
X419999D01*
X407401D02*
Y26456D01*
X419999D01*
Y20944D02*
Y26456D01*
Y125731D02*
X425216D01*
X419901Y120220D02*
Y125731D01*
X419999Y120220D02*
X425216D01*
X427184Y125731D02*
X432499D01*
Y120220D02*
Y125731D01*
X427184Y120220D02*
X432499D01*
X431484Y37144D02*
X436701D01*
X436799D02*
Y42656D01*
X431484D02*
X436701D01*
X424201Y37144D02*
X429516D01*
X424201D02*
Y42656D01*
X429516D01*
X351644Y50099D02*
Y55316D01*
Y50001D02*
X357156D01*
Y50099D02*
Y55316D01*
X351644Y57284D02*
Y62599D01*
X357156D01*
Y57284D02*
Y62599D01*
X448156Y71384D02*
Y76601D01*
X442644Y76699D02*
X448156D01*
X442644Y71384D02*
Y76601D01*
X448156Y64101D02*
Y69416D01*
X442644Y64101D02*
X448156D01*
X442644D02*
Y69416D01*
X451056Y42541D02*
Y47758D01*
X445544Y47856D02*
X451056D01*
X445544Y42541D02*
Y47758D01*
X451056Y35258D02*
Y40572D01*
X445544Y35258D02*
X451056D01*
X445544D02*
Y40572D01*
X414684Y10944D02*
X419901D01*
X419999D02*
Y16456D01*
X414684D02*
X419901D01*
X407401Y10944D02*
X412716D01*
X407401D02*
Y16456D01*
X412716D01*
X454244Y58799D02*
Y64016D01*
Y58701D02*
X459756D01*
Y58799D02*
Y64016D01*
X454244Y65984D02*
Y71299D01*
X459756D01*
Y65984D02*
Y71299D01*
X454208Y87393D02*
Y92610D01*
Y87295D02*
X459720D01*
Y87393D02*
Y92610D01*
X454208Y94578D02*
Y99893D01*
X459720D01*
Y94578D02*
Y99893D01*
X362500Y35600D02*
Y42600D01*
Y35600D02*
X369500D01*
Y42600D01*
X362500D02*
X369500D01*
X24656Y27601D02*
Y40199D01*
X19144Y27601D02*
X24656D01*
X19144D02*
Y40199D01*
X24656D01*
X29144Y27712D02*
Y40310D01*
X34656D01*
Y27712D02*
Y40310D01*
X29144Y27712D02*
X34656D01*
X42400Y22511D02*
X49400D01*
X42400Y15511D02*
Y22511D01*
Y15511D02*
X49400D01*
Y22511D01*
X45656Y34995D02*
Y40212D01*
X40144Y40310D02*
X45656D01*
X40144Y34995D02*
Y40212D01*
X45656Y27712D02*
Y33027D01*
X40144Y27712D02*
X45656D01*
X40144D02*
Y33027D01*
X91400Y50377D02*
Y57377D01*
Y50377D02*
X98400D01*
Y57377D01*
X91400D02*
X98400D01*
X27700Y15800D02*
Y22800D01*
X34700D01*
Y15800D02*
Y22800D01*
X27700Y15800D02*
X34700D01*
D13*
X604143Y102047D02*
G03*
X604143Y102047I-492J0D01*
G01*
X449995Y10086D02*
G03*
X449995Y10086I-492J0D01*
G01*
X428613Y54822D02*
G03*
X428613Y54822I-492J0D01*
G01*
D14*
X45693Y145798D02*
G03*
X46293Y146398I0J600D01*
G01*
Y153802D02*
G03*
X45693Y154402I-600J0D01*
G01*
X26107Y146398D02*
G03*
X26707Y145798I600J0D01*
G01*
Y154402D02*
G03*
X26107Y153802I0J-600D01*
G01*
X63607Y165502D02*
G03*
X63007Y164902I0J-600D01*
G01*
Y157498D02*
G03*
X63607Y156898I600J0D01*
G01*
X83193Y164902D02*
G03*
X82593Y165502I-600J0D01*
G01*
Y156898D02*
G03*
X83193Y157498I0J600D01*
G01*
X45393Y133498D02*
G03*
X45993Y134098I0J600D01*
G01*
Y141502D02*
G03*
X45393Y142102I-600J0D01*
G01*
X25807Y134098D02*
G03*
X26407Y133498I600J0D01*
G01*
Y142102D02*
G03*
X25807Y141502I0J-600D01*
G01*
X88783Y26488D02*
X99817D01*
X88783Y20467D02*
Y41933D01*
X99817Y20467D02*
Y41933D01*
X88783D02*
X90364D01*
X98236D02*
X99817D01*
X39847Y154402D02*
X45693D01*
X39847Y145798D02*
X45693D01*
X46293Y146398D02*
Y153802D01*
X26707Y154402D02*
X32553D01*
X26707Y145798D02*
X32553D01*
X26107Y146398D02*
Y153802D01*
X63607Y156898D02*
X69454D01*
X63607Y165502D02*
X69454D01*
X63007Y157498D02*
Y164902D01*
X76746Y156898D02*
X82593D01*
X76746Y165502D02*
X82593D01*
X83193Y157498D02*
Y164902D01*
X39546Y142102D02*
X45393D01*
X39546Y133498D02*
X45393D01*
X45993Y134098D02*
Y141502D01*
X26407Y142102D02*
X32254D01*
X26407Y133498D02*
X32254D01*
X25807Y134098D02*
Y141502D01*
X26888Y218483D02*
Y229517D01*
X20867D02*
X42333D01*
X20867Y218483D02*
X42333D01*
Y227936D02*
Y229517D01*
Y218483D02*
Y220064D01*
X88502Y217546D02*
Y222232D01*
Y205568D02*
Y210254D01*
X80498Y222832D02*
X87902D01*
X80498Y204968D02*
X87902D01*
X79898Y217546D02*
Y222232D01*
Y205568D02*
Y210254D01*
X61226Y152420D02*
Y152474D01*
X77574D01*
Y152420D02*
Y152474D01*
X61226Y136126D02*
Y136180D01*
Y136126D02*
X77574D01*
Y136180D01*
X11424Y208276D02*
X28644D01*
X11424Y175535D02*
Y208276D01*
Y175535D02*
X19835Y167124D01*
X28644D01*
X35356Y208276D02*
X52576D01*
Y175535D02*
Y208276D01*
X44165Y167124D02*
X52576Y175535D01*
X35356Y167124D02*
X44165D01*
X76254Y104310D02*
Y116290D01*
X96146D01*
Y104310D02*
Y116290D01*
X76254Y104310D02*
X96146D01*
X56400Y79300D02*
X61400D01*
X65544D02*
X70400D01*
X65400Y87300D02*
X70400D01*
X56400D02*
X61400D01*
X52885Y117280D02*
X64115D01*
Y103579D02*
Y124021D01*
X52930Y103564D02*
X53872Y103590D01*
X63173Y103552D02*
X64115Y103579D01*
X52885D02*
Y124021D01*
X19310Y96790D02*
X19389Y86410D01*
X19310Y96790D02*
X40400D01*
X45890Y91300D01*
X45837Y86200D02*
X45890Y91300D01*
X19308Y70208D02*
X19334Y80714D01*
X19308Y70208D02*
X40395D01*
X45892Y75705D01*
Y80800D01*
X75147Y87601D02*
X78922D01*
X75147Y82399D02*
Y87601D01*
Y82399D02*
X78922D01*
X82278Y87601D02*
X86053D01*
Y82399D02*
Y87601D01*
X82278Y82399D02*
X86053D01*
X88847Y87601D02*
X92622D01*
X88847Y82399D02*
Y87601D01*
Y82399D02*
X92622D01*
X95978Y87601D02*
X99753D01*
Y82399D02*
Y87601D01*
X95978Y82399D02*
X99753D01*
X322500Y79400D02*
Y82599D01*
X324099D01*
X324633Y82066D01*
Y80999D01*
X324099Y80466D01*
X322500D01*
X323566D02*
X324633Y79400D01*
X325699Y82599D02*
X327832Y79400D01*
Y82599D02*
X325699Y79400D01*
X328898Y82599D02*
Y79400D01*
X330497D01*
X331031Y79933D01*
Y82066D01*
X330497Y82599D01*
X328898D01*
X322400Y92299D02*
X324533D01*
X323466D01*
Y89100D01*
X325599Y92299D02*
X327732Y89100D01*
Y92299D02*
X325599Y89100D01*
X328798Y92299D02*
Y89100D01*
X330397D01*
X330931Y89633D01*
Y91766D01*
X330397Y92299D01*
X328798D01*
X322500Y101866D02*
X323033Y102399D01*
X324099D01*
X324633Y101866D01*
Y101333D01*
X324099Y100800D01*
X323566D01*
X324099D01*
X324633Y100266D01*
Y99733D01*
X324099Y99200D01*
X323033D01*
X322500Y99733D01*
X325699Y102399D02*
Y100266D01*
X326765Y99200D01*
X327832Y100266D01*
Y102399D01*
X328898Y101866D02*
X329431Y102399D01*
X330497D01*
X331031Y101866D01*
Y101333D01*
X330497Y100800D01*
X329964D01*
X330497D01*
X331031Y100266D01*
Y99733D01*
X330497Y99200D01*
X329431D01*
X328898Y99733D01*
X321300Y49866D02*
X321833Y50399D01*
X322900D01*
X323433Y49866D01*
Y49333D01*
X322900Y48799D01*
X322366D01*
X322900D01*
X323433Y48266D01*
Y47733D01*
X322900Y47200D01*
X321833D01*
X321300Y47733D01*
X324499Y50399D02*
Y48266D01*
X325565Y47200D01*
X326632Y48266D01*
Y50399D01*
X327698Y49866D02*
X328231Y50399D01*
X329297D01*
X329831Y49866D01*
Y49333D01*
X329297Y48799D01*
X328764D01*
X329297D01*
X329831Y48266D01*
Y47733D01*
X329297Y47200D01*
X328231D01*
X327698Y47733D01*
X318733Y39366D02*
X318199Y39899D01*
X317133D01*
X316600Y39366D01*
Y38833D01*
X317133Y38300D01*
X318199D01*
X318733Y37766D01*
Y37233D01*
X318199Y36700D01*
X317133D01*
X316600Y37233D01*
X319799Y39899D02*
Y36700D01*
X320865Y37766D01*
X321932Y36700D01*
Y39899D01*
X322998D02*
Y36700D01*
X324597D01*
X325131Y37233D01*
Y39366D01*
X324597Y39899D01*
X322998D01*
X326197D02*
X327263D01*
X326730D01*
Y36700D01*
X326197D01*
X327263D01*
X330462Y39899D02*
X329396D01*
X328863Y39366D01*
Y37233D01*
X329396Y36700D01*
X330462D01*
X330995Y37233D01*
Y39366D01*
X330462Y39899D01*
X318333Y31166D02*
X317799Y31699D01*
X316733D01*
X316200Y31166D01*
Y30633D01*
X316733Y30099D01*
X317799D01*
X318333Y29566D01*
Y29033D01*
X317799Y28500D01*
X316733D01*
X316200Y29033D01*
X319399Y31699D02*
Y28500D01*
X320465Y29566D01*
X321532Y28500D01*
Y31699D01*
X324731Y31166D02*
X324197Y31699D01*
X323131D01*
X322598Y31166D01*
Y29033D01*
X323131Y28500D01*
X324197D01*
X324731Y29033D01*
X325797Y31699D02*
Y28500D01*
X327930D01*
X328996Y31699D02*
Y28500D01*
Y29566D01*
X331129Y31699D01*
X329529Y30099D01*
X331129Y28500D01*
X335533Y11466D02*
X334999Y11999D01*
X333933D01*
X333400Y11466D01*
Y9333D01*
X333933Y8800D01*
X334999D01*
X335533Y9333D01*
Y10400D01*
X334466D01*
X336599Y8800D02*
Y11999D01*
X338732Y8800D01*
Y11999D01*
X339798D02*
Y8800D01*
X341397D01*
X341931Y9333D01*
Y11466D01*
X341397Y11999D01*
X339798D01*
X324633Y71466D02*
X324099Y71999D01*
X323033D01*
X322500Y71466D01*
Y69333D01*
X323033Y68800D01*
X324099D01*
X324633Y69333D01*
Y70399D01*
X323566D01*
X325699Y68800D02*
Y71999D01*
X327832Y68800D01*
Y71999D01*
X328898D02*
Y68800D01*
X330497D01*
X331031Y69333D01*
Y71466D01*
X330497Y71999D01*
X328898D01*
X101901Y23800D02*
X105400D01*
Y25549D01*
X104817Y26133D01*
X102484D01*
X101901Y25549D01*
Y23800D01*
X105400Y29632D02*
Y27299D01*
X103067Y29632D01*
X102484D01*
X101901Y29048D01*
Y27882D01*
X102484Y27299D01*
Y30798D02*
X101901Y31381D01*
Y32547D01*
X102484Y33130D01*
X103067D01*
X103651Y32547D01*
X104234Y33130D01*
X104817D01*
X105400Y32547D01*
Y31381D01*
X104817Y30798D01*
X104234D01*
X103651Y31381D01*
X103067Y30798D01*
X102484D01*
X103651Y31381D02*
Y32547D01*
X545136Y126487D02*
Y123571D01*
X545719Y122988D01*
X546886D01*
X547469Y123571D01*
Y126487D01*
X548635Y125903D02*
X549218Y126487D01*
X550385D01*
X550968Y125903D01*
Y125320D01*
X550385Y124737D01*
X549801D01*
X550385D01*
X550968Y124154D01*
Y123571D01*
X550385Y122988D01*
X549218D01*
X548635Y123571D01*
X552134Y125903D02*
X552717Y126487D01*
X553884D01*
X554467Y125903D01*
Y123571D01*
X553884Y122988D01*
X552717D01*
X552134Y123571D01*
Y125903D01*
X501958Y126487D02*
Y123571D01*
X502541Y122988D01*
X503707D01*
X504290Y123571D01*
Y126487D01*
X507789Y122988D02*
X505456D01*
X507789Y125320D01*
Y125903D01*
X507206Y126487D01*
X506039D01*
X505456Y125903D01*
X511288Y126487D02*
X510121Y125903D01*
X508955Y124737D01*
Y123571D01*
X509538Y122988D01*
X510705D01*
X511288Y123571D01*
Y124154D01*
X510705Y124737D01*
X508955D01*
X562883Y83065D02*
X566382D01*
Y81316D01*
X565798Y80733D01*
X564632D01*
X564049Y81316D01*
Y83065D01*
Y81899D02*
X562883Y80733D01*
X566382Y77234D02*
X565798Y78400D01*
X564632Y79567D01*
X563466D01*
X562883Y78983D01*
Y77817D01*
X563466Y77234D01*
X564049D01*
X564632Y77817D01*
Y79567D01*
X565798Y76068D02*
X566382Y75485D01*
Y74318D01*
X565798Y73735D01*
X563466D01*
X562883Y74318D01*
Y75485D01*
X563466Y76068D01*
X565798D01*
X563200Y125031D02*
Y128530D01*
X564949D01*
X565533Y127947D01*
Y126781D01*
X564949Y126198D01*
X563200D01*
X564366D02*
X565533Y125031D01*
X569031Y128530D02*
X566699D01*
Y126781D01*
X567865Y127364D01*
X568448D01*
X569031Y126781D01*
Y125615D01*
X568448Y125031D01*
X567282D01*
X566699Y125615D01*
X570198Y127947D02*
X570781Y128530D01*
X571947D01*
X572530Y127947D01*
Y127364D01*
X571947Y126781D01*
X572530Y126198D01*
Y125615D01*
X571947Y125031D01*
X570781D01*
X570198Y125615D01*
Y126198D01*
X570781Y126781D01*
X570198Y127364D01*
Y127947D01*
X570781Y126781D02*
X571947D01*
X520189Y82176D02*
Y85675D01*
X521938D01*
X522521Y85092D01*
Y83926D01*
X521938Y83343D01*
X520189D01*
X521355D02*
X522521Y82176D01*
X526020Y85675D02*
X523687D01*
Y83926D01*
X524854Y84509D01*
X525437D01*
X526020Y83926D01*
Y82759D01*
X525437Y82176D01*
X524270D01*
X523687Y82759D01*
X527186Y85675D02*
X529519D01*
Y85092D01*
X527186Y82759D01*
Y82176D01*
X518955Y124042D02*
Y127541D01*
X520704D01*
X521287Y126958D01*
Y125792D01*
X520704Y125209D01*
X518955D01*
X520121D02*
X521287Y124042D01*
X524786Y127541D02*
X522453D01*
Y125792D01*
X523620Y126375D01*
X524203D01*
X524786Y125792D01*
Y124626D01*
X524203Y124042D01*
X523036D01*
X522453Y124626D01*
X528285Y127541D02*
X527118Y126958D01*
X525952Y125792D01*
Y124626D01*
X526535Y124042D01*
X527702D01*
X528285Y124626D01*
Y125209D01*
X527702Y125792D01*
X525952D01*
X531300Y130930D02*
Y127431D01*
X533049D01*
X533633Y128015D01*
Y130347D01*
X533049Y130930D01*
X531300D01*
X537132Y127431D02*
X534799D01*
X537132Y129764D01*
Y130347D01*
X536548Y130930D01*
X535382D01*
X534799Y130347D01*
X538298Y130930D02*
X540630D01*
Y130347D01*
X538298Y128015D01*
Y127431D01*
X489800Y130530D02*
Y127032D01*
X491549D01*
X492133Y127615D01*
Y129947D01*
X491549Y130530D01*
X489800D01*
X495632Y127032D02*
X493299D01*
X495632Y129364D01*
Y129947D01*
X495048Y130530D01*
X493882D01*
X493299Y129947D01*
X499130Y130530D02*
X497964Y129947D01*
X496798Y128781D01*
Y127615D01*
X497381Y127032D01*
X498547D01*
X499130Y127615D01*
Y128198D01*
X498547Y128781D01*
X496798D01*
X535037Y80966D02*
X534454Y80383D01*
Y79216D01*
X535037Y78633D01*
X537370D01*
X537953Y79216D01*
Y80383D01*
X537370Y80966D01*
X537953Y84465D02*
Y82132D01*
X535620Y84465D01*
X535037D01*
X534454Y83881D01*
Y82715D01*
X535037Y82132D01*
Y85631D02*
X534454Y86214D01*
Y87380D01*
X535037Y87963D01*
X537370D01*
X537953Y87380D01*
Y86214D01*
X537370Y85631D01*
X535037D01*
X494290Y81316D02*
X493707Y81899D01*
X492541D01*
X491957Y81316D01*
Y78983D01*
X492541Y78400D01*
X493707D01*
X494290Y78983D01*
X495456Y78400D02*
X496623D01*
X496039D01*
Y81899D01*
X495456Y81316D01*
X498372Y78983D02*
X498955Y78400D01*
X500121D01*
X500704Y78983D01*
Y81316D01*
X500121Y81899D01*
X498955D01*
X498372Y81316D01*
Y80733D01*
X498955Y80149D01*
X500704D01*
X594000Y106307D02*
Y103392D01*
X594583Y102809D01*
X595749D01*
X596333Y103392D01*
Y106307D01*
X599831Y102809D02*
X597499D01*
X599831Y105141D01*
Y105724D01*
X599248Y106307D01*
X598082D01*
X597499Y105724D01*
X600998Y102809D02*
X602164D01*
X601581D01*
Y106307D01*
X600998Y105724D01*
X623400Y61230D02*
Y58315D01*
X623983Y57731D01*
X625149D01*
X625733Y58315D01*
Y61230D01*
X629232Y57731D02*
X626899D01*
X629232Y60064D01*
Y60647D01*
X628648Y61230D01*
X627482D01*
X626899Y60647D01*
X632730Y61230D02*
X630398D01*
Y59481D01*
X631564Y60064D01*
X632147D01*
X632730Y59481D01*
Y58315D01*
X632147Y57731D01*
X630981D01*
X630398Y58315D01*
X583300Y61230D02*
Y58315D01*
X583883Y57731D01*
X585049D01*
X585633Y58315D01*
Y61230D01*
X589131Y57731D02*
X586799D01*
X589131Y60064D01*
Y60647D01*
X588548Y61230D01*
X587382D01*
X586799Y60647D01*
X592047Y57731D02*
Y61230D01*
X590298Y59481D01*
X592630D01*
X542900Y61230D02*
Y58315D01*
X543483Y57731D01*
X544649D01*
X545233Y58315D01*
Y61230D01*
X548732Y57731D02*
X546399D01*
X548732Y60064D01*
Y60647D01*
X548148Y61230D01*
X546982D01*
X546399Y60647D01*
X549898D02*
X550481Y61230D01*
X551647D01*
X552230Y60647D01*
Y60064D01*
X551647Y59481D01*
X551064D01*
X551647D01*
X552230Y58898D01*
Y58315D01*
X551647Y57731D01*
X550481D01*
X549898Y58315D01*
X504865Y61077D02*
Y58161D01*
X505448Y57578D01*
X506614D01*
X507197Y58161D01*
Y61077D01*
X510696Y57578D02*
X508363D01*
X510696Y59911D01*
Y60494D01*
X510113Y61077D01*
X508947D01*
X508363Y60494D01*
X514195Y57578D02*
X511862D01*
X514195Y59911D01*
Y60494D01*
X513612Y61077D01*
X512445D01*
X511862Y60494D01*
X641193Y13800D02*
Y17299D01*
X642942D01*
X643526Y16716D01*
Y15549D01*
X642942Y14966D01*
X641193D01*
X642359D02*
X643526Y13800D01*
X647024Y17299D02*
X644692D01*
Y15549D01*
X645858Y16133D01*
X646441D01*
X647024Y15549D01*
Y14383D01*
X646441Y13800D01*
X645275D01*
X644692Y14383D01*
X650523Y17299D02*
X648191D01*
Y15549D01*
X649357Y16133D01*
X649940D01*
X650523Y15549D01*
Y14383D01*
X649940Y13800D01*
X648774D01*
X648191Y14383D01*
X643300Y56361D02*
Y59860D01*
X645049D01*
X645633Y59277D01*
Y58111D01*
X645049Y57528D01*
X643300D01*
X644466D02*
X645633Y56361D01*
X649131Y59860D02*
X646799D01*
Y58111D01*
X647965Y58694D01*
X648548D01*
X649131Y58111D01*
Y56945D01*
X648548Y56361D01*
X647382D01*
X646799Y56945D01*
X652047Y56361D02*
Y59860D01*
X650298Y58111D01*
X652630D01*
X601199Y13800D02*
Y17299D01*
X602949D01*
X603532Y16716D01*
Y15549D01*
X602949Y14966D01*
X601199D01*
X602365D02*
X603532Y13800D01*
X607031Y17299D02*
X604698D01*
Y15549D01*
X605864Y16133D01*
X606448D01*
X607031Y15549D01*
Y14383D01*
X606448Y13800D01*
X605281D01*
X604698Y14383D01*
X608197Y16716D02*
X608780Y17299D01*
X609946D01*
X610530Y16716D01*
Y16133D01*
X609946Y15549D01*
X609363D01*
X609946D01*
X610530Y14966D01*
Y14383D01*
X609946Y13800D01*
X608780D01*
X608197Y14383D01*
X600452Y57731D02*
Y61230D01*
X602201D01*
X602785Y60647D01*
Y59481D01*
X602201Y58898D01*
X600452D01*
X601618D02*
X602785Y57731D01*
X606283Y61230D02*
X603951D01*
Y59481D01*
X605117Y60064D01*
X605700D01*
X606283Y59481D01*
Y58315D01*
X605700Y57731D01*
X604534D01*
X603951Y58315D01*
X609782Y57731D02*
X607450D01*
X609782Y60064D01*
Y60647D01*
X609199Y61230D01*
X608033D01*
X607450Y60647D01*
X561896Y13800D02*
Y17299D01*
X563645D01*
X564228Y16716D01*
Y15549D01*
X563645Y14966D01*
X561896D01*
X563062D02*
X564228Y13800D01*
X567727Y17299D02*
X565394D01*
Y15549D01*
X566561Y16133D01*
X567144D01*
X567727Y15549D01*
Y14383D01*
X567144Y13800D01*
X565978D01*
X565394Y14383D01*
X568893Y13800D02*
X570060D01*
X569477D01*
Y17299D01*
X568893Y16716D01*
X558669Y62400D02*
Y65899D01*
X560418D01*
X561001Y65316D01*
Y64149D01*
X560418Y63566D01*
X558669D01*
X559835D02*
X561001Y62400D01*
X564500Y65899D02*
X562167D01*
Y64149D01*
X563334Y64733D01*
X563917D01*
X564500Y64149D01*
Y62983D01*
X563917Y62400D01*
X562750D01*
X562167Y62983D01*
X565666Y65316D02*
X566249Y65899D01*
X567416D01*
X567999Y65316D01*
Y62983D01*
X567416Y62400D01*
X566249D01*
X565666Y62983D01*
Y65316D01*
X521029Y13800D02*
Y17299D01*
X522779D01*
X523362Y16716D01*
Y15549D01*
X522779Y14966D01*
X521029D01*
X522196D02*
X523362Y13800D01*
X526278D02*
Y17299D01*
X524528Y15549D01*
X526861D01*
X528027Y14383D02*
X528610Y13800D01*
X529777D01*
X530360Y14383D01*
Y16716D01*
X529777Y17299D01*
X528610D01*
X528027Y16716D01*
Y16133D01*
X528610Y15549D01*
X530360D01*
X519459Y57578D02*
Y61077D01*
X521208D01*
X521792Y60494D01*
Y59327D01*
X521208Y58744D01*
X519459D01*
X520625D02*
X521792Y57578D01*
X524707D02*
Y61077D01*
X522958Y59327D01*
X525290D01*
X526457Y60494D02*
X527040Y61077D01*
X528206D01*
X528789Y60494D01*
Y59911D01*
X528206Y59327D01*
X528789Y58744D01*
Y58161D01*
X528206Y57578D01*
X527040D01*
X526457Y58161D01*
Y58744D01*
X527040Y59327D01*
X526457Y59911D01*
Y60494D01*
X527040Y59327D02*
X528206D01*
X574401Y78184D02*
X570902D01*
Y79934D01*
X571485Y80517D01*
X572651D01*
X573235Y79934D01*
Y78184D01*
Y79351D02*
X574401Y80517D01*
Y83433D02*
X570902D01*
X572651Y81683D01*
Y84016D01*
X570902Y85182D02*
Y87515D01*
X571485D01*
X573818Y85182D01*
X574401D01*
X598139Y124042D02*
Y127541D01*
X599889D01*
X600472Y126958D01*
Y125792D01*
X599889Y125209D01*
X598139D01*
X599306D02*
X600472Y124042D01*
X603388D02*
Y127541D01*
X601638Y125792D01*
X603971D01*
X607470Y127541D02*
X606303Y126958D01*
X605137Y125792D01*
Y124626D01*
X605720Y124042D01*
X606886D01*
X607470Y124626D01*
Y125209D01*
X606886Y125792D01*
X605137D01*
X635850Y95053D02*
Y98552D01*
X637600D01*
X638183Y97969D01*
Y96803D01*
X637600Y96220D01*
X635850D01*
X637017D02*
X638183Y95053D01*
X641099D02*
Y98552D01*
X639349Y96803D01*
X641682D01*
X645181Y98552D02*
X642848D01*
Y96803D01*
X644014Y97386D01*
X644598D01*
X645181Y96803D01*
Y95636D01*
X644598Y95053D01*
X643431D01*
X642848Y95636D01*
X576300Y97232D02*
Y100730D01*
X578049D01*
X578633Y100147D01*
Y98981D01*
X578049Y98398D01*
X576300D01*
X577466D02*
X578633Y97232D01*
X581548D02*
Y100730D01*
X579799Y98981D01*
X582131D01*
X585047Y97232D02*
Y100730D01*
X583298Y98981D01*
X585630D01*
X629244Y126304D02*
Y129803D01*
X630994D01*
X631577Y129219D01*
Y128053D01*
X630994Y127470D01*
X629244D01*
X630410D02*
X631577Y126304D01*
X634492D02*
Y129803D01*
X632743Y128053D01*
X635076D01*
X636242Y129219D02*
X636825Y129803D01*
X637991D01*
X638574Y129219D01*
Y128636D01*
X637991Y128053D01*
X637408D01*
X637991D01*
X638574Y127470D01*
Y126887D01*
X637991Y126304D01*
X636825D01*
X636242Y126887D01*
X586253Y124042D02*
Y127541D01*
X588003D01*
X588586Y126958D01*
Y125792D01*
X588003Y125209D01*
X586253D01*
X587420D02*
X588586Y124042D01*
X589752Y126958D02*
X590336Y127541D01*
X591502D01*
X592085Y126958D01*
Y126375D01*
X591502Y125792D01*
X590919D01*
X591502D01*
X592085Y125209D01*
Y124626D01*
X591502Y124042D01*
X590336D01*
X589752Y124626D01*
X593251D02*
X593834Y124042D01*
X595001D01*
X595584Y124626D01*
Y126958D01*
X595001Y127541D01*
X593834D01*
X593251Y126958D01*
Y126375D01*
X593834Y125792D01*
X595584D01*
X618900Y123800D02*
Y127299D01*
X620649D01*
X621233Y126716D01*
Y125549D01*
X620649Y124966D01*
X618900D01*
X620066D02*
X621233Y123800D01*
X622399Y126716D02*
X622982Y127299D01*
X624148D01*
X624731Y126716D01*
Y126133D01*
X624148Y125549D01*
X623565D01*
X624148D01*
X624731Y124966D01*
Y124383D01*
X624148Y123800D01*
X622982D01*
X622399Y124383D01*
X625898Y126716D02*
X626481Y127299D01*
X627647D01*
X628230Y126716D01*
Y126133D01*
X627647Y125549D01*
X628230Y124966D01*
Y124383D01*
X627647Y123800D01*
X626481D01*
X625898Y124383D01*
Y124966D01*
X626481Y125549D01*
X625898Y126133D01*
Y126716D01*
X626481Y125549D02*
X627647D01*
X608384Y124042D02*
Y127541D01*
X610134D01*
X610717Y126958D01*
Y125792D01*
X610134Y125209D01*
X608384D01*
X609551D02*
X610717Y124042D01*
X614216D02*
X611883D01*
X614216Y126375D01*
Y126958D01*
X613632Y127541D01*
X612466D01*
X611883Y126958D01*
X617715Y124042D02*
X615382D01*
X617715Y126375D01*
Y126958D01*
X617131Y127541D01*
X615965D01*
X615382Y126958D01*
X622810Y78630D02*
Y75131D01*
X625143D01*
X628058D02*
Y78630D01*
X626309Y76881D01*
X628642D01*
X583700Y77219D02*
Y73720D01*
X586033D01*
X587199Y76635D02*
X587782Y77219D01*
X588948D01*
X589532Y76635D01*
Y76052D01*
X588948Y75469D01*
X588365D01*
X588948D01*
X589532Y74886D01*
Y74303D01*
X588948Y73720D01*
X587782D01*
X587199Y74303D01*
X612300Y61030D02*
Y57531D01*
X614049D01*
X614633Y58115D01*
Y60447D01*
X614049Y61030D01*
X612300D01*
X618131Y57531D02*
X615799D01*
X618131Y59864D01*
Y60447D01*
X617548Y61030D01*
X616382D01*
X615799Y60447D01*
X621630Y61030D02*
X619298D01*
Y59281D01*
X620464Y59864D01*
X621047D01*
X621630Y59281D01*
Y58115D01*
X621047Y57531D01*
X619881D01*
X619298Y58115D01*
X572100Y61030D02*
Y57531D01*
X573849D01*
X574433Y58115D01*
Y60447D01*
X573849Y61030D01*
X572100D01*
X577931Y57531D02*
X575599D01*
X577931Y59864D01*
Y60447D01*
X577348Y61030D01*
X576182D01*
X575599Y60447D01*
X579098D02*
X579681Y61030D01*
X580847D01*
X581430Y60447D01*
Y59864D01*
X580847Y59281D01*
X580264D01*
X580847D01*
X581430Y58698D01*
Y58115D01*
X580847Y57531D01*
X579681D01*
X579098Y58115D01*
X530900Y61030D02*
Y57531D01*
X532649D01*
X533233Y58115D01*
Y60447D01*
X532649Y61030D01*
X530900D01*
X536731Y57531D02*
X534399D01*
X536731Y59864D01*
Y60447D01*
X536148Y61030D01*
X534982D01*
X534399Y60447D01*
X540230Y57531D02*
X537898D01*
X540230Y59864D01*
Y60447D01*
X539647Y61030D01*
X538481D01*
X537898Y60447D01*
X490568Y59445D02*
Y55946D01*
X492317D01*
X492900Y56530D01*
Y58862D01*
X492317Y59445D01*
X490568D01*
X496399Y55946D02*
X494067D01*
X496399Y58279D01*
Y58862D01*
X495816Y59445D01*
X494650D01*
X494067Y58862D01*
X497565Y55946D02*
X498732D01*
X498149D01*
Y59445D01*
X497565Y58862D01*
X614949Y16716D02*
X614366Y17299D01*
X613200D01*
X612616Y16716D01*
Y14383D01*
X613200Y13800D01*
X614366D01*
X614949Y14383D01*
X616115Y13800D02*
X617282D01*
X616699D01*
Y17299D01*
X616115Y16716D01*
X619031D02*
X619614Y17299D01*
X620781D01*
X621364Y16716D01*
Y16133D01*
X620781Y15549D01*
X621364Y14966D01*
Y14383D01*
X620781Y13800D01*
X619614D01*
X619031Y14383D01*
Y14966D01*
X619614Y15549D01*
X619031Y16133D01*
Y16716D01*
X619614Y15549D02*
X620781D01*
X575580Y16716D02*
X574997Y17299D01*
X573830D01*
X573247Y16716D01*
Y14383D01*
X573830Y13800D01*
X574997D01*
X575580Y14383D01*
X576746Y13800D02*
X577912D01*
X577329D01*
Y17299D01*
X576746Y16716D01*
X579662Y17299D02*
X581994D01*
Y16716D01*
X579662Y14383D01*
Y13800D01*
X534780Y16416D02*
X534197Y16999D01*
X533030D01*
X532447Y16416D01*
Y14083D01*
X533030Y13500D01*
X534197D01*
X534780Y14083D01*
X535946Y13500D02*
X537112D01*
X536529D01*
Y16999D01*
X535946Y16416D01*
X541194Y16999D02*
X540028Y16416D01*
X538862Y15249D01*
Y14083D01*
X539445Y13500D01*
X540611D01*
X541194Y14083D01*
Y14666D01*
X540611Y15249D01*
X538862D01*
X494290Y16416D02*
X493707Y16999D01*
X492541D01*
X491957Y16416D01*
Y14083D01*
X492541Y13500D01*
X493707D01*
X494290Y14083D01*
X495456Y13500D02*
X496623D01*
X496039D01*
Y16999D01*
X495456Y16416D01*
X500704Y16999D02*
X498372D01*
Y15249D01*
X499538Y15833D01*
X500121D01*
X500704Y15249D01*
Y14083D01*
X500121Y13500D01*
X498955D01*
X498372Y14083D01*
X638633Y133316D02*
X638049Y133899D01*
X636883D01*
X636300Y133316D01*
Y130983D01*
X636883Y130400D01*
X638049D01*
X638633Y130983D01*
X639799Y130400D02*
X640965D01*
X640382D01*
Y133899D01*
X639799Y133316D01*
X644464Y130400D02*
Y133899D01*
X642715Y132149D01*
X645047D01*
X646877Y126217D02*
X646293Y126800D01*
X645127D01*
X644544Y126217D01*
Y123884D01*
X645127Y123301D01*
X646293D01*
X646877Y123884D01*
X648043Y123301D02*
X649209D01*
X648626D01*
Y126800D01*
X648043Y126217D01*
X650959D02*
X651542Y126800D01*
X652708D01*
X653291Y126217D01*
Y125634D01*
X652708Y125051D01*
X652125D01*
X652708D01*
X653291Y124468D01*
Y123884D01*
X652708Y123301D01*
X651542D01*
X650959Y123884D01*
X604533Y76635D02*
X603949Y77219D01*
X602783D01*
X602200Y76635D01*
Y74303D01*
X602783Y73720D01*
X603949D01*
X604533Y74303D01*
X605699Y73720D02*
X606865D01*
X606282D01*
Y77219D01*
X605699Y76635D01*
X610947Y73720D02*
X608615D01*
X610947Y76052D01*
Y76635D01*
X610364Y77219D01*
X609198D01*
X608615Y76635D01*
X18633Y138816D02*
X18049Y139399D01*
X16883D01*
X16300Y138816D01*
Y136483D01*
X16883Y135900D01*
X18049D01*
X18633Y136483D01*
X19799Y135900D02*
X20965D01*
X20382D01*
Y139399D01*
X19799Y138816D01*
X22715Y135900D02*
X23881D01*
X23298D01*
Y139399D01*
X22715Y138816D01*
X21119Y151216D02*
X20536Y151799D01*
X19370D01*
X18787Y151216D01*
Y148883D01*
X19370Y148300D01*
X20536D01*
X21119Y148883D01*
X22286Y151216D02*
X22869Y151799D01*
X24035D01*
X24618Y151216D01*
Y150633D01*
X24035Y150049D01*
X23452D01*
X24035D01*
X24618Y149466D01*
Y148883D01*
X24035Y148300D01*
X22869D01*
X22286Y148883D01*
X57784Y160433D02*
X57201Y159849D01*
Y158683D01*
X57784Y158100D01*
X60117D01*
X60700Y158683D01*
Y159849D01*
X60117Y160433D01*
X60700Y163931D02*
Y161599D01*
X58367Y163931D01*
X57784D01*
X57201Y163348D01*
Y162182D01*
X57784Y161599D01*
X83900Y131199D02*
Y128283D01*
X84483Y127700D01*
X85649D01*
X86233Y128283D01*
Y131199D01*
X87399Y127700D02*
X88565D01*
X87982D01*
Y131199D01*
X87399Y130616D01*
X63800Y221350D02*
Y224849D01*
X65549D01*
X66133Y224266D01*
Y223099D01*
X65549Y222516D01*
X63800D01*
X64966D02*
X66133Y221350D01*
X67299Y224849D02*
Y222516D01*
X68465Y221350D01*
X69631Y222516D01*
Y224849D01*
X70798Y221350D02*
X71964D01*
X71381D01*
Y224849D01*
X70798Y224266D01*
X87600Y77263D02*
Y80762D01*
X89349D01*
X89933Y80179D01*
Y79012D01*
X89349Y78429D01*
X87600D01*
X88766D02*
X89933Y77263D01*
X93431D02*
X91099D01*
X93431Y79596D01*
Y80179D01*
X92848Y80762D01*
X91682D01*
X91099Y80179D01*
X79100Y77600D02*
Y81099D01*
X80849D01*
X81433Y80516D01*
Y79349D01*
X80849Y78766D01*
X79100D01*
X80266D02*
X81433Y77600D01*
X82599D02*
X83765D01*
X83182D01*
Y81099D01*
X82599Y80516D01*
X11099Y117400D02*
X7600D01*
Y115067D01*
Y111569D02*
Y113901D01*
X9933Y111569D01*
X10516D01*
X11099Y112152D01*
Y113318D01*
X10516Y113901D01*
X83100Y146299D02*
Y142800D01*
X85433D01*
X86599D02*
X87765D01*
X87182D01*
Y146299D01*
X86599Y145716D01*
X63133Y77699D02*
X60800D01*
Y75949D01*
X61966D01*
X60800D01*
Y74200D01*
X66631D02*
X64299D01*
X66631Y76533D01*
Y77116D01*
X66048Y77699D01*
X64882D01*
X64299Y77116D01*
X93999Y216267D02*
Y218600D01*
X92249D01*
Y217434D01*
Y218600D01*
X90500D01*
Y215101D02*
Y213935D01*
Y214518D01*
X93999D01*
X93416Y215101D01*
X61900Y95658D02*
Y99157D01*
X60151D01*
X59567Y98574D01*
Y96241D01*
X60151Y95658D01*
X61900D01*
X56069Y99157D02*
X58401D01*
X56069Y96824D01*
Y96241D01*
X56652Y95658D01*
X57818D01*
X58401Y96241D01*
X29930Y235099D02*
Y231600D01*
X31680D01*
X32263Y232183D01*
Y234516D01*
X31680Y235099D01*
X29930D01*
X33429Y231600D02*
X34596D01*
X34012D01*
Y235099D01*
X33429Y234516D01*
X29133Y68016D02*
X28549Y68599D01*
X27383D01*
X26800Y68016D01*
Y65683D01*
X27383Y65100D01*
X28549D01*
X29133Y65683D01*
X30299Y65100D02*
X31465D01*
X30882D01*
Y68599D01*
X30299Y68016D01*
X33215D02*
X33798Y68599D01*
X34964D01*
X35547Y68016D01*
Y65683D01*
X34964Y65100D01*
X33798D01*
X33215Y65683D01*
Y68016D01*
X91433Y68995D02*
X90849Y69578D01*
X89683D01*
X89100Y68995D01*
Y66663D01*
X89683Y66079D01*
X90849D01*
X91433Y66663D01*
X92599D02*
X93182Y66079D01*
X94348D01*
X94931Y66663D01*
Y68995D01*
X94348Y69578D01*
X93182D01*
X92599Y68995D01*
Y68412D01*
X93182Y67829D01*
X94931D01*
X56033Y67616D02*
X55449Y68199D01*
X54283D01*
X53700Y67616D01*
Y65283D01*
X54283Y64700D01*
X55449D01*
X56033Y65283D01*
X57199Y67616D02*
X57782Y68199D01*
X58948D01*
X59531Y67616D01*
Y67033D01*
X58948Y66449D01*
X59531Y65866D01*
Y65283D01*
X58948Y64700D01*
X57782D01*
X57199Y65283D01*
Y65866D01*
X57782Y66449D01*
X57199Y67033D01*
Y67616D01*
X57782Y66449D02*
X58948D01*
X70816Y100827D02*
X71399Y101411D01*
Y102577D01*
X70816Y103160D01*
X68483D01*
X67900Y102577D01*
Y101411D01*
X68483Y100827D01*
X71399Y99661D02*
Y97329D01*
X70816D01*
X68483Y99661D01*
X67900D01*
X22733Y163816D02*
X22149Y164399D01*
X20983D01*
X20400Y163816D01*
Y161483D01*
X20983Y160900D01*
X22149D01*
X22733Y161483D01*
X23899Y160900D02*
X25065D01*
X24482D01*
Y164399D01*
X23899Y163816D01*
X50084Y44333D02*
X49501Y43749D01*
Y42583D01*
X50084Y42000D01*
X52417D01*
X53000Y42583D01*
Y43749D01*
X52417Y44333D01*
X53000Y47248D02*
X49501D01*
X51251Y45499D01*
Y47831D01*
X55133Y277199D02*
X53966D01*
X54549D01*
Y274283D01*
X53966Y273700D01*
X53383D01*
X52800Y274283D01*
X56299Y273700D02*
X57465D01*
X56882D01*
Y277199D01*
X56299Y276616D01*
X286000Y90599D02*
Y87683D01*
X286583Y87100D01*
X287749D01*
X288333Y87683D01*
Y90599D01*
X291831Y87100D02*
X289499D01*
X291831Y89433D01*
Y90016D01*
X291248Y90599D01*
X290082D01*
X289499Y90016D01*
X292998D02*
X293581Y90599D01*
X294747D01*
X295330Y90016D01*
Y87683D01*
X294747Y87100D01*
X293581D01*
X292998Y87683D01*
Y90016D01*
X244000Y90699D02*
Y87783D01*
X244583Y87200D01*
X245749D01*
X246333Y87783D01*
Y90699D01*
X247499Y87200D02*
X248665D01*
X248082D01*
Y90699D01*
X247499Y90116D01*
X250415Y87783D02*
X250998Y87200D01*
X252164D01*
X252747Y87783D01*
Y90116D01*
X252164Y90699D01*
X250998D01*
X250415Y90116D01*
Y89533D01*
X250998Y88949D01*
X252747D01*
X200950Y92049D02*
Y89133D01*
X201533Y88550D01*
X202699D01*
X203283Y89133D01*
Y92049D01*
X204449Y88550D02*
X205615D01*
X205032D01*
Y92049D01*
X204449Y91466D01*
X207365D02*
X207948Y92049D01*
X209114D01*
X209697Y91466D01*
Y90883D01*
X209114Y90299D01*
X209697Y89716D01*
Y89133D01*
X209114Y88550D01*
X207948D01*
X207365Y89133D01*
Y89716D01*
X207948Y90299D01*
X207365Y90883D01*
Y91466D01*
X207948Y90299D02*
X209114D01*
X158450Y91849D02*
Y88933D01*
X159033Y88350D01*
X160199D01*
X160783Y88933D01*
Y91849D01*
X161949Y88350D02*
X163115D01*
X162532D01*
Y91849D01*
X161949Y91266D01*
X164865Y91849D02*
X167197D01*
Y91266D01*
X164865Y88933D01*
Y88350D01*
X115550Y91849D02*
Y88933D01*
X116133Y88350D01*
X117299D01*
X117883Y88933D01*
Y91849D01*
X119049Y88350D02*
X120215D01*
X119632D01*
Y91849D01*
X119049Y91266D01*
X124297Y91849D02*
X123131Y91266D01*
X121965Y90099D01*
Y88933D01*
X122548Y88350D01*
X123714D01*
X124297Y88933D01*
Y89516D01*
X123714Y90099D01*
X121965D01*
X204851Y98750D02*
X207767D01*
X208350Y99333D01*
Y100499D01*
X207767Y101083D01*
X204851D01*
X208350Y102249D02*
Y103415D01*
Y102832D01*
X204851D01*
X205434Y102249D01*
X204851Y107497D02*
Y105165D01*
X206601D01*
X206017Y106331D01*
Y106914D01*
X206601Y107497D01*
X207767D01*
X208350Y106914D01*
Y105748D01*
X207767Y105165D01*
X614950Y223949D02*
Y221033D01*
X615533Y220450D01*
X616699D01*
X617282Y221033D01*
Y223949D01*
X618449Y220450D02*
X619615D01*
X619032D01*
Y223949D01*
X618449Y223366D01*
X623114Y220450D02*
Y223949D01*
X621364Y222199D01*
X623697D01*
X574768Y223949D02*
Y221033D01*
X575351Y220450D01*
X576517D01*
X577101Y221033D01*
Y223949D01*
X578267Y220450D02*
X579433D01*
X578850D01*
Y223949D01*
X578267Y223366D01*
X581183D02*
X581766Y223949D01*
X582932D01*
X583515Y223366D01*
Y222783D01*
X582932Y222199D01*
X582349D01*
X582932D01*
X583515Y221616D01*
Y221033D01*
X582932Y220450D01*
X581766D01*
X581183Y221033D01*
X534586Y223949D02*
Y221033D01*
X535169Y220450D01*
X536336D01*
X536919Y221033D01*
Y223949D01*
X538085Y220450D02*
X539252D01*
X538668D01*
Y223949D01*
X538085Y223366D01*
X543333Y220450D02*
X541001D01*
X543333Y222783D01*
Y223366D01*
X542750Y223949D01*
X541584D01*
X541001Y223366D01*
X494405Y223949D02*
Y221033D01*
X494988Y220450D01*
X496154D01*
X496737Y221033D01*
Y223949D01*
X497903Y220450D02*
X499070D01*
X498487D01*
Y223949D01*
X497903Y223366D01*
X500819Y220450D02*
X501985D01*
X501402D01*
Y223949D01*
X500819Y223366D01*
X454223Y223949D02*
Y221033D01*
X454806Y220450D01*
X455972D01*
X456555Y221033D01*
Y223949D01*
X457722Y220450D02*
X458888D01*
X458305D01*
Y223949D01*
X457722Y223366D01*
X460637D02*
X461220Y223949D01*
X462387D01*
X462970Y223366D01*
Y221033D01*
X462387Y220450D01*
X461220D01*
X460637Y221033D01*
Y223366D01*
X414041Y223949D02*
Y221033D01*
X414624Y220450D01*
X415790D01*
X416373Y221033D01*
Y223949D01*
X417540Y221033D02*
X418123Y220450D01*
X419289D01*
X419872Y221033D01*
Y223366D01*
X419289Y223949D01*
X418123D01*
X417540Y223366D01*
Y222783D01*
X418123Y222199D01*
X419872D01*
X373859Y223949D02*
Y221033D01*
X374442Y220450D01*
X375608D01*
X376192Y221033D01*
Y223949D01*
X377358Y223366D02*
X377941Y223949D01*
X379107D01*
X379691Y223366D01*
Y222783D01*
X379107Y222199D01*
X379691Y221616D01*
Y221033D01*
X379107Y220450D01*
X377941D01*
X377358Y221033D01*
Y221616D01*
X377941Y222199D01*
X377358Y222783D01*
Y223366D01*
X377941Y222199D02*
X379107D01*
X333677Y223949D02*
Y221033D01*
X334260Y220450D01*
X335427D01*
X336010Y221033D01*
Y223949D01*
X337176D02*
X339509D01*
Y223366D01*
X337176Y221033D01*
Y220450D01*
X293495Y223949D02*
Y221033D01*
X294079Y220450D01*
X295245D01*
X295828Y221033D01*
Y223949D01*
X299327D02*
X298161Y223366D01*
X296994Y222199D01*
Y221033D01*
X297577Y220450D01*
X298744D01*
X299327Y221033D01*
Y221616D01*
X298744Y222199D01*
X296994D01*
X253314Y223949D02*
Y221033D01*
X253897Y220450D01*
X255063D01*
X255646Y221033D01*
Y223949D01*
X259145D02*
X256813D01*
Y222199D01*
X257979Y222783D01*
X258562D01*
X259145Y222199D01*
Y221033D01*
X258562Y220450D01*
X257396D01*
X256813Y221033D01*
X213132Y223949D02*
Y221033D01*
X213715Y220450D01*
X214881D01*
X215464Y221033D01*
Y223949D01*
X218380Y220450D02*
Y223949D01*
X216631Y222199D01*
X218963D01*
X172950Y223949D02*
Y221033D01*
X173533Y220450D01*
X174699D01*
X175283Y221033D01*
Y223949D01*
X176449Y223366D02*
X177032Y223949D01*
X178198D01*
X178781Y223366D01*
Y222783D01*
X178198Y222199D01*
X177615D01*
X178198D01*
X178781Y221616D01*
Y221033D01*
X178198Y220450D01*
X177032D01*
X176449Y221033D01*
X317900Y16600D02*
Y20099D01*
X319649D01*
X320233Y19516D01*
Y18349D01*
X319649Y17766D01*
X317900D01*
X319066D02*
X320233Y16600D01*
X323148D02*
Y20099D01*
X321399Y18349D01*
X323731D01*
X327230Y16600D02*
X324898D01*
X327230Y18933D01*
Y19516D01*
X326647Y20099D01*
X325481D01*
X324898Y19516D01*
X275100Y16000D02*
Y19499D01*
X276849D01*
X277433Y18916D01*
Y17749D01*
X276849Y17166D01*
X275100D01*
X276266D02*
X277433Y16000D01*
X280348D02*
Y19499D01*
X278599Y17749D01*
X280931D01*
X282098Y16000D02*
X283264D01*
X282681D01*
Y19499D01*
X282098Y18916D01*
X231100Y12500D02*
Y15999D01*
X232849D01*
X233433Y15416D01*
Y14249D01*
X232849Y13666D01*
X231100D01*
X232266D02*
X233433Y12500D01*
X236348D02*
Y15999D01*
X234599Y14249D01*
X236931D01*
X238098Y15416D02*
X238681Y15999D01*
X239847D01*
X240430Y15416D01*
Y13083D01*
X239847Y12500D01*
X238681D01*
X238098Y13083D01*
Y15416D01*
X317300Y9100D02*
Y12599D01*
X319049D01*
X319633Y12016D01*
Y10849D01*
X319049Y10266D01*
X317300D01*
X318466D02*
X319633Y9100D01*
X320799Y12016D02*
X321382Y12599D01*
X322548D01*
X323131Y12016D01*
Y11433D01*
X322548Y10849D01*
X321965D01*
X322548D01*
X323131Y10266D01*
Y9683D01*
X322548Y9100D01*
X321382D01*
X320799Y9683D01*
X324298Y12599D02*
X326630D01*
Y12016D01*
X324298Y9683D01*
Y9100D01*
X275000Y7600D02*
Y11099D01*
X276749D01*
X277333Y10516D01*
Y9349D01*
X276749Y8766D01*
X275000D01*
X276166D02*
X277333Y7600D01*
X278499Y10516D02*
X279082Y11099D01*
X280248D01*
X280831Y10516D01*
Y9933D01*
X280248Y9349D01*
X279665D01*
X280248D01*
X280831Y8766D01*
Y8183D01*
X280248Y7600D01*
X279082D01*
X278499Y8183D01*
X284330Y11099D02*
X283164Y10516D01*
X281998Y9349D01*
Y8183D01*
X282581Y7600D01*
X283747D01*
X284330Y8183D01*
Y8766D01*
X283747Y9349D01*
X281998D01*
X230950Y7100D02*
Y10599D01*
X232699D01*
X233283Y10016D01*
Y8849D01*
X232699Y8266D01*
X230950D01*
X232116D02*
X233283Y7100D01*
X234449Y10016D02*
X235032Y10599D01*
X236198D01*
X236781Y10016D01*
Y9433D01*
X236198Y8849D01*
X235615D01*
X236198D01*
X236781Y8266D01*
Y7683D01*
X236198Y7100D01*
X235032D01*
X234449Y7683D01*
X240280Y10599D02*
X237948D01*
Y8849D01*
X239114Y9433D01*
X239697D01*
X240280Y8849D01*
Y7683D01*
X239697Y7100D01*
X238531D01*
X237948Y7683D01*
X188300Y13100D02*
Y16599D01*
X190049D01*
X190633Y16016D01*
Y14849D01*
X190049Y14266D01*
X188300D01*
X189466D02*
X190633Y13100D01*
X191799Y16016D02*
X192382Y16599D01*
X193548D01*
X194131Y16016D01*
Y15433D01*
X193548Y14849D01*
X192965D01*
X193548D01*
X194131Y14266D01*
Y13683D01*
X193548Y13100D01*
X192382D01*
X191799Y13683D01*
X197047Y13100D02*
Y16599D01*
X195298Y14849D01*
X197630D01*
X147900Y16300D02*
Y19799D01*
X149649D01*
X150233Y19216D01*
Y18049D01*
X149649Y17466D01*
X147900D01*
X149066D02*
X150233Y16300D01*
X151399Y19216D02*
X151982Y19799D01*
X153148D01*
X153731Y19216D01*
Y18633D01*
X153148Y18049D01*
X152565D01*
X153148D01*
X153731Y17466D01*
Y16883D01*
X153148Y16300D01*
X151982D01*
X151399Y16883D01*
X154898Y19216D02*
X155481Y19799D01*
X156647D01*
X157230Y19216D01*
Y18633D01*
X156647Y18049D01*
X156064D01*
X156647D01*
X157230Y17466D01*
Y16883D01*
X156647Y16300D01*
X155481D01*
X154898Y16883D01*
X297600Y96400D02*
Y92901D01*
X295851D01*
X295267Y93484D01*
Y94651D01*
X295851Y95234D01*
X297600D01*
X296434D02*
X295267Y96400D01*
X294101Y93484D02*
X293518Y92901D01*
X292352D01*
X291769Y93484D01*
Y94067D01*
X292352Y94651D01*
X292935D01*
X292352D01*
X291769Y95234D01*
Y95817D01*
X292352Y96400D01*
X293518D01*
X294101Y95817D01*
X288270Y96400D02*
X290602D01*
X288270Y94067D01*
Y93484D01*
X288853Y92901D01*
X290019D01*
X290602Y93484D01*
X611900Y138700D02*
X608401D01*
Y140449D01*
X608984Y141033D01*
X610151D01*
X610734Y140449D01*
Y138700D01*
Y139866D02*
X611900Y141033D01*
X608984Y142199D02*
X608401Y142782D01*
Y143948D01*
X608984Y144531D01*
X609567D01*
X610151Y143948D01*
Y143365D01*
Y143948D01*
X610734Y144531D01*
X611317D01*
X611900Y143948D01*
Y142782D01*
X611317Y142199D01*
X611900Y145698D02*
Y146864D01*
Y146281D01*
X608401D01*
X608984Y145698D01*
X573500Y137400D02*
X570001D01*
Y139149D01*
X570584Y139733D01*
X571751D01*
X572334Y139149D01*
Y137400D01*
Y138566D02*
X573500Y139733D01*
X570584Y140899D02*
X570001Y141482D01*
Y142648D01*
X570584Y143231D01*
X571167D01*
X571751Y142648D01*
Y142065D01*
Y142648D01*
X572334Y143231D01*
X572917D01*
X573500Y142648D01*
Y141482D01*
X572917Y140899D01*
X570584Y144398D02*
X570001Y144981D01*
Y146147D01*
X570584Y146730D01*
X572917D01*
X573500Y146147D01*
Y144981D01*
X572917Y144398D01*
X570584D01*
X188400Y7500D02*
Y10999D01*
X190149D01*
X190733Y10416D01*
Y9249D01*
X190149Y8666D01*
X188400D01*
X189566D02*
X190733Y7500D01*
X194231D02*
X191899D01*
X194231Y9833D01*
Y10416D01*
X193648Y10999D01*
X192482D01*
X191899Y10416D01*
X195398Y8083D02*
X195981Y7500D01*
X197147D01*
X197730Y8083D01*
Y10416D01*
X197147Y10999D01*
X195981D01*
X195398Y10416D01*
Y9833D01*
X195981Y9249D01*
X197730D01*
X147800Y8400D02*
Y11899D01*
X149549D01*
X150133Y11316D01*
Y10149D01*
X149549Y9566D01*
X147800D01*
X148966D02*
X150133Y8400D01*
X153631D02*
X151299D01*
X153631Y10733D01*
Y11316D01*
X153048Y11899D01*
X151882D01*
X151299Y11316D01*
X154798D02*
X155381Y11899D01*
X156547D01*
X157130Y11316D01*
Y10733D01*
X156547Y10149D01*
X157130Y9566D01*
Y8983D01*
X156547Y8400D01*
X155381D01*
X154798Y8983D01*
Y9566D01*
X155381Y10149D01*
X154798Y10733D01*
Y11316D01*
X155381Y10149D02*
X156547D01*
X286500Y96300D02*
Y92801D01*
X284751D01*
X284167Y93384D01*
Y94551D01*
X284751Y95134D01*
X286500D01*
X285334D02*
X284167Y96300D01*
X280669D02*
X283001D01*
X280669Y93967D01*
Y93384D01*
X281252Y92801D01*
X282418D01*
X283001Y93384D01*
X279502Y92801D02*
X277170D01*
Y93384D01*
X279502Y95717D01*
Y96300D01*
X611900Y148600D02*
X608401D01*
Y150349D01*
X608984Y150933D01*
X610151D01*
X610734Y150349D01*
Y148600D01*
Y149766D02*
X611900Y150933D01*
Y154431D02*
Y152099D01*
X609567Y154431D01*
X608984D01*
X608401Y153848D01*
Y152682D01*
X608984Y152099D01*
X608401Y157930D02*
X608984Y156764D01*
X610151Y155598D01*
X611317D01*
X611900Y156181D01*
Y157347D01*
X611317Y157930D01*
X610734D01*
X610151Y157347D01*
Y155598D01*
X573600Y148200D02*
X570101D01*
Y149949D01*
X570684Y150533D01*
X571851D01*
X572434Y149949D01*
Y148200D01*
Y149366D02*
X573600Y150533D01*
Y154031D02*
Y151699D01*
X571267Y154031D01*
X570684D01*
X570101Y153448D01*
Y152282D01*
X570684Y151699D01*
X570101Y157530D02*
Y155198D01*
X571851D01*
X571267Y156364D01*
Y156947D01*
X571851Y157530D01*
X573017D01*
X573600Y156947D01*
Y155781D01*
X573017Y155198D01*
X534500Y137900D02*
X531001D01*
Y139649D01*
X531584Y140233D01*
X532751D01*
X533334Y139649D01*
Y137900D01*
Y139066D02*
X534500Y140233D01*
Y143731D02*
Y141399D01*
X532167Y143731D01*
X531584D01*
X531001Y143148D01*
Y141982D01*
X531584Y141399D01*
X534500Y146647D02*
X531001D01*
X532751Y144898D01*
Y147230D01*
X493300Y137600D02*
X489801D01*
Y139349D01*
X490384Y139933D01*
X491551D01*
X492134Y139349D01*
Y137600D01*
Y138766D02*
X493300Y139933D01*
Y143431D02*
Y141099D01*
X490967Y143431D01*
X490384D01*
X489801Y142848D01*
Y141682D01*
X490384Y141099D01*
Y144598D02*
X489801Y145181D01*
Y146347D01*
X490384Y146930D01*
X490967D01*
X491551Y146347D01*
Y145764D01*
Y146347D01*
X492134Y146930D01*
X492717D01*
X493300Y146347D01*
Y145181D01*
X492717Y144598D01*
X458800Y135100D02*
Y138599D01*
X460549D01*
X461133Y138016D01*
Y136849D01*
X460549Y136266D01*
X458800D01*
X459966D02*
X461133Y135100D01*
X464632D02*
X462299D01*
X464632Y137433D01*
Y138016D01*
X464048Y138599D01*
X462882D01*
X462299Y138016D01*
X465798Y135100D02*
X466964D01*
X466381D01*
Y138599D01*
X465798Y138016D01*
X414700Y138000D02*
X411201D01*
Y139749D01*
X411784Y140333D01*
X412951D01*
X413534Y139749D01*
Y138000D01*
Y139166D02*
X414700Y140333D01*
Y143831D02*
Y141499D01*
X412367Y143831D01*
X411784D01*
X411201Y143248D01*
Y142082D01*
X411784Y141499D01*
Y144998D02*
X411201Y145581D01*
Y146747D01*
X411784Y147330D01*
X414117D01*
X414700Y146747D01*
Y145581D01*
X414117Y144998D01*
X411784D01*
X404500Y157200D02*
X407999D01*
Y155451D01*
X407416Y154867D01*
X406249D01*
X405666Y155451D01*
Y157200D01*
Y156034D02*
X404500Y154867D01*
Y153701D02*
Y152535D01*
Y153118D01*
X407999D01*
X407416Y153701D01*
X405083Y150785D02*
X404500Y150202D01*
Y149036D01*
X405083Y148453D01*
X407416D01*
X407999Y149036D01*
Y150202D01*
X407416Y150785D01*
X406833D01*
X406249Y150202D01*
Y148453D01*
X534900Y149400D02*
X531401D01*
Y151149D01*
X531984Y151733D01*
X533151D01*
X533734Y151149D01*
Y149400D01*
Y150566D02*
X534900Y151733D01*
Y152899D02*
Y154065D01*
Y153482D01*
X531401D01*
X531984Y152899D01*
Y155815D02*
X531401Y156398D01*
Y157564D01*
X531984Y158147D01*
X532567D01*
X533151Y157564D01*
X533734Y158147D01*
X534317D01*
X534900Y157564D01*
Y156398D01*
X534317Y155815D01*
X533734D01*
X533151Y156398D01*
X532567Y155815D01*
X531984D01*
X533151Y156398D02*
Y157564D01*
X493600Y148600D02*
X490101D01*
Y150349D01*
X490684Y150933D01*
X491851D01*
X492434Y150349D01*
Y148600D01*
Y149766D02*
X493600Y150933D01*
Y152099D02*
Y153265D01*
Y152682D01*
X490101D01*
X490684Y152099D01*
X490101Y155015D02*
Y157347D01*
X490684D01*
X493017Y155015D01*
X493600D01*
X454100Y148000D02*
X450601D01*
Y149749D01*
X451184Y150333D01*
X452351D01*
X452934Y149749D01*
Y148000D01*
Y149166D02*
X454100Y150333D01*
Y151499D02*
Y152665D01*
Y152082D01*
X450601D01*
X451184Y151499D01*
X450601Y156747D02*
X451184Y155581D01*
X452351Y154415D01*
X453517D01*
X454100Y154998D01*
Y156164D01*
X453517Y156747D01*
X452934D01*
X452351Y156164D01*
Y154415D01*
X414600Y149500D02*
X411101D01*
Y151249D01*
X411684Y151833D01*
X412851D01*
X413434Y151249D01*
Y149500D01*
Y150666D02*
X414600Y151833D01*
Y152999D02*
Y154165D01*
Y153582D01*
X411101D01*
X411684Y152999D01*
X411101Y158247D02*
Y155915D01*
X412851D01*
X412267Y157081D01*
Y157664D01*
X412851Y158247D01*
X414017D01*
X414600Y157664D01*
Y156498D01*
X414017Y155915D01*
X404600Y145956D02*
X408099D01*
Y144207D01*
X407516Y143623D01*
X406349D01*
X405766Y144207D01*
Y145956D01*
Y144790D02*
X404600Y143623D01*
Y142457D02*
Y141291D01*
Y141874D01*
X408099D01*
X407516Y142457D01*
X404600Y137792D02*
X408099D01*
X406349Y139541D01*
Y137209D01*
X366500Y156000D02*
X369999D01*
Y154251D01*
X369416Y153667D01*
X368249D01*
X367666Y154251D01*
Y156000D01*
Y154834D02*
X366500Y153667D01*
Y152501D02*
Y151335D01*
Y151918D01*
X369999D01*
X369416Y152501D01*
Y149585D02*
X369999Y149002D01*
Y147836D01*
X369416Y147253D01*
X368833D01*
X368249Y147836D01*
Y148419D01*
Y147836D01*
X367666Y147253D01*
X367083D01*
X366500Y147836D01*
Y149002D01*
X367083Y149585D01*
X326000Y156000D02*
X329499D01*
Y154251D01*
X328916Y153667D01*
X327749D01*
X327166Y154251D01*
Y156000D01*
Y154834D02*
X326000Y153667D01*
Y152501D02*
Y151335D01*
Y151918D01*
X329499D01*
X328916Y152501D01*
X326000Y147253D02*
Y149585D01*
X328333Y147253D01*
X328916D01*
X329499Y147836D01*
Y149002D01*
X328916Y149585D01*
X285200Y154300D02*
X288699D01*
Y152551D01*
X288116Y151967D01*
X286949D01*
X286366Y152551D01*
Y154300D01*
Y153134D02*
X285200Y151967D01*
Y150801D02*
Y149635D01*
Y150218D01*
X288699D01*
X288116Y150801D01*
X285200Y147885D02*
Y146719D01*
Y147302D01*
X288699D01*
X288116Y147885D01*
X244600Y156068D02*
X248099D01*
Y154318D01*
X247516Y153735D01*
X246349D01*
X245766Y154318D01*
Y156068D01*
Y154901D02*
X244600Y153735D01*
Y152569D02*
Y151402D01*
Y151986D01*
X248099D01*
X247516Y152569D01*
Y149653D02*
X248099Y149070D01*
Y147904D01*
X247516Y147320D01*
X245183D01*
X244600Y147904D01*
Y149070D01*
X245183Y149653D01*
X247516D01*
X203900Y148100D02*
Y151599D01*
X205649D01*
X206233Y151016D01*
Y149849D01*
X205649Y149266D01*
X203900D01*
X205066D02*
X206233Y148100D01*
X207399Y148683D02*
X207982Y148100D01*
X209148D01*
X209731Y148683D01*
Y151016D01*
X209148Y151599D01*
X207982D01*
X207399Y151016D01*
Y150433D01*
X207982Y149849D01*
X209731D01*
X366500Y140200D02*
Y143699D01*
X368249D01*
X368833Y143116D01*
Y141949D01*
X368249Y141366D01*
X366500D01*
X367666D02*
X368833Y140200D01*
X369999Y143116D02*
X370582Y143699D01*
X371748D01*
X372331Y143116D01*
Y142533D01*
X371748Y141949D01*
X372331Y141366D01*
Y140783D01*
X371748Y140200D01*
X370582D01*
X369999Y140783D01*
Y141366D01*
X370582Y141949D01*
X369999Y142533D01*
Y143116D01*
X370582Y141949D02*
X371748D01*
X313300Y135900D02*
Y139399D01*
X315049D01*
X315633Y138816D01*
Y137649D01*
X315049Y137066D01*
X313300D01*
X314466D02*
X315633Y135900D01*
X316799Y139399D02*
X319131D01*
Y138816D01*
X316799Y136483D01*
Y135900D01*
X276300Y134730D02*
Y138229D01*
X278049D01*
X278633Y137646D01*
Y136479D01*
X278049Y135896D01*
X276300D01*
X277466D02*
X278633Y134730D01*
X282131Y138229D02*
X280965Y137646D01*
X279799Y136479D01*
Y135313D01*
X280382Y134730D01*
X281548D01*
X282131Y135313D01*
Y135896D01*
X281548Y136479D01*
X279799D01*
X244200Y140300D02*
Y143799D01*
X245949D01*
X246533Y143216D01*
Y142049D01*
X245949Y141466D01*
X244200D01*
X245366D02*
X246533Y140300D01*
X250031Y143799D02*
X247699D01*
Y142049D01*
X248865Y142633D01*
X249448D01*
X250031Y142049D01*
Y140883D01*
X249448Y140300D01*
X248282D01*
X247699Y140883D01*
X194300Y134870D02*
Y138369D01*
X196049D01*
X196633Y137786D01*
Y136619D01*
X196049Y136036D01*
X194300D01*
X195466D02*
X196633Y134870D01*
X199548D02*
Y138369D01*
X197799Y136619D01*
X200131D01*
X292733Y4983D02*
Y7316D01*
X292149Y7899D01*
X290983D01*
X290400Y7316D01*
Y4983D01*
X290983Y4400D01*
X292149D01*
X291566Y5566D02*
X292733Y4400D01*
X292149D02*
X292733Y4983D01*
X293899Y4400D02*
X295065D01*
X294482D01*
Y7899D01*
X293899Y7316D01*
X296815D02*
X297398Y7899D01*
X298564D01*
X299147Y7316D01*
Y6733D01*
X298564Y6149D01*
X299147Y5566D01*
Y4983D01*
X298564Y4400D01*
X297398D01*
X296815Y4983D01*
Y5566D01*
X297398Y6149D01*
X296815Y6733D01*
Y7316D01*
X297398Y6149D02*
X298564D01*
X249033Y3883D02*
Y6216D01*
X248449Y6799D01*
X247283D01*
X246700Y6216D01*
Y3883D01*
X247283Y3300D01*
X248449D01*
X247866Y4466D02*
X249033Y3300D01*
X248449D02*
X249033Y3883D01*
X250199Y3300D02*
X251365D01*
X250782D01*
Y6799D01*
X250199Y6216D01*
X253115Y6799D02*
X255447D01*
Y6216D01*
X253115Y3883D01*
Y3300D01*
X207333Y4183D02*
Y6516D01*
X206749Y7099D01*
X205583D01*
X205000Y6516D01*
Y4183D01*
X205583Y3600D01*
X206749D01*
X206166Y4766D02*
X207333Y3600D01*
X206749D02*
X207333Y4183D01*
X208499Y3600D02*
X209665D01*
X209082D01*
Y7099D01*
X208499Y6516D01*
X213747Y7099D02*
X212581Y6516D01*
X211415Y5349D01*
Y4183D01*
X211998Y3600D01*
X213164D01*
X213747Y4183D01*
Y4766D01*
X213164Y5349D01*
X211415D01*
X163333Y4583D02*
Y6916D01*
X162749Y7499D01*
X161583D01*
X161000Y6916D01*
Y4583D01*
X161583Y4000D01*
X162749D01*
X162166Y5166D02*
X163333Y4000D01*
X162749D02*
X163333Y4583D01*
X164499Y4000D02*
X165665D01*
X165082D01*
Y7499D01*
X164499Y6916D01*
X169747Y7499D02*
X167415D01*
Y5749D01*
X168581Y6333D01*
X169164D01*
X169747Y5749D01*
Y4583D01*
X169164Y4000D01*
X167998D01*
X167415Y4583D01*
X114317Y11933D02*
X111984D01*
X111401Y11349D01*
Y10183D01*
X111984Y9600D01*
X114317D01*
X114900Y10183D01*
Y11349D01*
X113734Y10766D02*
X114900Y11933D01*
Y11349D02*
X114317Y11933D01*
X114900Y13099D02*
Y14265D01*
Y13682D01*
X111401D01*
X111984Y13099D01*
X114900Y17764D02*
X111401D01*
X113151Y16015D01*
Y18347D01*
X297233Y123932D02*
X299566D01*
X300149Y124515D01*
Y125681D01*
X299566Y126264D01*
X297233D01*
X296650Y125681D01*
Y124515D01*
X297816Y125098D02*
X296650Y123932D01*
Y124515D02*
X297233Y123932D01*
X296650Y122765D02*
Y121599D01*
Y122182D01*
X300149D01*
X299566Y122765D01*
Y119850D02*
X300149Y119266D01*
Y118100D01*
X299566Y117517D01*
X298983D01*
X298399Y118100D01*
Y118683D01*
Y118100D01*
X297816Y117517D01*
X297233D01*
X296650Y118100D01*
Y119266D01*
X297233Y119850D01*
X646083Y149267D02*
X648416D01*
X648999Y149851D01*
Y151017D01*
X648416Y151600D01*
X646083D01*
X645500Y151017D01*
Y149851D01*
X646666Y150434D02*
X645500Y149267D01*
Y149851D02*
X646083Y149267D01*
X645500Y148101D02*
Y146935D01*
Y147518D01*
X648999D01*
X648416Y148101D01*
X645500Y142853D02*
Y145185D01*
X647833Y142853D01*
X648416D01*
X648999Y143436D01*
Y144602D01*
X648416Y145185D01*
X598367Y138717D02*
Y136384D01*
X598951Y135801D01*
X600117D01*
X600700Y136384D01*
Y138717D01*
X600117Y139300D01*
X598951D01*
X599534Y138134D02*
X598367Y139300D01*
X598951D02*
X598367Y138717D01*
X597201Y139300D02*
X596035D01*
X596618D01*
Y135801D01*
X597201Y136384D01*
X594285Y139300D02*
X593119D01*
X593702D01*
Y135801D01*
X594285Y136384D01*
X559067Y139517D02*
Y137184D01*
X559651Y136601D01*
X560817D01*
X561400Y137184D01*
Y139517D01*
X560817Y140100D01*
X559651D01*
X560234Y138934D02*
X559067Y140100D01*
X559651D02*
X559067Y139517D01*
X557901Y140100D02*
X556735D01*
X557318D01*
Y136601D01*
X557901Y137184D01*
X554985D02*
X554402Y136601D01*
X553236D01*
X552653Y137184D01*
Y139517D01*
X553236Y140100D01*
X554402D01*
X554985Y139517D01*
Y137184D01*
X521317Y137367D02*
Y135034D01*
X521901Y134451D01*
X523067D01*
X523650Y135034D01*
Y137367D01*
X523067Y137950D01*
X521901D01*
X522484Y136784D02*
X521317Y137950D01*
X521901D02*
X521317Y137367D01*
X520151D02*
X519568Y137950D01*
X518402D01*
X517818Y137367D01*
Y135034D01*
X518402Y134451D01*
X519568D01*
X520151Y135034D01*
Y135617D01*
X519568Y136201D01*
X517818D01*
X479067Y138617D02*
Y136284D01*
X479651Y135701D01*
X480817D01*
X481400Y136284D01*
Y138617D01*
X480817Y139200D01*
X479651D01*
X480234Y138034D02*
X479067Y139200D01*
X479651D02*
X479067Y138617D01*
X477901Y136284D02*
X477318Y135701D01*
X476152D01*
X475568Y136284D01*
Y136867D01*
X476152Y137451D01*
X475568Y138034D01*
Y138617D01*
X476152Y139200D01*
X477318D01*
X477901Y138617D01*
Y138034D01*
X477318Y137451D01*
X477901Y136867D01*
Y136284D01*
X477318Y137451D02*
X476152D01*
X433167Y140217D02*
Y137884D01*
X433751Y137301D01*
X434917D01*
X435500Y137884D01*
Y140217D01*
X434917Y140800D01*
X433751D01*
X434334Y139634D02*
X433167Y140800D01*
X433751D02*
X433167Y140217D01*
X432001Y137301D02*
X429669D01*
Y137884D01*
X432001Y140217D01*
Y140800D01*
X381833Y137183D02*
Y139516D01*
X381249Y140099D01*
X380083D01*
X379500Y139516D01*
Y137183D01*
X380083Y136600D01*
X381249D01*
X380666Y137766D02*
X381833Y136600D01*
X381249D02*
X381833Y137183D01*
X385331Y140099D02*
X384165Y139516D01*
X382999Y138349D01*
Y137183D01*
X383582Y136600D01*
X384748D01*
X385331Y137183D01*
Y137766D01*
X384748Y138349D01*
X382999D01*
X343133Y135583D02*
Y137916D01*
X342549Y138499D01*
X341383D01*
X340800Y137916D01*
Y135583D01*
X341383Y135000D01*
X342549D01*
X341966Y136166D02*
X343133Y135000D01*
X342549D02*
X343133Y135583D01*
X346631Y138499D02*
X344299D01*
Y136749D01*
X345465Y137333D01*
X346048D01*
X346631Y136749D01*
Y135583D01*
X346048Y135000D01*
X344882D01*
X344299Y135583D01*
X302833Y136983D02*
Y139316D01*
X302249Y139899D01*
X301083D01*
X300500Y139316D01*
Y136983D01*
X301083Y136400D01*
X302249D01*
X301666Y137566D02*
X302833Y136400D01*
X302249D02*
X302833Y136983D01*
X305748Y136400D02*
Y139899D01*
X303999Y138149D01*
X306331D01*
X262833Y136013D02*
Y138346D01*
X262249Y138929D01*
X261083D01*
X260500Y138346D01*
Y136013D01*
X261083Y135430D01*
X262249D01*
X261666Y136596D02*
X262833Y135430D01*
X262249D02*
X262833Y136013D01*
X263999Y138346D02*
X264582Y138929D01*
X265748D01*
X266331Y138346D01*
Y137763D01*
X265748Y137179D01*
X265165D01*
X265748D01*
X266331Y136596D01*
Y136013D01*
X265748Y135430D01*
X264582D01*
X263999Y136013D01*
X220033Y136433D02*
Y138766D01*
X219449Y139349D01*
X218283D01*
X217700Y138766D01*
Y136433D01*
X218283Y135850D01*
X219449D01*
X218866Y137016D02*
X220033Y135850D01*
X219449D02*
X220033Y136433D01*
X223531Y135850D02*
X221199D01*
X223531Y138183D01*
Y138766D01*
X222948Y139349D01*
X221782D01*
X221199Y138766D01*
X174133Y136840D02*
Y139172D01*
X173549Y139756D01*
X172383D01*
X171800Y139172D01*
Y136840D01*
X172383Y136257D01*
X173549D01*
X172966Y137423D02*
X174133Y136257D01*
X173549D02*
X174133Y136840D01*
X175299Y136257D02*
X176465D01*
X175882D01*
Y139756D01*
X175299Y139172D01*
X284601Y24000D02*
X288100D01*
Y25749D01*
X287517Y26333D01*
X285184D01*
X284601Y25749D01*
Y24000D01*
X288100Y29831D02*
Y27499D01*
X285767Y29831D01*
X285184D01*
X284601Y29248D01*
Y28082D01*
X285184Y27499D01*
Y30998D02*
X284601Y31581D01*
Y32747D01*
X285184Y33330D01*
X287517D01*
X288100Y32747D01*
Y31581D01*
X287517Y30998D01*
X285184D01*
X267100Y31399D02*
Y27900D01*
X268849D01*
X269433Y28483D01*
Y30816D01*
X268849Y31399D01*
X267100D01*
X270599Y27900D02*
X271765D01*
X271182D01*
Y31399D01*
X270599Y30816D01*
X273515Y28483D02*
X274098Y27900D01*
X275264D01*
X275847Y28483D01*
Y30816D01*
X275264Y31399D01*
X274098D01*
X273515Y30816D01*
Y30233D01*
X274098Y29649D01*
X275847D01*
X225500Y30799D02*
Y27300D01*
X227249D01*
X227833Y27883D01*
Y30216D01*
X227249Y30799D01*
X225500D01*
X228999Y27300D02*
X230165D01*
X229582D01*
Y30799D01*
X228999Y30216D01*
X231915D02*
X232498Y30799D01*
X233664D01*
X234247Y30216D01*
Y29633D01*
X233664Y29049D01*
X234247Y28466D01*
Y27883D01*
X233664Y27300D01*
X232498D01*
X231915Y27883D01*
Y28466D01*
X232498Y29049D01*
X231915Y29633D01*
Y30216D01*
X232498Y29049D02*
X233664D01*
X183100Y30599D02*
Y27100D01*
X184849D01*
X185433Y27683D01*
Y30016D01*
X184849Y30599D01*
X183100D01*
X186599Y27100D02*
X187765D01*
X187182D01*
Y30599D01*
X186599Y30016D01*
X189515Y30599D02*
X191847D01*
Y30016D01*
X189515Y27683D01*
Y27100D01*
X140800Y30199D02*
Y26700D01*
X142549D01*
X143133Y27283D01*
Y29616D01*
X142549Y30199D01*
X140800D01*
X144299Y26700D02*
X145465D01*
X144882D01*
Y30199D01*
X144299Y29616D01*
X149547Y30199D02*
X148381Y29616D01*
X147215Y28449D01*
Y27283D01*
X147798Y26700D01*
X148964D01*
X149547Y27283D01*
Y27866D01*
X148964Y28449D01*
X147215D01*
X267500Y129129D02*
Y125630D01*
X269249D01*
X269833Y126213D01*
Y128546D01*
X269249Y129129D01*
X267500D01*
X270999Y125630D02*
X272165D01*
X271582D01*
Y129129D01*
X270999Y128546D01*
X276247Y129129D02*
X273915D01*
Y127379D01*
X275081Y127963D01*
X275664D01*
X276247Y127379D01*
Y126213D01*
X275664Y125630D01*
X274498D01*
X273915Y126213D01*
X639500Y162599D02*
Y159100D01*
X641249D01*
X641833Y159683D01*
Y162016D01*
X641249Y162599D01*
X639500D01*
X642999Y159100D02*
X644165D01*
X643582D01*
Y162599D01*
X642999Y162016D01*
X647664Y159100D02*
Y162599D01*
X645915Y160849D01*
X648247D01*
X600300Y162499D02*
Y159000D01*
X602049D01*
X602633Y159583D01*
Y161916D01*
X602049Y162499D01*
X600300D01*
X603799Y159000D02*
X604965D01*
X604382D01*
Y162499D01*
X603799Y161916D01*
X606715D02*
X607298Y162499D01*
X608464D01*
X609047Y161916D01*
Y161333D01*
X608464Y160749D01*
X607881D01*
X608464D01*
X609047Y160166D01*
Y159583D01*
X608464Y159000D01*
X607298D01*
X606715Y159583D01*
X564499Y163900D02*
X561000D01*
Y162151D01*
X561583Y161567D01*
X563916D01*
X564499Y162151D01*
Y163900D01*
X561000Y160401D02*
Y159235D01*
Y159818D01*
X564499D01*
X563916Y160401D01*
X561000Y155153D02*
Y157485D01*
X563333Y155153D01*
X563916D01*
X564499Y155736D01*
Y156902D01*
X563916Y157485D01*
X521699Y163900D02*
X518200D01*
Y162151D01*
X518783Y161567D01*
X521116D01*
X521699Y162151D01*
Y163900D01*
X518200Y160401D02*
Y159235D01*
Y159818D01*
X521699D01*
X521116Y160401D01*
X518200Y157485D02*
Y156319D01*
Y156902D01*
X521699D01*
X521116Y157485D01*
X484199Y164300D02*
X480700D01*
Y162551D01*
X481283Y161967D01*
X483616D01*
X484199Y162551D01*
Y164300D01*
X480700Y160801D02*
Y159635D01*
Y160218D01*
X484199D01*
X483616Y160801D01*
Y157885D02*
X484199Y157302D01*
Y156136D01*
X483616Y155553D01*
X481283D01*
X480700Y156136D01*
Y157302D01*
X481283Y157885D01*
X483616D01*
X442399Y163700D02*
X438900D01*
Y161951D01*
X439483Y161367D01*
X441816D01*
X442399Y161951D01*
Y163700D01*
X439483Y160201D02*
X438900Y159618D01*
Y158452D01*
X439483Y157869D01*
X441816D01*
X442399Y158452D01*
Y159618D01*
X441816Y160201D01*
X441233D01*
X440649Y159618D01*
Y157869D01*
X397600Y162199D02*
Y158700D01*
X399349D01*
X399933Y159283D01*
Y161616D01*
X399349Y162199D01*
X397600D01*
X401099Y161616D02*
X401682Y162199D01*
X402848D01*
X403431Y161616D01*
Y161033D01*
X402848Y160449D01*
X403431Y159866D01*
Y159283D01*
X402848Y158700D01*
X401682D01*
X401099Y159283D01*
Y159866D01*
X401682Y160449D01*
X401099Y161033D01*
Y161616D01*
X401682Y160449D02*
X402848D01*
X361899Y163300D02*
X358400D01*
Y161551D01*
X358983Y160967D01*
X361316D01*
X361899Y161551D01*
Y163300D01*
Y159801D02*
Y157469D01*
X361316D01*
X358983Y159801D01*
X358400D01*
X321699Y163750D02*
X318200D01*
Y162001D01*
X318783Y161417D01*
X321116D01*
X321699Y162001D01*
Y163750D01*
Y157919D02*
X321116Y159085D01*
X319949Y160251D01*
X318783D01*
X318200Y159668D01*
Y158502D01*
X318783Y157919D01*
X319366D01*
X319949Y158502D01*
Y160251D01*
X282299Y162700D02*
X278800D01*
Y160951D01*
X279383Y160367D01*
X281716D01*
X282299Y160951D01*
Y162700D01*
Y156869D02*
Y159201D01*
X280549D01*
X281133Y158035D01*
Y157452D01*
X280549Y156869D01*
X279383D01*
X278800Y157452D01*
Y158618D01*
X279383Y159201D01*
X240699Y163750D02*
X237200D01*
Y162001D01*
X237783Y161417D01*
X240116D01*
X240699Y162001D01*
Y163750D01*
X237200Y158502D02*
X240699D01*
X238949Y160251D01*
Y157919D01*
X201099Y163500D02*
X197600D01*
Y161751D01*
X198183Y161167D01*
X200516D01*
X201099Y161751D01*
Y163500D01*
X200516Y160001D02*
X201099Y159418D01*
Y158252D01*
X200516Y157669D01*
X199933D01*
X199349Y158252D01*
Y158835D01*
Y158252D01*
X198766Y157669D01*
X198183D01*
X197600Y158252D01*
Y159418D01*
X198183Y160001D01*
X71618Y14116D02*
X71035Y14699D01*
X69869D01*
X69286Y14116D01*
Y11783D01*
X69869Y11200D01*
X71035D01*
X71618Y11783D01*
X75117Y14699D02*
X72785D01*
Y12949D01*
X73951Y13533D01*
X74534D01*
X75117Y12949D01*
Y11783D01*
X74534Y11200D01*
X73368D01*
X72785Y11783D01*
X93014Y162420D02*
Y159921D01*
X93180Y159421D01*
X93513Y159088D01*
X94013Y158921D01*
X94346D01*
X94846Y159088D01*
X95180Y159421D01*
X95346Y159921D01*
Y162420D01*
X96479Y161587D02*
Y161754D01*
X96646Y162087D01*
X96813Y162254D01*
X97146Y162420D01*
X97812D01*
X98146Y162254D01*
X98312Y162087D01*
X98479Y161754D01*
Y161420D01*
X98312Y161087D01*
X97979Y160587D01*
X96313Y158921D01*
X98646D01*
X101595Y161254D02*
X101428Y160754D01*
X101095Y160421D01*
X100595Y160254D01*
X100428D01*
X99929Y160421D01*
X99595Y160754D01*
X99429Y161254D01*
Y161420D01*
X99595Y161920D01*
X99929Y162254D01*
X100428Y162420D01*
X100595D01*
X101095Y162254D01*
X101428Y161920D01*
X101595Y161254D01*
Y160421D01*
X101428Y159588D01*
X101095Y159088D01*
X100595Y158921D01*
X100262D01*
X99762Y159088D01*
X99595Y159421D01*
X106734Y201301D02*
Y204800D01*
X107900Y201301D02*
X105567D01*
X105151Y201967D02*
X104817Y201801D01*
X104317Y201301D01*
Y204800D01*
X150901Y109390D02*
X154400D01*
X150901D02*
Y110890D01*
X151067Y111390D01*
X151234Y111556D01*
X151567Y111723D01*
X151900D01*
X152234Y111556D01*
X152400Y111390D01*
X152567Y110890D01*
Y109390D01*
Y110556D02*
X154400Y111723D01*
X152067Y114672D02*
X152567Y114506D01*
X152900Y114172D01*
X153067Y113672D01*
Y113506D01*
X152900Y113006D01*
X152567Y112673D01*
X152067Y112506D01*
X151900D01*
X151401Y112673D01*
X151067Y113006D01*
X150901Y113506D01*
Y113672D01*
X151067Y114172D01*
X151401Y114506D01*
X152067Y114672D01*
X152900D01*
X153734Y114506D01*
X154233Y114172D01*
X154400Y113672D01*
Y113339D01*
X154233Y112839D01*
X153900Y112673D01*
X150901Y117622D02*
Y115955D01*
X152400Y115789D01*
X152234Y115955D01*
X152067Y116455D01*
Y116955D01*
X152234Y117455D01*
X152567Y117788D01*
X153067Y117955D01*
X153400D01*
X153900Y117788D01*
X154233Y117455D01*
X154400Y116955D01*
Y116455D01*
X154233Y115955D01*
X154067Y115789D01*
X153734Y115622D01*
X156400Y203401D02*
Y206900D01*
Y203401D02*
X154900D01*
X154400Y203567D01*
X154234Y203734D01*
X154067Y204067D01*
Y204400D01*
X154234Y204734D01*
X154400Y204900D01*
X154900Y205067D01*
X156400D01*
X155234D02*
X154067Y206900D01*
X151118Y204567D02*
X151284Y205067D01*
X151618Y205400D01*
X152118Y205567D01*
X152284D01*
X152784Y205400D01*
X153117Y205067D01*
X153284Y204567D01*
Y204400D01*
X153117Y203901D01*
X152784Y203567D01*
X152284Y203401D01*
X152118D01*
X151618Y203567D01*
X151284Y203901D01*
X151118Y204567D01*
Y205400D01*
X151284Y206234D01*
X151618Y206733D01*
X152118Y206900D01*
X152451D01*
X152951Y206733D01*
X153117Y206400D01*
X148502Y203401D02*
X150168Y205734D01*
X147669D01*
X148502Y203401D02*
Y206900D01*
X156300Y194901D02*
Y198400D01*
Y194901D02*
X154800D01*
X154300Y195067D01*
X154134Y195234D01*
X153967Y195567D01*
Y195900D01*
X154134Y196234D01*
X154300Y196400D01*
X154800Y196567D01*
X156300D01*
X155134D02*
X153967Y198400D01*
X151018Y196067D02*
X151184Y196567D01*
X151518Y196900D01*
X152018Y197067D01*
X152184D01*
X152684Y196900D01*
X153017Y196567D01*
X153184Y196067D01*
Y195900D01*
X153017Y195401D01*
X152684Y195067D01*
X152184Y194901D01*
X152018D01*
X151518Y195067D01*
X151184Y195401D01*
X151018Y196067D01*
Y196900D01*
X151184Y197733D01*
X151518Y198233D01*
X152018Y198400D01*
X152351D01*
X152851Y198233D01*
X153017Y197900D01*
X149901Y195734D02*
Y195567D01*
X149735Y195234D01*
X149568Y195067D01*
X149235Y194901D01*
X148568D01*
X148235Y195067D01*
X148068Y195234D01*
X147902Y195567D01*
Y195900D01*
X148068Y196234D01*
X148402Y196734D01*
X150068Y198400D01*
X147735D01*
X125900Y223399D02*
Y219900D01*
Y223399D02*
X127400D01*
X127900Y223233D01*
X128066Y223066D01*
X128233Y222733D01*
Y222399D01*
X128066Y222066D01*
X127900Y221900D01*
X127400Y221733D01*
X125900D01*
X127066D02*
X128233Y219900D01*
X131182Y222233D02*
X131016Y221733D01*
X130682Y221400D01*
X130182Y221233D01*
X130016D01*
X129516Y221400D01*
X129183Y221733D01*
X129016Y222233D01*
Y222399D01*
X129183Y222899D01*
X129516Y223233D01*
X130016Y223399D01*
X130182D01*
X130682Y223233D01*
X131016Y222899D01*
X131182Y222233D01*
Y221400D01*
X131016Y220567D01*
X130682Y220067D01*
X130182Y219900D01*
X129849D01*
X129349Y220067D01*
X129183Y220400D01*
X133132Y223399D02*
X132632Y223233D01*
X132299Y222733D01*
X132132Y221900D01*
Y221400D01*
X132299Y220567D01*
X132632Y220067D01*
X133132Y219900D01*
X133465D01*
X133965Y220067D01*
X134298Y220567D01*
X134465Y221400D01*
Y221900D01*
X134298Y222733D01*
X133965Y223233D01*
X133465Y223399D01*
X133132D01*
X102600Y119563D02*
Y116064D01*
Y119563D02*
X103766D01*
X104266Y119397D01*
X104600Y119064D01*
X104766Y118730D01*
X104933Y118230D01*
Y117397D01*
X104766Y116897D01*
X104600Y116564D01*
X104266Y116231D01*
X103766Y116064D01*
X102600D01*
X105883Y118730D02*
Y118897D01*
X106049Y119230D01*
X106216Y119397D01*
X106549Y119563D01*
X107216D01*
X107549Y119397D01*
X107716Y119230D01*
X107882Y118897D01*
Y118564D01*
X107716Y118230D01*
X107382Y117730D01*
X105716Y116064D01*
X108049D01*
X110498Y119563D02*
X108832Y117231D01*
X111331D01*
X110498Y119563D02*
Y116064D01*
X146599Y131866D02*
X146433Y132199D01*
X146100Y132533D01*
X145766Y132699D01*
X145100D01*
X144766Y132533D01*
X144433Y132199D01*
X144267Y131866D01*
X144100Y131366D01*
Y130533D01*
X144267Y130033D01*
X144433Y129700D01*
X144766Y129367D01*
X145100Y129200D01*
X145766D01*
X146100Y129367D01*
X146433Y129700D01*
X146599Y130033D01*
X147916Y132699D02*
X149749D01*
X148749Y131366D01*
X149249D01*
X149582Y131200D01*
X149749Y131033D01*
X149915Y130533D01*
Y130200D01*
X149749Y129700D01*
X149416Y129367D01*
X148916Y129200D01*
X148416D01*
X147916Y129367D01*
X147749Y129533D01*
X147583Y129867D01*
X152865Y131533D02*
X152698Y131033D01*
X152365Y130700D01*
X151865Y130533D01*
X151698D01*
X151198Y130700D01*
X150865Y131033D01*
X150699Y131533D01*
Y131700D01*
X150865Y132199D01*
X151198Y132533D01*
X151698Y132699D01*
X151865D01*
X152365Y132533D01*
X152698Y132199D01*
X152865Y131533D01*
Y130700D01*
X152698Y129867D01*
X152365Y129367D01*
X151865Y129200D01*
X151532D01*
X151032Y129367D01*
X150865Y129700D01*
X108200Y189700D02*
Y186201D01*
X106451D01*
X105867Y186784D01*
Y187951D01*
X106451Y188534D01*
X108200D01*
X107034D02*
X105867Y189700D01*
X102369Y186201D02*
X104701D01*
Y187951D01*
X103535Y187367D01*
X102952D01*
X102369Y187951D01*
Y189117D01*
X102952Y189700D01*
X104118D01*
X104701Y189117D01*
X101202D02*
X100619Y189700D01*
X99453D01*
X98870Y189117D01*
Y186784D01*
X99453Y186201D01*
X100619D01*
X101202Y186784D01*
Y187367D01*
X100619Y187951D01*
X98870D01*
X453544Y52299D02*
Y48800D01*
Y52299D02*
X455044D01*
X455544Y52133D01*
X455710Y51966D01*
X455877Y51633D01*
Y51300D01*
X455710Y50966D01*
X455544Y50800D01*
X455044Y50633D01*
X453544D01*
X454710D02*
X455877Y48800D01*
X457493Y52299D02*
X456993Y52133D01*
X456827Y51799D01*
Y51466D01*
X456993Y51133D01*
X457327Y50966D01*
X457993Y50800D01*
X458493Y50633D01*
X458826Y50300D01*
X458993Y49966D01*
Y49466D01*
X458826Y49133D01*
X458660Y48967D01*
X458160Y48800D01*
X457493D01*
X456993Y48967D01*
X456827Y49133D01*
X456660Y49466D01*
Y49966D01*
X456827Y50300D01*
X457160Y50633D01*
X457660Y50800D01*
X458326Y50966D01*
X458660Y51133D01*
X458826Y51466D01*
Y51799D01*
X458660Y52133D01*
X458160Y52299D01*
X457493D01*
X461442D02*
X459776Y49966D01*
X462276D01*
X461442Y52299D02*
Y48800D01*
X332400Y111931D02*
Y109431D01*
X332567Y108931D01*
X332900Y108598D01*
X333400Y108431D01*
X333733D01*
X334233Y108598D01*
X334566Y108931D01*
X334733Y109431D01*
Y111931D01*
X338365Y108431D02*
X337032Y111931D01*
X335699Y108431D01*
X336199Y109598D02*
X337865D01*
X339182Y111931D02*
Y108431D01*
Y111931D02*
X340682D01*
X341181Y111764D01*
X341348Y111598D01*
X341515Y111264D01*
Y110931D01*
X341348Y110598D01*
X341181Y110431D01*
X340682Y110264D01*
X339182D01*
X340348D02*
X341515Y108431D01*
X343464Y111931D02*
Y108431D01*
X342298Y111931D02*
X344631D01*
X345047Y111264D02*
X345380Y111431D01*
X345880Y111931D01*
Y108431D01*
X425800Y113299D02*
Y110800D01*
X425967Y110300D01*
X426300Y109967D01*
X426800Y109800D01*
X427133D01*
X427633Y109967D01*
X427966Y110300D01*
X428133Y110800D01*
Y113299D01*
X429266Y112466D02*
Y112633D01*
X429432Y112966D01*
X429599Y113133D01*
X429932Y113299D01*
X430599D01*
X430932Y113133D01*
X431099Y112966D01*
X431265Y112633D01*
Y112300D01*
X431099Y111966D01*
X430766Y111466D01*
X429099Y109800D01*
X431432D01*
X433048Y113299D02*
X432549Y113133D01*
X432382Y112799D01*
Y112466D01*
X432549Y112133D01*
X432882Y111966D01*
X433548Y111800D01*
X434048Y111633D01*
X434381Y111300D01*
X434548Y110966D01*
Y110467D01*
X434381Y110133D01*
X434215Y109967D01*
X433715Y109800D01*
X433048D01*
X432549Y109967D01*
X432382Y110133D01*
X432215Y110467D01*
Y110966D01*
X432382Y111300D01*
X432715Y111633D01*
X433215Y111800D01*
X433882Y111966D01*
X434215Y112133D01*
X434381Y112466D01*
Y112799D01*
X434215Y113133D01*
X433715Y113299D01*
X433048D01*
X433300Y8999D02*
Y6500D01*
X433467Y6000D01*
X433800Y5667D01*
X434300Y5500D01*
X434633D01*
X435133Y5667D01*
X435466Y6000D01*
X435633Y6500D01*
Y8999D01*
X436766Y8166D02*
Y8333D01*
X436933Y8666D01*
X437099Y8833D01*
X437432Y8999D01*
X438099D01*
X438432Y8833D01*
X438599Y8666D01*
X438765Y8333D01*
Y7999D01*
X438599Y7666D01*
X438266Y7166D01*
X436599Y5500D01*
X438932D01*
X442048Y8999D02*
X440382Y5500D01*
X439715Y8999D02*
X442048D01*
X348966Y114299D02*
Y110800D01*
X347800Y114299D02*
X350133D01*
X352882Y113799D02*
X352549Y114133D01*
X352049Y114299D01*
X351383D01*
X350883Y114133D01*
X350549Y113799D01*
Y113466D01*
X350716Y113133D01*
X350883Y112966D01*
X351216Y112800D01*
X352216Y112466D01*
X352549Y112300D01*
X352716Y112133D01*
X352882Y111800D01*
Y111300D01*
X352549Y110967D01*
X352049Y110800D01*
X351383D01*
X350883Y110967D01*
X350549Y111300D01*
X354832Y114299D02*
Y110800D01*
X353665Y114299D02*
X355998D01*
X356581Y113466D02*
Y113633D01*
X356748Y113966D01*
X356915Y114133D01*
X357248Y114299D01*
X357914D01*
X358248Y114133D01*
X358414Y113966D01*
X358581Y113633D01*
Y113300D01*
X358414Y112966D01*
X358081Y112466D01*
X356415Y110800D01*
X358748D01*
X334733Y59431D02*
X334400Y59764D01*
X333900Y59931D01*
X333233D01*
X332733Y59764D01*
X332400Y59431D01*
Y59098D01*
X332567Y58764D01*
X332733Y58598D01*
X333067Y58431D01*
X334066Y58098D01*
X334400Y57931D01*
X334566Y57765D01*
X334733Y57431D01*
Y56931D01*
X334400Y56598D01*
X333900Y56432D01*
X333233D01*
X332733Y56598D01*
X332400Y56931D01*
X335516Y59931D02*
X336349Y56432D01*
X337182Y59931D02*
X336349Y56432D01*
X337182Y59931D02*
X338016Y56432D01*
X338849Y59931D02*
X338016Y56432D01*
X339548Y59931D02*
Y56432D01*
Y59931D02*
X340715D01*
X341215Y59764D01*
X341548Y59431D01*
X341715Y59098D01*
X341881Y58598D01*
Y57765D01*
X341715Y57265D01*
X341548Y56931D01*
X341215Y56598D01*
X340715Y56432D01*
X339548D01*
X342665Y59264D02*
X342998Y59431D01*
X343498Y59931D01*
Y56432D01*
X390100Y125756D02*
Y122257D01*
Y125756D02*
X391600D01*
X392100Y125589D01*
X392266Y125423D01*
X392433Y125089D01*
Y124756D01*
X392266Y124423D01*
X392100Y124256D01*
X391600Y124090D01*
X390100D01*
X391266D02*
X392433Y122257D01*
X395382Y124590D02*
X395216Y124090D01*
X394882Y123756D01*
X394382Y123590D01*
X394216D01*
X393716Y123756D01*
X393383Y124090D01*
X393216Y124590D01*
Y124756D01*
X393383Y125256D01*
X393716Y125589D01*
X394216Y125756D01*
X394382D01*
X394882Y125589D01*
X395216Y125256D01*
X395382Y124590D01*
Y123756D01*
X395216Y122923D01*
X394882Y122423D01*
X394382Y122257D01*
X394049D01*
X393549Y122423D01*
X393383Y122757D01*
X396665Y125756D02*
X398498D01*
X397498Y124423D01*
X397998D01*
X398332Y124256D01*
X398498Y124090D01*
X398665Y123590D01*
Y123257D01*
X398498Y122757D01*
X398165Y122423D01*
X397665Y122257D01*
X397165D01*
X396665Y122423D01*
X396499Y122590D01*
X396332Y122923D01*
X386000Y32231D02*
Y28732D01*
Y32231D02*
X387500D01*
X388000Y32064D01*
X388166Y31898D01*
X388333Y31564D01*
Y31231D01*
X388166Y30898D01*
X388000Y30731D01*
X387500Y30564D01*
X386000D01*
X387166D02*
X388333Y28732D01*
X391282Y31064D02*
X391116Y30564D01*
X390782Y30231D01*
X390282Y30065D01*
X390116D01*
X389616Y30231D01*
X389283Y30564D01*
X389116Y31064D01*
Y31231D01*
X389283Y31731D01*
X389616Y32064D01*
X390116Y32231D01*
X390282D01*
X390782Y32064D01*
X391116Y31731D01*
X391282Y31064D01*
Y30231D01*
X391116Y29398D01*
X390782Y28898D01*
X390282Y28732D01*
X389949D01*
X389449Y28898D01*
X389283Y29231D01*
X392232Y31564D02*
X392565Y31731D01*
X393065Y32231D01*
Y28732D01*
X353000Y12099D02*
Y8600D01*
Y12099D02*
X354500D01*
X355000Y11933D01*
X355166Y11766D01*
X355333Y11433D01*
Y11100D01*
X355166Y10766D01*
X355000Y10600D01*
X354500Y10433D01*
X353000D01*
X354166D02*
X355333Y8600D01*
X356949Y12099D02*
X356449Y11933D01*
X356283Y11599D01*
Y11266D01*
X356449Y10933D01*
X356783Y10766D01*
X357449Y10600D01*
X357949Y10433D01*
X358282Y10100D01*
X358449Y9766D01*
Y9267D01*
X358282Y8933D01*
X358116Y8767D01*
X357616Y8600D01*
X356949D01*
X356449Y8767D01*
X356283Y8933D01*
X356116Y9267D01*
Y9766D01*
X356283Y10100D01*
X356616Y10433D01*
X357116Y10600D01*
X357782Y10766D01*
X358116Y10933D01*
X358282Y11266D01*
Y11599D01*
X358116Y11933D01*
X357616Y12099D01*
X356949D01*
X361398Y10933D02*
X361232Y10433D01*
X360898Y10100D01*
X360398Y9933D01*
X360232D01*
X359732Y10100D01*
X359399Y10433D01*
X359232Y10933D01*
Y11100D01*
X359399Y11599D01*
X359732Y11933D01*
X360232Y12099D01*
X360398D01*
X360898Y11933D01*
X361232Y11599D01*
X361398Y10933D01*
Y10100D01*
X361232Y9267D01*
X360898Y8767D01*
X360398Y8600D01*
X360065D01*
X359565Y8767D01*
X359399Y9100D01*
X444200Y81699D02*
Y78200D01*
Y81699D02*
X445700D01*
X446200Y81533D01*
X446366Y81366D01*
X446533Y81033D01*
Y80699D01*
X446366Y80366D01*
X446200Y80200D01*
X445700Y80033D01*
X444200D01*
X445366D02*
X446533Y78200D01*
X448149Y81699D02*
X447649Y81533D01*
X447483Y81199D01*
Y80866D01*
X447649Y80533D01*
X447983Y80366D01*
X448649Y80200D01*
X449149Y80033D01*
X449482Y79700D01*
X449649Y79366D01*
Y78866D01*
X449482Y78533D01*
X449316Y78367D01*
X448816Y78200D01*
X448149D01*
X447649Y78367D01*
X447483Y78533D01*
X447316Y78866D01*
Y79366D01*
X447483Y79700D01*
X447816Y80033D01*
X448316Y80200D01*
X448982Y80366D01*
X449316Y80533D01*
X449482Y80866D01*
Y81199D01*
X449316Y81533D01*
X448816Y81699D01*
X448149D01*
X451265D02*
X450765Y81533D01*
X450599Y81199D01*
Y80866D01*
X450765Y80533D01*
X451098Y80366D01*
X451765Y80200D01*
X452265Y80033D01*
X452598Y79700D01*
X452765Y79366D01*
Y78866D01*
X452598Y78533D01*
X452432Y78367D01*
X451932Y78200D01*
X451265D01*
X450765Y78367D01*
X450599Y78533D01*
X450432Y78866D01*
Y79366D01*
X450599Y79700D01*
X450932Y80033D01*
X451432Y80200D01*
X452098Y80366D01*
X452432Y80533D01*
X452598Y80866D01*
Y81199D01*
X452432Y81533D01*
X451932Y81699D01*
X451265D01*
X394600Y33899D02*
Y30400D01*
Y33899D02*
X396100D01*
X396600Y33733D01*
X396766Y33566D01*
X396933Y33233D01*
Y32899D01*
X396766Y32566D01*
X396600Y32400D01*
X396100Y32233D01*
X394600D01*
X395766D02*
X396933Y30400D01*
X398549Y33899D02*
X398049Y33733D01*
X397883Y33399D01*
Y33066D01*
X398049Y32733D01*
X398382Y32566D01*
X399049Y32400D01*
X399549Y32233D01*
X399882Y31900D01*
X400049Y31566D01*
Y31067D01*
X399882Y30733D01*
X399716Y30567D01*
X399216Y30400D01*
X398549D01*
X398049Y30567D01*
X397883Y30733D01*
X397716Y31067D01*
Y31566D01*
X397883Y31900D01*
X398216Y32233D01*
X398716Y32400D01*
X399382Y32566D01*
X399716Y32733D01*
X399882Y33066D01*
Y33399D01*
X399716Y33733D01*
X399216Y33899D01*
X398549D01*
X403165D02*
X401499Y30400D01*
X400832Y33899D02*
X403165D01*
X399357Y41399D02*
Y37900D01*
Y41399D02*
X400856D01*
X401356Y41233D01*
X401523Y41066D01*
X401689Y40733D01*
Y40400D01*
X401523Y40066D01*
X401356Y39900D01*
X400856Y39733D01*
X399357D01*
X400523D02*
X401689Y37900D01*
X403306Y41399D02*
X402806Y41233D01*
X402639Y40899D01*
Y40566D01*
X402806Y40233D01*
X403139Y40066D01*
X403806Y39900D01*
X404306Y39733D01*
X404639Y39400D01*
X404806Y39066D01*
Y38566D01*
X404639Y38233D01*
X404472Y38067D01*
X403972Y37900D01*
X403306D01*
X402806Y38067D01*
X402639Y38233D01*
X402473Y38566D01*
Y39066D01*
X402639Y39400D01*
X402973Y39733D01*
X403473Y39900D01*
X404139Y40066D01*
X404472Y40233D01*
X404639Y40566D01*
Y40899D01*
X404472Y41233D01*
X403972Y41399D01*
X403306D01*
X407588Y40899D02*
X407422Y41233D01*
X406922Y41399D01*
X406589D01*
X406089Y41233D01*
X405755Y40733D01*
X405589Y39900D01*
Y39066D01*
X405755Y38400D01*
X406089Y38067D01*
X406589Y37900D01*
X406755D01*
X407255Y38067D01*
X407588Y38400D01*
X407755Y38900D01*
Y39066D01*
X407588Y39566D01*
X407255Y39900D01*
X406755Y40066D01*
X406589D01*
X406089Y39900D01*
X405755Y39566D01*
X405589Y39066D01*
X395000Y24699D02*
Y21200D01*
Y24699D02*
X396500D01*
X397000Y24533D01*
X397166Y24366D01*
X397333Y24033D01*
Y23699D01*
X397166Y23366D01*
X397000Y23200D01*
X396500Y23033D01*
X395000D01*
X396166D02*
X397333Y21200D01*
X398949Y24699D02*
X398449Y24533D01*
X398283Y24199D01*
Y23866D01*
X398449Y23533D01*
X398782Y23366D01*
X399449Y23200D01*
X399949Y23033D01*
X400282Y22700D01*
X400449Y22366D01*
Y21867D01*
X400282Y21533D01*
X400116Y21367D01*
X399616Y21200D01*
X398949D01*
X398449Y21367D01*
X398283Y21533D01*
X398116Y21867D01*
Y22366D01*
X398283Y22700D01*
X398616Y23033D01*
X399116Y23200D01*
X399782Y23366D01*
X400116Y23533D01*
X400282Y23866D01*
Y24199D01*
X400116Y24533D01*
X399616Y24699D01*
X398949D01*
X403232D02*
X401565D01*
X401399Y23200D01*
X401565Y23366D01*
X402065Y23533D01*
X402565D01*
X403065Y23366D01*
X403398Y23033D01*
X403565Y22533D01*
Y22200D01*
X403398Y21700D01*
X403065Y21367D01*
X402565Y21200D01*
X402065D01*
X401565Y21367D01*
X401399Y21533D01*
X401232Y21867D01*
X372800Y32231D02*
Y28732D01*
X374800D01*
X377349Y32231D02*
X375183D01*
Y28732D01*
X377349D01*
X375183Y30564D02*
X376516D01*
X377932Y32231D02*
Y28732D01*
Y32231D02*
X379099D01*
X379598Y32064D01*
X379932Y31731D01*
X380098Y31398D01*
X380265Y30898D01*
Y30065D01*
X380098Y29565D01*
X379932Y29231D01*
X379598Y28898D01*
X379099Y28732D01*
X377932D01*
X381215Y31398D02*
Y31564D01*
X381382Y31898D01*
X381548Y32064D01*
X381881Y32231D01*
X382548D01*
X382881Y32064D01*
X383048Y31898D01*
X383214Y31564D01*
Y31231D01*
X383048Y30898D01*
X382715Y30398D01*
X381048Y28732D01*
X383381D01*
X443501Y109000D02*
X447000D01*
Y111000D01*
X444001Y113382D02*
X443667Y113216D01*
X443501Y112716D01*
Y112383D01*
X443667Y111883D01*
X444167Y111549D01*
X445000Y111383D01*
X445834D01*
X446500Y111549D01*
X446833Y111883D01*
X447000Y112383D01*
Y112549D01*
X446833Y113049D01*
X446500Y113382D01*
X446000Y113549D01*
X445834D01*
X445334Y113382D01*
X445000Y113049D01*
X444834Y112549D01*
Y112383D01*
X445000Y111883D01*
X445334Y111549D01*
X445834Y111383D01*
X487366Y77801D02*
X487699Y77967D01*
X488033Y78300D01*
X488199Y78634D01*
Y79300D01*
X488033Y79633D01*
X487699Y79967D01*
X487366Y80133D01*
X486866Y80300D01*
X486033D01*
X485533Y80133D01*
X485200Y79967D01*
X484867Y79633D01*
X484700Y79300D01*
Y78634D01*
X484867Y78300D01*
X485200Y77967D01*
X485533Y77801D01*
X488199Y76817D02*
X484700D01*
X488199D02*
Y75318D01*
X488033Y74818D01*
X487866Y74651D01*
X487533Y74485D01*
X487199D01*
X486866Y74651D01*
X486700Y74818D01*
X486533Y75318D01*
Y76817D01*
Y75651D02*
X484700Y74485D01*
X488199Y73701D02*
X486533Y72368D01*
X484700D01*
X488199Y71035D02*
X486533Y72368D01*
X487533Y70585D02*
X487699Y70252D01*
X488199Y69752D01*
X484700D01*
X366799Y11066D02*
X366633Y11399D01*
X366300Y11733D01*
X365966Y11899D01*
X365300D01*
X364967Y11733D01*
X364633Y11399D01*
X364467Y11066D01*
X364300Y10566D01*
Y9733D01*
X364467Y9233D01*
X364633Y8900D01*
X364967Y8567D01*
X365300Y8400D01*
X365966D01*
X366300Y8567D01*
X366633Y8900D01*
X366799Y9233D01*
X368116Y11899D02*
X369949D01*
X368949Y10566D01*
X369449D01*
X369782Y10400D01*
X369949Y10233D01*
X370115Y9733D01*
Y9400D01*
X369949Y8900D01*
X369616Y8567D01*
X369116Y8400D01*
X368616D01*
X368116Y8567D01*
X367949Y8733D01*
X367783Y9066D01*
X371732Y11899D02*
X371232Y11733D01*
X371065Y11399D01*
Y11066D01*
X371232Y10733D01*
X371565Y10566D01*
X372232Y10400D01*
X372731Y10233D01*
X373065Y9900D01*
X373231Y9566D01*
Y9066D01*
X373065Y8733D01*
X372898Y8567D01*
X372398Y8400D01*
X371732D01*
X371232Y8567D01*
X371065Y8733D01*
X370899Y9066D01*
Y9566D01*
X371065Y9900D01*
X371398Y10233D01*
X371898Y10400D01*
X372565Y10566D01*
X372898Y10733D01*
X373065Y11066D01*
Y11399D01*
X372898Y11733D01*
X372398Y11899D01*
X371732D01*
X367343Y130698D02*
X367176Y131031D01*
X366843Y131364D01*
X366510Y131531D01*
X365843D01*
X365510Y131364D01*
X365177Y131031D01*
X365010Y130698D01*
X364843Y130198D01*
Y129365D01*
X365010Y128865D01*
X365177Y128531D01*
X365510Y128198D01*
X365843Y128032D01*
X366510D01*
X366843Y128198D01*
X367176Y128531D01*
X367343Y128865D01*
X368659Y131531D02*
X370492D01*
X369492Y130198D01*
X369992D01*
X370325Y130031D01*
X370492Y129864D01*
X370659Y129365D01*
Y129031D01*
X370492Y128531D01*
X370159Y128198D01*
X369659Y128032D01*
X369159D01*
X368659Y128198D01*
X368493Y128365D01*
X368326Y128698D01*
X373775Y131531D02*
X372108Y128032D01*
X371442Y131531D02*
X373775D01*
X429700Y130641D02*
X429533Y130975D01*
X429200Y131308D01*
X428866Y131475D01*
X428200D01*
X427867Y131308D01*
X427533Y130975D01*
X427367Y130641D01*
X427200Y130142D01*
Y129308D01*
X427367Y128808D01*
X427533Y128475D01*
X427867Y128142D01*
X428200Y127975D01*
X428866D01*
X429200Y128142D01*
X429533Y128475D01*
X429700Y128808D01*
X431016Y131475D02*
X432849D01*
X431849Y130142D01*
X432349D01*
X432682Y129975D01*
X432849Y129808D01*
X433015Y129308D01*
Y128975D01*
X432849Y128475D01*
X432515Y128142D01*
X432016Y127975D01*
X431516D01*
X431016Y128142D01*
X430849Y128309D01*
X430683Y128642D01*
X435798Y130975D02*
X435632Y131308D01*
X435132Y131475D01*
X434798D01*
X434299Y131308D01*
X433965Y130808D01*
X433799Y129975D01*
Y129142D01*
X433965Y128475D01*
X434299Y128142D01*
X434798Y127975D01*
X434965D01*
X435465Y128142D01*
X435798Y128475D01*
X435965Y128975D01*
Y129142D01*
X435798Y129642D01*
X435465Y129975D01*
X434965Y130142D01*
X434798D01*
X434299Y129975D01*
X433965Y129642D01*
X433799Y129142D01*
X436400Y46466D02*
X436233Y46799D01*
X435900Y47133D01*
X435566Y47299D01*
X434900D01*
X434566Y47133D01*
X434233Y46799D01*
X434067Y46466D01*
X433900Y45966D01*
Y45133D01*
X434067Y44633D01*
X434233Y44300D01*
X434566Y43967D01*
X434900Y43800D01*
X435566D01*
X435900Y43967D01*
X436233Y44300D01*
X436400Y44633D01*
X437716Y47299D02*
X439549D01*
X438549Y45966D01*
X439049D01*
X439382Y45800D01*
X439549Y45633D01*
X439715Y45133D01*
Y44800D01*
X439549Y44300D01*
X439216Y43967D01*
X438716Y43800D01*
X438216D01*
X437716Y43967D01*
X437549Y44133D01*
X437383Y44467D01*
X442498Y47299D02*
X440832D01*
X440665Y45800D01*
X440832Y45966D01*
X441332Y46133D01*
X441832D01*
X442332Y45966D01*
X442665Y45633D01*
X442831Y45133D01*
Y44800D01*
X442665Y44300D01*
X442332Y43967D01*
X441832Y43800D01*
X441332D01*
X440832Y43967D01*
X440665Y44133D01*
X440499Y44467D01*
X352399Y45966D02*
X352233Y46299D01*
X351900Y46633D01*
X351566Y46799D01*
X350900D01*
X350567Y46633D01*
X350233Y46299D01*
X350067Y45966D01*
X349900Y45466D01*
Y44633D01*
X350067Y44133D01*
X350233Y43800D01*
X350567Y43467D01*
X350900Y43300D01*
X351566D01*
X351900Y43467D01*
X352233Y43800D01*
X352399Y44133D01*
X353716Y46799D02*
X355549D01*
X354549Y45466D01*
X355049D01*
X355382Y45300D01*
X355549Y45133D01*
X355715Y44633D01*
Y44300D01*
X355549Y43800D01*
X355216Y43467D01*
X354716Y43300D01*
X354216D01*
X353716Y43467D01*
X353549Y43633D01*
X353383Y43966D01*
X358165Y46799D02*
X356499Y44466D01*
X358998D01*
X358165Y46799D02*
Y43300D01*
X450034Y67199D02*
X449701Y67033D01*
X449367Y66700D01*
X449201Y66366D01*
Y65700D01*
X449367Y65367D01*
X449701Y65033D01*
X450034Y64867D01*
X450534Y64700D01*
X451367D01*
X451867Y64867D01*
X452200Y65033D01*
X452533Y65367D01*
X452700Y65700D01*
Y66366D01*
X452533Y66700D01*
X452200Y67033D01*
X451867Y67199D01*
X449201Y68516D02*
Y70349D01*
X450534Y69349D01*
Y69849D01*
X450700Y70182D01*
X450867Y70349D01*
X451367Y70515D01*
X451700D01*
X452200Y70349D01*
X452533Y70016D01*
X452700Y69516D01*
Y69016D01*
X452533Y68516D01*
X452367Y68349D01*
X452034Y68183D01*
X449201Y71632D02*
Y73465D01*
X450534Y72465D01*
Y72965D01*
X450700Y73298D01*
X450867Y73465D01*
X451367Y73631D01*
X451700D01*
X452200Y73465D01*
X452533Y73132D01*
X452700Y72632D01*
Y72132D01*
X452533Y71632D01*
X452367Y71465D01*
X452034Y71299D01*
X447134Y51600D02*
X446801Y51433D01*
X446467Y51100D01*
X446301Y50766D01*
Y50100D01*
X446467Y49766D01*
X446801Y49433D01*
X447134Y49267D01*
X447634Y49100D01*
X448467D01*
X448967Y49267D01*
X449300Y49433D01*
X449633Y49766D01*
X449800Y50100D01*
Y50766D01*
X449633Y51100D01*
X449300Y51433D01*
X448967Y51600D01*
X446301Y52916D02*
Y54749D01*
X447634Y53749D01*
Y54249D01*
X447800Y54582D01*
X447967Y54749D01*
X448467Y54915D01*
X448800D01*
X449300Y54749D01*
X449633Y54416D01*
X449800Y53916D01*
Y53416D01*
X449633Y52916D01*
X449467Y52749D01*
X449133Y52583D01*
X447134Y55865D02*
X446967D01*
X446634Y56032D01*
X446467Y56199D01*
X446301Y56532D01*
Y57198D01*
X446467Y57531D01*
X446634Y57698D01*
X446967Y57865D01*
X447300D01*
X447634Y57698D01*
X448134Y57365D01*
X449800Y55699D01*
Y58031D01*
X397200Y14866D02*
X397033Y15199D01*
X396700Y15533D01*
X396366Y15699D01*
X395700D01*
X395367Y15533D01*
X395033Y15199D01*
X394867Y14866D01*
X394700Y14366D01*
Y13533D01*
X394867Y13033D01*
X395033Y12700D01*
X395367Y12367D01*
X395700Y12200D01*
X396366D01*
X396700Y12367D01*
X397033Y12700D01*
X397200Y13033D01*
X398516Y15699D02*
X400349D01*
X399349Y14366D01*
X399849D01*
X400182Y14200D01*
X400349Y14033D01*
X400515Y13533D01*
Y13200D01*
X400349Y12700D01*
X400015Y12367D01*
X399516Y12200D01*
X399016D01*
X398516Y12367D01*
X398349Y12533D01*
X398183Y12867D01*
X401299Y15033D02*
X401632Y15199D01*
X402132Y15699D01*
Y12200D01*
X454736Y56481D02*
X454569Y56814D01*
X454236Y57148D01*
X453902Y57314D01*
X453236D01*
X452903Y57148D01*
X452569Y56814D01*
X452403Y56481D01*
X452236Y55981D01*
Y55148D01*
X452403Y54648D01*
X452569Y54315D01*
X452903Y53982D01*
X453236Y53815D01*
X453902D01*
X454236Y53982D01*
X454569Y54315D01*
X454736Y54648D01*
X456052Y57314D02*
X457885D01*
X456885Y55981D01*
X457385D01*
X457718Y55814D01*
X457885Y55648D01*
X458052Y55148D01*
Y54815D01*
X457885Y54315D01*
X457552Y53982D01*
X457052Y53815D01*
X456552D01*
X456052Y53982D01*
X455885Y54148D01*
X455719Y54482D01*
X459835Y57314D02*
X459335Y57148D01*
X459001Y56648D01*
X458835Y55814D01*
Y55315D01*
X459001Y54482D01*
X459335Y53982D01*
X459835Y53815D01*
X460168D01*
X460668Y53982D01*
X461001Y54482D01*
X461168Y55315D01*
Y55814D01*
X461001Y56648D01*
X460668Y57148D01*
X460168Y57314D01*
X459835D01*
X442434Y96100D02*
X442101Y95933D01*
X441767Y95600D01*
X441601Y95266D01*
Y94600D01*
X441767Y94266D01*
X442101Y93933D01*
X442434Y93767D01*
X442934Y93600D01*
X443767D01*
X444267Y93767D01*
X444600Y93933D01*
X444933Y94266D01*
X445100Y94600D01*
Y95266D01*
X444933Y95600D01*
X444600Y95933D01*
X444267Y96100D01*
X442434Y97249D02*
X442267D01*
X441934Y97416D01*
X441767Y97583D01*
X441601Y97916D01*
Y98582D01*
X441767Y98915D01*
X441934Y99082D01*
X442267Y99249D01*
X442600D01*
X442934Y99082D01*
X443434Y98749D01*
X445100Y97083D01*
Y99415D01*
X442767Y102365D02*
X443267Y102198D01*
X443600Y101865D01*
X443767Y101365D01*
Y101198D01*
X443600Y100698D01*
X443267Y100365D01*
X442767Y100199D01*
X442600D01*
X442101Y100365D01*
X441767Y100698D01*
X441601Y101198D01*
Y101365D01*
X441767Y101865D01*
X442101Y102198D01*
X442767Y102365D01*
X443600D01*
X444433Y102198D01*
X444933Y101865D01*
X445100Y101365D01*
Y101032D01*
X444933Y100532D01*
X444600Y100365D01*
X483500Y22966D02*
X480001Y21633D01*
X483500Y20300D01*
X482334Y20800D02*
Y22466D01*
X480001Y23783D02*
X483500D01*
X480001D02*
Y25282D01*
X480167Y25782D01*
X480334Y25949D01*
X480667Y26115D01*
X481001D01*
X481334Y25949D01*
X481500Y25782D01*
X481667Y25282D01*
Y23783D01*
Y24949D02*
X483500Y26115D01*
X480001Y26899D02*
X483500D01*
X480001D02*
X483500Y28232D01*
X480001Y29565D02*
X483500Y28232D01*
X480001Y29565D02*
X483500D01*
X484666Y30564D02*
Y33231D01*
X480001Y33680D02*
X483500D01*
X480001D02*
Y35180D01*
X480167Y35680D01*
X480334Y35847D01*
X480667Y36013D01*
X481001D01*
X481334Y35847D01*
X481500Y35680D01*
X481667Y35180D01*
Y33680D01*
Y34847D02*
X483500Y36013D01*
X480501Y39129D02*
X480167Y38796D01*
X480001Y38296D01*
Y37630D01*
X480167Y37130D01*
X480501Y36797D01*
X480834D01*
X481167Y36963D01*
X481334Y37130D01*
X481500Y37463D01*
X481834Y38463D01*
X482000Y38796D01*
X482167Y38963D01*
X482500Y39129D01*
X483000D01*
X483333Y38796D01*
X483500Y38296D01*
Y37630D01*
X483333Y37130D01*
X483000Y36797D01*
X480001Y41079D02*
X483500D01*
X480001Y39913D02*
Y42245D01*
X480667Y42662D02*
X480501Y42995D01*
X480001Y43495D01*
X483500D01*
X371833Y41499D02*
X373666D01*
X372666Y40166D01*
X373166D01*
X373500Y40000D01*
X373666Y39833D01*
X373833Y39333D01*
Y39000D01*
X373666Y38500D01*
X373333Y38167D01*
X372833Y38000D01*
X372333D01*
X371833Y38167D01*
X371667Y38333D01*
X371500Y38666D01*
X374616Y41499D02*
X375949Y38000D01*
X377282Y41499D02*
X375949Y38000D01*
X378065Y41499D02*
X379898D01*
X378898Y40166D01*
X379398D01*
X379732Y40000D01*
X379898Y39833D01*
X380065Y39333D01*
Y39000D01*
X379898Y38500D01*
X379565Y38167D01*
X379065Y38000D01*
X378565D01*
X378065Y38167D01*
X377899Y38333D01*
X377732Y38666D01*
X383348Y40666D02*
X383181Y40999D01*
X382848Y41333D01*
X382514Y41499D01*
X381848D01*
X381515Y41333D01*
X381181Y40999D01*
X381015Y40666D01*
X380848Y40166D01*
Y39333D01*
X381015Y38833D01*
X381181Y38500D01*
X381515Y38167D01*
X381848Y38000D01*
X382514D01*
X382848Y38167D01*
X383181Y38500D01*
X383348Y38833D01*
X437384Y96533D02*
X436801Y95949D01*
Y94783D01*
X437384Y94200D01*
X439717D01*
X440300Y94783D01*
Y95949D01*
X439717Y96533D01*
Y97699D02*
X440300Y98282D01*
Y99448D01*
X439717Y100031D01*
X437384D01*
X436801Y99448D01*
Y98282D01*
X437384Y97699D01*
X437967D01*
X438551Y98282D01*
Y100031D01*
X436801Y103530D02*
Y101198D01*
X438551D01*
X437967Y102364D01*
Y102947D01*
X438551Y103530D01*
X439717D01*
X440300Y102947D01*
Y101781D01*
X439717Y101198D01*
X68449Y59424D02*
Y56924D01*
X68616Y56424D01*
X68949Y56091D01*
X69449Y55924D01*
X69782D01*
X70282Y56091D01*
X70615Y56424D01*
X70782Y56924D01*
Y59424D01*
X71915Y58590D02*
Y58757D01*
X72082Y59090D01*
X72248Y59257D01*
X72581Y59424D01*
X73248D01*
X73581Y59257D01*
X73748Y59090D01*
X73914Y58757D01*
Y58424D01*
X73748Y58090D01*
X73414Y57591D01*
X71748Y55924D01*
X74081D01*
X23999Y25500D02*
X20500D01*
X23999D02*
Y24000D01*
X23833Y23500D01*
X23666Y23334D01*
X23333Y23167D01*
X22999D01*
X22666Y23334D01*
X22500Y23500D01*
X22333Y24000D01*
Y25500D01*
Y24334D02*
X20500Y23167D01*
X23333Y22384D02*
X23499Y22051D01*
X23999Y21551D01*
X20500D01*
X23499Y17818D02*
X23833Y17985D01*
X23999Y18485D01*
Y18818D01*
X23833Y19318D01*
X23333Y19651D01*
X22500Y19818D01*
X21666D01*
X21000Y19651D01*
X20667Y19318D01*
X20500Y18818D01*
Y18652D01*
X20667Y18152D01*
X21000Y17818D01*
X21500Y17652D01*
X21666D01*
X22166Y17818D01*
X22500Y18152D01*
X22666Y18652D01*
Y18818D01*
X22500Y19318D01*
X22166Y19651D01*
X21666Y19818D01*
X23333Y16885D02*
X23499Y16552D01*
X23999Y16052D01*
X20500D01*
X33399Y48011D02*
X29900D01*
X33399D02*
Y46511D01*
X33233Y46011D01*
X33066Y45845D01*
X32733Y45678D01*
X32399D01*
X32066Y45845D01*
X31900Y46011D01*
X31733Y46511D01*
Y48011D01*
Y46845D02*
X29900Y45678D01*
X33399Y44562D02*
Y42729D01*
X32066Y43729D01*
Y43229D01*
X31900Y42895D01*
X31733Y42729D01*
X31233Y42562D01*
X30900D01*
X30400Y42729D01*
X30067Y43062D01*
X29900Y43562D01*
Y44062D01*
X30067Y44562D01*
X30233Y44728D01*
X30566Y44895D01*
X9501Y48428D02*
X13000D01*
Y50427D01*
X9501Y52977D02*
Y50810D01*
X13000D01*
Y52977D01*
X11167Y50810D02*
Y52143D01*
X9501Y53560D02*
X13000D01*
X9501D02*
Y54726D01*
X9667Y55226D01*
X10001Y55559D01*
X10334Y55726D01*
X10834Y55893D01*
X11667D01*
X12167Y55726D01*
X12500Y55559D01*
X12833Y55226D01*
X13000Y54726D01*
Y53560D01*
X10167Y56676D02*
X10001Y57009D01*
X9501Y57509D01*
X13000D01*
X44800Y12766D02*
X44633Y13099D01*
X44300Y13433D01*
X43966Y13599D01*
X43300D01*
X42966Y13433D01*
X42633Y13099D01*
X42467Y12766D01*
X42300Y12266D01*
Y11433D01*
X42467Y10933D01*
X42633Y10600D01*
X42966Y10267D01*
X43300Y10100D01*
X43966D01*
X44300Y10267D01*
X44633Y10600D01*
X44800Y10933D01*
Y11433D01*
X43966D02*
X44800D01*
X45599Y13599D02*
Y10100D01*
Y13599D02*
X47932Y10100D01*
Y13599D02*
Y10100D01*
X48899Y13599D02*
Y10100D01*
Y13599D02*
X50065D01*
X50565Y13433D01*
X50898Y13099D01*
X51065Y12766D01*
X51231Y12266D01*
Y11433D01*
X51065Y10933D01*
X50898Y10600D01*
X50565Y10267D01*
X50065Y10100D01*
X48899D01*
X41734Y44399D02*
X41401Y44233D01*
X41067Y43900D01*
X40901Y43566D01*
Y42900D01*
X41067Y42566D01*
X41401Y42233D01*
X41734Y42067D01*
X42234Y41900D01*
X43067D01*
X43567Y42067D01*
X43900Y42233D01*
X44233Y42566D01*
X44400Y42900D01*
Y43566D01*
X44233Y43900D01*
X43900Y44233D01*
X43567Y44399D01*
X41401Y47382D02*
X41067Y47216D01*
X40901Y46716D01*
Y46382D01*
X41067Y45882D01*
X41567Y45549D01*
X42400Y45383D01*
X43234D01*
X43900Y45549D01*
X44233Y45882D01*
X44400Y46382D01*
Y46549D01*
X44233Y47049D01*
X43900Y47382D01*
X43400Y47549D01*
X43234D01*
X42734Y47382D01*
X42400Y47049D01*
X42234Y46549D01*
Y46382D01*
X42400Y45882D01*
X42734Y45549D01*
X43234Y45383D01*
X94671Y48265D02*
X93005D01*
X92839Y46766D01*
X93005Y46932D01*
X93505Y47099D01*
X94005D01*
X94505Y46932D01*
X94838Y46599D01*
X95005Y46099D01*
Y45766D01*
X94838Y45266D01*
X94505Y44933D01*
X94005Y44766D01*
X93505D01*
X93005Y44933D01*
X92839Y45099D01*
X92672Y45433D01*
X95788Y48265D02*
X97121Y44766D01*
X98454Y48265D02*
X97121Y44766D01*
X27633Y13199D02*
X29466D01*
X28466Y11866D01*
X28966D01*
X29300Y11700D01*
X29466Y11533D01*
X29633Y11033D01*
Y10700D01*
X29466Y10200D01*
X29133Y9867D01*
X28633Y9700D01*
X28133D01*
X27633Y9867D01*
X27467Y10033D01*
X27300Y10367D01*
X30416Y13199D02*
X31749Y9700D01*
X33082Y13199D02*
X31749Y9700D01*
X33865Y13199D02*
X35698D01*
X34698Y11866D01*
X35198D01*
X35532Y11700D01*
X35698Y11533D01*
X35865Y11033D01*
Y10700D01*
X35698Y10200D01*
X35365Y9867D01*
X34865Y9700D01*
X34365D01*
X33865Y9867D01*
X33699Y10033D01*
X33532Y10367D01*
D15*
X87527Y213900D02*
G03*
X84200Y213900I-1663J-2881D01*
G01*
X80873D02*
G03*
X84200Y213900I1663J2881D01*
G01*
D16*
X66905Y106147D02*
G03*
X68124Y104928I1220J0D01*
G01*
X71274D02*
G03*
X72494Y106147I0J1220D01*
G01*
X68147Y115934D02*
G03*
X66927Y114714I-0J-1220D01*
G01*
X72517D02*
G03*
X71297Y115934I-1220J0D01*
G01*
X108084Y159190D02*
G03*
X108084Y164190I0J2500D01*
G01*
X584058Y252706D02*
G03*
X584058Y252706I-6727J0D01*
G01*
X87800Y252331D02*
G03*
X87800Y252331I-6727J0D01*
G01*
X558674Y97914D02*
Y110512D01*
X542926Y97914D02*
X558674D01*
X542926D02*
Y110512D01*
X558674D01*
X517732Y97914D02*
Y110512D01*
X501983Y97914D02*
X517732D01*
X501983D02*
Y110512D01*
X517732D01*
X501983Y45299D02*
X517732D01*
X501983Y32701D02*
Y45299D01*
Y32701D02*
X517732D01*
Y45299D01*
X499032Y37613D02*
Y51787D01*
X490568Y37613D02*
Y51787D01*
Y48539D02*
X499032D01*
X542926Y45299D02*
X558674D01*
X542926Y32701D02*
Y45299D01*
Y32701D02*
X558674D01*
Y45299D01*
X623426D02*
X639174D01*
X623426Y32701D02*
Y45299D01*
Y32701D02*
X639174D01*
Y45299D01*
X489668Y118039D02*
X498132D01*
X489668Y107113D02*
Y121287D01*
X498132Y107113D02*
Y121287D01*
X531168Y118439D02*
X539632D01*
X531168Y107513D02*
Y121687D01*
X539632Y107513D02*
Y121687D01*
X599074Y32701D02*
Y45299D01*
X583326Y32701D02*
X599074D01*
X583326D02*
Y45299D01*
X599074D01*
X612168Y48539D02*
X620632D01*
X612168Y37613D02*
Y51787D01*
X620632Y37613D02*
Y51787D01*
X571968Y48539D02*
X580432D01*
X571968Y37613D02*
Y51787D01*
X580432Y37613D02*
Y51787D01*
X530768Y48539D02*
X539232D01*
X530768Y37613D02*
Y51787D01*
X539232Y37613D02*
Y51787D01*
X59726Y169630D02*
Y218843D01*
X75474Y169630D02*
Y218842D01*
X59726Y218843D02*
X75474D01*
X59726Y169630D02*
X75474D01*
X64600Y186236D02*
Y202236D01*
X70600D01*
Y186236D02*
Y202236D01*
X64600Y186236D02*
X70600D01*
X73100D02*
Y191236D01*
X61600Y202736D02*
X73100Y191236D01*
X66928Y111564D02*
Y114714D01*
X68147Y115933D02*
X71297D01*
X72517Y111564D02*
Y114714D01*
X66905Y106147D02*
Y109297D01*
X72494Y106147D02*
Y109297D01*
X68124Y104928D02*
X71274D01*
X479196Y109834D02*
X482149D01*
Y64952D02*
Y109834D01*
X479196Y64952D02*
X482149D01*
X463251Y109834D02*
X466204D01*
X463251Y64952D02*
Y109834D01*
Y64952D02*
X466204D01*
X82097Y30759D02*
Y41783D01*
X58475D02*
X82097D01*
X58475Y30759D02*
Y41783D01*
Y30759D02*
X82097D01*
X126093Y116714D02*
X132156D01*
X131093Y112777D02*
Y120651D01*
X127156Y112777D02*
X131093Y116714D01*
X127156Y112777D02*
Y120651D01*
X131093Y116714D01*
X119282Y110809D02*
X138967D01*
X119282Y122620D02*
X138967D01*
Y110809D02*
Y111596D01*
X119282Y110809D02*
Y111596D01*
X138967Y121832D02*
Y122620D01*
X119282Y121832D02*
Y122620D01*
X114962Y206150D02*
Y208748D01*
Y206150D02*
Y208748D01*
Y206150D02*
Y208748D01*
X118171D01*
X114962Y197252D02*
X118171D01*
X114962D02*
Y199850D01*
X103082Y143590D02*
X107382Y139290D01*
X108982D01*
X107982D02*
X149552D01*
X103282Y183990D02*
X149552D01*
Y139290D02*
Y183990D01*
X103082Y143590D02*
Y183890D01*
X145879Y151257D02*
Y172123D01*
X108084Y164190D02*
Y172123D01*
Y151257D02*
Y159190D01*
Y172123D02*
X145879D01*
X108084Y151257D02*
X145879D01*
X562568Y261599D02*
X563800Y262831D01*
X562568Y259331D02*
Y261599D01*
X96032Y260579D02*
X562568D01*
Y229083D02*
Y260579D01*
X94280Y262332D02*
X96032Y260579D01*
Y229083D02*
X562568D01*
X96032D02*
Y260579D01*
X76548Y229083D02*
X96032D01*
X67800Y237831D02*
X76548Y229083D01*
X61300Y260583D02*
X63048Y262332D01*
X94280D01*
X562568Y229083D02*
X575552D01*
X584300Y237831D01*
X597300Y238831D02*
Y259347D01*
X563800Y262831D02*
X593800D01*
X596792Y259839D01*
X60800Y239831D02*
Y260583D01*
Y239831D02*
X62800Y237831D01*
X67800D01*
X60800Y281965D02*
X597300D01*
Y259331D02*
Y281965D01*
X60800Y259832D02*
Y281965D01*
X584300Y237831D02*
X596300D01*
X597300Y238831D01*
X333227Y167000D02*
Y217000D01*
X363227D01*
Y167000D02*
Y217000D01*
X333227Y167000D02*
X363227D01*
X343227Y212000D02*
X353227D01*
X348227Y197000D02*
Y212000D01*
Y197000D02*
X353227D01*
Y176000D02*
Y197000D01*
X348227Y176000D02*
X353227D01*
X348227Y174000D02*
Y176000D01*
Y174000D02*
X352227Y170000D01*
X350227Y172000D02*
X355227D01*
X342227D02*
X346227D01*
X344227Y180000D02*
Y184000D01*
X351227D01*
Y180000D02*
Y184000D01*
X344227Y180000D02*
X351227D01*
X293045Y167000D02*
Y217000D01*
X323045D01*
Y167000D02*
Y217000D01*
X293045Y167000D02*
X323045D01*
X303045Y212000D02*
X313045D01*
X308045Y197000D02*
Y212000D01*
Y197000D02*
X313045D01*
Y176000D02*
Y197000D01*
X308045Y176000D02*
X313045D01*
X308045Y174000D02*
Y176000D01*
Y174000D02*
X312045Y170000D01*
X310045Y172000D02*
X315045D01*
X302045D02*
X306045D01*
X304045Y180000D02*
Y184000D01*
X311045D01*
Y180000D02*
Y184000D01*
X304045Y180000D02*
X311045D01*
X252864Y167000D02*
Y217000D01*
X282864D01*
Y167000D02*
Y217000D01*
X252864Y167000D02*
X282864D01*
X262864Y212000D02*
X272864D01*
X267864Y197000D02*
Y212000D01*
Y197000D02*
X272864D01*
Y176000D02*
Y197000D01*
X267864Y176000D02*
X272864D01*
X267864Y174000D02*
Y176000D01*
Y174000D02*
X271864Y170000D01*
X269864Y172000D02*
X274864D01*
X261864D02*
X265864D01*
X263864Y180000D02*
Y184000D01*
X270864D01*
Y180000D02*
Y184000D01*
X263864Y180000D02*
X270864D01*
X212682Y167000D02*
Y217000D01*
X242682D01*
Y167000D02*
Y217000D01*
X212682Y167000D02*
X242682D01*
X222682Y212000D02*
X232682D01*
X227682Y197000D02*
Y212000D01*
Y197000D02*
X232682D01*
Y176000D02*
Y197000D01*
X227682Y176000D02*
X232682D01*
X227682Y174000D02*
Y176000D01*
Y174000D02*
X231682Y170000D01*
X229682Y172000D02*
X234682D01*
X221682D02*
X225682D01*
X223682Y180000D02*
Y184000D01*
X230682D01*
Y180000D02*
Y184000D01*
X223682Y180000D02*
X230682D01*
X172500Y167000D02*
Y217000D01*
X202500D01*
Y167000D02*
Y217000D01*
X172500Y167000D02*
X202500D01*
X182500Y212000D02*
X192500D01*
X187500Y197000D02*
Y212000D01*
Y197000D02*
X192500D01*
Y176000D02*
Y197000D01*
X187500Y176000D02*
X192500D01*
X187500Y174000D02*
Y176000D01*
Y174000D02*
X191500Y170000D01*
X189500Y172000D02*
X194500D01*
X181500D02*
X185500D01*
X183500Y180000D02*
Y184000D01*
X190500D01*
Y180000D02*
Y184000D01*
X183500Y180000D02*
X190500D01*
X343861Y155868D02*
Y164332D01*
X340613Y155868D02*
X354787D01*
X340613Y164332D02*
X354787D01*
X304061Y155968D02*
Y164432D01*
X300813Y155968D02*
X314987D01*
X300813Y164432D02*
X314987D01*
X264661Y155768D02*
Y164232D01*
X261413Y155768D02*
X275587D01*
X261413Y164232D02*
X275587D01*
X223472Y156068D02*
Y164532D01*
X220224Y156068D02*
X234397D01*
X220224Y164532D02*
X234397D01*
X183061Y155568D02*
Y164032D01*
X179813Y155568D02*
X193987D01*
X179813Y164032D02*
X193987D01*
X339220Y148990D02*
Y151588D01*
Y148990D02*
Y151588D01*
Y148990D02*
Y151588D01*
X342428D01*
X339220Y140092D02*
X342428D01*
X339220D02*
Y142691D01*
X299841Y149750D02*
Y152348D01*
Y149750D02*
Y152348D01*
Y149750D02*
Y152348D01*
X303050D01*
X299841Y140852D02*
X303050D01*
X299841D02*
Y143450D01*
X259120Y149009D02*
Y151608D01*
Y149009D02*
Y151608D01*
Y149009D02*
Y151608D01*
X262328D01*
X259120Y140112D02*
X262328D01*
X259120D02*
Y142710D01*
X217123Y149502D02*
Y152100D01*
Y149502D02*
Y152100D01*
Y149502D02*
Y152100D01*
X220332D01*
X217123Y140604D02*
X220332D01*
X217123D02*
Y143202D01*
X177420Y149442D02*
Y152040D01*
Y149442D02*
Y152040D01*
Y149442D02*
Y152040D01*
X180628D01*
X177420Y140544D02*
X180628D01*
X177420D02*
Y143142D01*
X534136Y167000D02*
Y217000D01*
X564136D01*
Y167000D02*
Y217000D01*
X534136Y167000D02*
X564136D01*
X544136Y212000D02*
X554136D01*
X549136Y197000D02*
Y212000D01*
Y197000D02*
X554136D01*
Y176000D02*
Y197000D01*
X549136Y176000D02*
X554136D01*
X549136Y174000D02*
Y176000D01*
Y174000D02*
X553136Y170000D01*
X551136Y172000D02*
X556136D01*
X543136D02*
X547136D01*
X545136Y180000D02*
Y184000D01*
X552136D01*
Y180000D02*
Y184000D01*
X545136Y180000D02*
X552136D01*
X493955Y167000D02*
Y217000D01*
X523954D01*
Y167000D02*
Y217000D01*
X493955Y167000D02*
X523954D01*
X503955Y212000D02*
X513954D01*
X508954Y197000D02*
Y212000D01*
Y197000D02*
X513954D01*
Y176000D02*
Y197000D01*
X508954Y176000D02*
X513954D01*
X508954Y174000D02*
Y176000D01*
Y174000D02*
X512955Y170000D01*
X510955Y172000D02*
X515954D01*
X502954D02*
X506954D01*
X504954Y180000D02*
Y184000D01*
X511954D01*
Y180000D02*
Y184000D01*
X504954Y180000D02*
X511954D01*
X453773Y167000D02*
Y217000D01*
X483773D01*
Y167000D02*
Y217000D01*
X453773Y167000D02*
X483773D01*
X463773Y212000D02*
X473773D01*
X468773Y197000D02*
Y212000D01*
Y197000D02*
X473773D01*
Y176000D02*
Y197000D01*
X468773Y176000D02*
X473773D01*
X468773Y174000D02*
Y176000D01*
Y174000D02*
X472773Y170000D01*
X470773Y172000D02*
X475773D01*
X462773D02*
X466773D01*
X464773Y180000D02*
Y184000D01*
X471773D01*
Y180000D02*
Y184000D01*
X464773Y180000D02*
X471773D01*
X413591Y167000D02*
Y217000D01*
X443591D01*
Y167000D02*
Y217000D01*
X413591Y167000D02*
X443591D01*
X423591Y212000D02*
X433591D01*
X428591Y197000D02*
Y212000D01*
Y197000D02*
X433591D01*
Y176000D02*
Y197000D01*
X428591Y176000D02*
X433591D01*
X428591Y174000D02*
Y176000D01*
Y174000D02*
X432591Y170000D01*
X430591Y172000D02*
X435591D01*
X422591D02*
X426591D01*
X424591Y180000D02*
Y184000D01*
X431591D01*
Y180000D02*
Y184000D01*
X424591Y180000D02*
X431591D01*
X373409Y167000D02*
Y217000D01*
X403409D01*
Y167000D02*
Y217000D01*
X373409Y167000D02*
X403409D01*
X383409Y212000D02*
X393409D01*
X388409Y197000D02*
Y212000D01*
Y197000D02*
X393409D01*
Y176000D02*
Y197000D01*
X388409Y176000D02*
X393409D01*
X388409Y174000D02*
Y176000D01*
Y174000D02*
X392409Y170000D01*
X390409Y172000D02*
X395409D01*
X382409D02*
X386409D01*
X384409Y180000D02*
Y184000D01*
X391409D01*
Y180000D02*
Y184000D01*
X384409Y180000D02*
X391409D01*
X545461Y156168D02*
Y164632D01*
X542213Y156168D02*
X556387D01*
X542213Y164632D02*
X556387D01*
X503861Y155968D02*
Y164432D01*
X500613Y155968D02*
X514787D01*
X500613Y164432D02*
X514787D01*
X465261Y155868D02*
Y164332D01*
X462013Y155868D02*
X476187D01*
X462013Y164332D02*
X476187D01*
X423961Y156368D02*
Y164832D01*
X420713Y156368D02*
X434887D01*
X420713Y164832D02*
X434887D01*
X383961Y156168D02*
Y164632D01*
X380713Y156168D02*
X394887D01*
X380713Y164632D02*
X394887D01*
X559959Y141752D02*
Y144350D01*
Y141752D02*
Y144350D01*
Y141752D02*
Y144350D01*
X556750Y141752D02*
X559959D01*
X556750Y153248D02*
X559959D01*
Y150650D02*
Y153248D01*
X519459Y141452D02*
Y144050D01*
Y141452D02*
Y144050D01*
Y141452D02*
Y144050D01*
X516250Y141452D02*
X519459D01*
X516250Y152948D02*
X519459D01*
Y150350D02*
Y152948D01*
X479459Y140852D02*
Y143450D01*
Y140852D02*
Y143450D01*
Y140852D02*
Y143450D01*
X476250Y140852D02*
X479459D01*
X476250Y152348D02*
X479459D01*
Y149750D02*
Y152348D01*
X440659Y141652D02*
Y144250D01*
Y141652D02*
Y144250D01*
Y141652D02*
Y144250D01*
X437450Y141652D02*
X440659D01*
X437450Y153148D02*
X440659D01*
Y150550D02*
Y153148D01*
X378241Y150350D02*
Y152948D01*
Y150350D02*
Y152948D01*
Y150350D02*
Y152948D01*
X381450D01*
X378241Y141452D02*
X381450D01*
X378241D02*
Y144050D01*
X158000Y34900D02*
Y84900D01*
X188000D01*
Y34900D02*
Y84900D01*
X158000Y34900D02*
X188000D01*
X168000Y79900D02*
X178000D01*
X173000Y64900D02*
Y79900D01*
Y64900D02*
X178000D01*
Y43900D02*
Y64900D01*
X173000Y43900D02*
X178000D01*
X173000Y41900D02*
Y43900D01*
Y41900D02*
X177000Y37900D01*
X175000Y39900D02*
X180000D01*
X167000D02*
X171000D01*
X169000Y47900D02*
Y51900D01*
X176000D01*
Y47900D02*
Y51900D01*
X169000Y47900D02*
X176000D01*
X115100Y34900D02*
Y84900D01*
X145100D01*
Y34900D02*
Y84900D01*
X115100Y34900D02*
X145100D01*
X125100Y79900D02*
X135100D01*
X130100Y64900D02*
Y79900D01*
Y64900D02*
X135100D01*
Y43900D02*
Y64900D01*
X130100Y43900D02*
X135100D01*
X130100Y41900D02*
Y43900D01*
Y41900D02*
X134100Y37900D01*
X132100Y39900D02*
X137100D01*
X124100D02*
X128100D01*
X126100Y47900D02*
Y51900D01*
X133100D01*
Y47900D02*
Y51900D01*
X126100Y47900D02*
X133100D01*
X211800Y98300D02*
X261800D01*
X211800D02*
Y128300D01*
X261800D01*
Y98300D02*
Y128300D01*
X216800Y108300D02*
Y118300D01*
Y113300D02*
X231800D01*
Y118300D01*
X252800D01*
Y113300D02*
Y118300D01*
Y113300D02*
X254800D01*
X258800Y117300D01*
X256800Y115300D02*
Y120300D01*
Y107300D02*
Y111300D01*
X244800Y109300D02*
X248800D01*
X244800D02*
Y116300D01*
X248800D01*
Y109300D02*
Y116300D01*
X614500Y167000D02*
Y217000D01*
X644500D01*
Y167000D02*
Y217000D01*
X614500Y167000D02*
X644500D01*
X624500Y212000D02*
X634500D01*
X629500Y197000D02*
Y212000D01*
Y197000D02*
X634500D01*
Y176000D02*
Y197000D01*
X629500Y176000D02*
X634500D01*
X629500Y174000D02*
Y176000D01*
Y174000D02*
X633500Y170000D01*
X631500Y172000D02*
X636500D01*
X623500D02*
X627500D01*
X625500Y180000D02*
Y184000D01*
X632500D01*
Y180000D02*
Y184000D01*
X625500Y180000D02*
X632500D01*
X574318Y167000D02*
Y217000D01*
X604318D01*
Y167000D02*
Y217000D01*
X574318Y167000D02*
X604318D01*
X584318Y212000D02*
X594318D01*
X589318Y197000D02*
Y212000D01*
Y197000D02*
X594318D01*
Y176000D02*
Y197000D01*
X589318Y176000D02*
X594318D01*
X589318Y174000D02*
Y176000D01*
Y174000D02*
X593318Y170000D01*
X591318Y172000D02*
X596318D01*
X583318D02*
X587318D01*
X585318Y180000D02*
Y184000D01*
X592318D01*
Y180000D02*
Y184000D01*
X585318Y180000D02*
X592318D01*
X167861Y24368D02*
Y32832D01*
X164613Y24368D02*
X178787D01*
X164613Y32832D02*
X178787D01*
X125661Y23968D02*
Y32432D01*
X122413Y23968D02*
X136587D01*
X122413Y32432D02*
X136587D01*
X267668Y109561D02*
X276132D01*
Y106313D02*
Y120487D01*
X267668Y106313D02*
Y120487D01*
X625861Y155868D02*
Y164332D01*
X622613Y155868D02*
X636787D01*
X622613Y164332D02*
X636787D01*
X585761Y155868D02*
Y164332D01*
X582513Y155868D02*
X596687D01*
X582513Y164332D02*
X596687D01*
X162141Y17950D02*
Y20548D01*
Y17950D02*
Y20548D01*
Y17950D02*
Y20548D01*
X165350D01*
X162141Y9052D02*
X165350D01*
X162141D02*
Y11650D01*
X120941Y16650D02*
Y19248D01*
Y16650D02*
Y19248D01*
Y16650D02*
Y19248D01*
X124150D01*
X120941Y7752D02*
X124150D01*
X120941D02*
Y10350D01*
X290550Y122073D02*
X293148D01*
X290550D02*
X293148D01*
X290550D02*
X293148D01*
Y118865D02*
Y122073D01*
X281652Y118865D02*
Y122073D01*
X284250D01*
X639059Y141452D02*
Y144050D01*
Y141452D02*
Y144050D01*
Y141452D02*
Y144050D01*
X635850Y141452D02*
X639059D01*
X635850Y152948D02*
X639059D01*
Y150350D02*
Y152948D01*
X599359Y141352D02*
Y143950D01*
Y141352D02*
Y143950D01*
Y141352D02*
Y143950D01*
X596150Y141352D02*
X599359D01*
X596150Y152848D02*
X599359D01*
Y150250D02*
Y152848D01*
X285100Y35531D02*
Y85532D01*
X315100D01*
Y35531D02*
Y85532D01*
X285100Y35531D02*
X315100D01*
X295100Y80532D02*
X305100D01*
X300100Y65531D02*
Y80532D01*
Y65531D02*
X305100D01*
Y44532D02*
Y65531D01*
X300100Y44532D02*
X305100D01*
X300100Y42531D02*
Y44532D01*
Y42531D02*
X304100Y38532D01*
X302100Y40532D02*
X307100D01*
X294100D02*
X298100D01*
X296100Y48531D02*
Y52531D01*
X303100D01*
Y48531D02*
Y52531D01*
X296100Y48531D02*
X303100D01*
X242800Y35531D02*
Y85532D01*
X272800D01*
Y35531D02*
Y85532D01*
X242800Y35531D02*
X272800D01*
X252800Y80532D02*
X262800D01*
X257800Y65531D02*
Y80532D01*
Y65531D02*
X262800D01*
Y44532D02*
Y65531D01*
X257800Y44532D02*
X262800D01*
X257800Y42531D02*
Y44532D01*
Y42531D02*
X261800Y38532D01*
X259800Y40532D02*
X264800D01*
X251800D02*
X255800D01*
X253800Y48531D02*
Y52531D01*
X260800D01*
Y48531D02*
Y52531D01*
X253800Y48531D02*
X260800D01*
X200500Y35100D02*
Y85100D01*
X230500D01*
Y35100D02*
Y85100D01*
X200500Y35100D02*
X230500D01*
X210500Y80100D02*
X220500D01*
X215500Y65100D02*
Y80100D01*
Y65100D02*
X220500D01*
Y44100D02*
Y65100D01*
X215500Y44100D02*
X220500D01*
X215500Y42100D02*
Y44100D01*
Y42100D02*
X219500Y38100D01*
X217500Y40100D02*
X222500D01*
X209500D02*
X213500D01*
X211500Y48100D02*
Y52100D01*
X218500D01*
Y48100D02*
Y52100D01*
X211500Y48100D02*
X218500D01*
X295361Y24568D02*
Y33032D01*
X292113Y24568D02*
X306287D01*
X292113Y33032D02*
X306287D01*
X252561Y24168D02*
Y32632D01*
X249313Y24168D02*
X263487D01*
X249313Y32632D02*
X263487D01*
X210161Y24268D02*
Y32732D01*
X206913Y24268D02*
X221087D01*
X206913Y32732D02*
X221087D01*
X290741Y18250D02*
Y20848D01*
Y18250D02*
Y20848D01*
Y18250D02*
Y20848D01*
X293950D01*
X290741Y9352D02*
X293950D01*
X290741D02*
Y11950D01*
X248141Y17423D02*
Y20021D01*
Y17423D02*
Y20021D01*
Y17423D02*
Y20021D01*
X251350D01*
X248141Y8525D02*
X251350D01*
X248141D02*
Y11123D01*
X205041Y17423D02*
Y20021D01*
Y17423D02*
Y20021D01*
Y17423D02*
Y20021D01*
X208250D01*
X205041Y8525D02*
X208250D01*
X205041D02*
Y11123D01*
D17*
X63400Y84800D02*
G03*
X63400Y83300I0J-750D01*
G01*
Y81800D02*
G03*
X63400Y83300I0J750D01*
G01*
X18200Y101100D02*
Y106855D01*
Y101100D02*
X44200D01*
Y121345D02*
Y127100D01*
X18200D02*
X44200D01*
X18200Y121345D02*
Y127100D01*
X44200Y101100D02*
Y106855D01*
X71900Y80300D02*
Y86300D01*
X54900Y80300D02*
Y86300D01*
D18*
X419657Y60924D02*
G03*
X419657Y60924I-1181J0D01*
G01*
X113202Y155194D02*
G03*
X113202Y155194I-1181J0D01*
G01*
D19*
X62100Y70900D02*
X73200D01*
Y63900D02*
Y70900D01*
X62100Y63900D02*
X73200D01*
X62100D02*
Y70900D01*
X87809Y9900D02*
Y16900D01*
X76709D02*
X87809D01*
X76709Y9900D02*
Y16900D01*
Y9900D02*
X87809D01*
D20*
X475821Y16284D02*
X478774D01*
Y41859D01*
X475821Y41875D02*
X478774Y41859D01*
X463026Y41875D02*
X465979D01*
X463026Y16284D02*
Y41875D01*
Y16284D02*
X465979D01*
X19800Y249599D02*
Y247266D01*
X20966Y246100D01*
X22133Y247266D01*
Y249599D01*
X23299Y246100D02*
X24465D01*
X23882D01*
Y249599D01*
X23299Y249016D01*
X26215Y246100D02*
Y246683D01*
X26798D01*
Y246100D01*
X26215D01*
X29130Y249016D02*
X29713Y249599D01*
X30880D01*
X31463Y249016D01*
Y246683D01*
X30880Y246100D01*
X29713D01*
X29130Y246683D01*
Y249016D01*
X32629D02*
X33212Y249599D01*
X34379D01*
X34962Y249016D01*
Y246683D01*
X34379Y246100D01*
X33212D01*
X32629Y246683D01*
Y249016D01*
X3400Y255999D02*
Y252500D01*
X5149D01*
X5733Y253083D01*
Y255416D01*
X5149Y255999D01*
X3400D01*
X8648Y252500D02*
X7482D01*
X6899Y253083D01*
Y254249D01*
X7482Y254833D01*
X8648D01*
X9231Y254249D01*
Y253666D01*
X6899D01*
X10398Y252500D02*
X12147D01*
X12730Y253083D01*
X12147Y253666D01*
X10981D01*
X10398Y254249D01*
X10981Y254833D01*
X12730D01*
X13897Y252500D02*
X15063D01*
X14480D01*
Y254833D01*
X13897D01*
X17979Y251334D02*
X18562D01*
X19145Y251917D01*
Y254833D01*
X17395D01*
X16812Y254249D01*
Y253083D01*
X17395Y252500D01*
X19145D01*
X20311D02*
Y254833D01*
X22061D01*
X22644Y254249D01*
Y252500D01*
X25559D02*
X24393D01*
X23810Y253083D01*
Y254249D01*
X24393Y254833D01*
X25559D01*
X26143Y254249D01*
Y253666D01*
X23810D01*
X29642Y255999D02*
Y252500D01*
X27892D01*
X27309Y253083D01*
Y254249D01*
X27892Y254833D01*
X29642D01*
X34307Y255999D02*
Y252500D01*
X36056D01*
X36639Y253083D01*
Y253666D01*
Y254249D01*
X36056Y254833D01*
X34307D01*
X37806D02*
Y253083D01*
X38389Y252500D01*
X40138D01*
Y251917D01*
X39555Y251334D01*
X38972D01*
X40138Y252500D02*
Y254833D01*
X47136Y253083D02*
Y255416D01*
X46553Y255999D01*
X45386D01*
X44803Y255416D01*
Y253083D01*
X45386Y252500D01*
X46553D01*
X45970Y253666D02*
X47136Y252500D01*
X46553D02*
X47136Y253083D01*
X48302Y255999D02*
X50635D01*
Y255416D01*
X48302Y253083D01*
Y252500D01*
X50635D01*
X51801D02*
Y255999D01*
X52967Y254833D01*
X54134Y255999D01*
Y252500D01*
X57632Y255416D02*
X57049Y255999D01*
X55883D01*
X55300Y255416D01*
Y253083D01*
X55883Y252500D01*
X57049D01*
X57632Y253083D01*
X16733Y259083D02*
Y261416D01*
X16149Y261999D01*
X14983D01*
X14400Y261416D01*
Y259083D01*
X14983Y258500D01*
X16149D01*
X15566Y259666D02*
X16733Y258500D01*
X16149D02*
X16733Y259083D01*
X17899Y261999D02*
X20232D01*
Y261416D01*
X17899Y259083D01*
Y258500D01*
X20232D01*
X21398Y261999D02*
Y258500D01*
Y259666D01*
X23730Y261999D01*
X21981Y260249D01*
X23730Y258500D01*
X24897Y261999D02*
X27229D01*
Y261416D01*
X24897Y259083D01*
Y258500D01*
X27229D01*
X30728Y259083D02*
Y261416D01*
X30145Y261999D01*
X28979D01*
X28396Y261416D01*
Y259083D01*
X28979Y258500D01*
X30145D01*
X29562Y259666D02*
X30728Y258500D01*
X30145D02*
X30728Y259083D01*
X31894Y258500D02*
X33061D01*
X32478D01*
Y261999D01*
X31894Y261416D01*
X34810D02*
X35393Y261999D01*
X36560D01*
X37143Y261416D01*
Y259083D01*
X36560Y258500D01*
X35393D01*
X34810Y259083D01*
Y261416D01*
X40641Y261999D02*
X39475Y261416D01*
X38309Y260249D01*
Y259083D01*
X38892Y258500D01*
X40058D01*
X40641Y259083D01*
Y259666D01*
X40058Y260249D01*
X38309D01*
D21*
X382010Y21575D02*
Y26043D01*
Y14882D02*
Y18425D01*
X375790Y21575D02*
Y26043D01*
X376550Y14095D02*
X381250D01*
X375790Y26043D02*
X382010D01*
X375790Y14882D02*
Y18425D01*
Y14882D02*
X376550Y14095D01*
X381250D02*
X382010Y14882D01*
X443007Y11287D02*
Y30972D01*
X436708Y11287D02*
Y30972D01*
Y11287D02*
X443007D01*
X436708Y30972D02*
X443007D01*
X373987Y105413D02*
X422413D01*
X373987Y56987D02*
X422413D01*
X373987D02*
Y105413D01*
X422413Y56987D02*
Y105413D01*
X332200Y65400D02*
X342200D01*
X332200D02*
Y105400D01*
X342200Y65400D02*
Y105400D01*
X332200D02*
X342200D01*
X121065Y201819D02*
Y204181D01*
X345322Y144659D02*
Y147021D01*
X305943Y145419D02*
Y147781D01*
X265222Y144679D02*
Y147041D01*
X223225Y145171D02*
Y147533D01*
X183522Y145111D02*
Y147473D01*
X553857Y146319D02*
Y148681D01*
X513357Y146019D02*
Y148381D01*
X473357Y145419D02*
Y147781D01*
X434557Y146219D02*
Y148581D01*
X384343Y146019D02*
Y148381D01*
X168243Y13619D02*
Y15981D01*
X127043Y12319D02*
Y14681D01*
X286219Y115971D02*
X288581D01*
X632957Y146019D02*
Y148381D01*
X593257Y145919D02*
Y148281D01*
X296843Y13919D02*
Y16281D01*
X254243Y13092D02*
Y15454D01*
X211143Y13092D02*
Y15454D01*
X332200Y53400D02*
X342200D01*
Y13400D02*
Y53400D01*
X332200Y13400D02*
Y53400D01*
Y13400D02*
X342200D01*
X14690Y47184D02*
Y51653D01*
Y54802D02*
Y58346D01*
X20910Y47184D02*
Y51653D01*
X15450Y59133D02*
X20150D01*
X14690Y47184D02*
X20910D01*
Y54802D02*
Y58346D01*
X20150Y59133D02*
X20910Y58346D01*
X14690D02*
X15450Y59133D01*
D22*
X169960Y101620D02*
X170940D01*
X170030Y101690D02*
X170940D01*
X170030Y101760D02*
X170870D01*
X170100Y101830D02*
X170870D01*
X170100Y101900D02*
X170800D01*
X170100Y101970D02*
X170800D01*
X170100Y102040D02*
X170730D01*
X170100Y102110D02*
X170730D01*
X170100Y102180D02*
X170660D01*
X170100Y102250D02*
X170660D01*
X170100Y102320D02*
X170590D01*
X170100Y102390D02*
X170590D01*
X170100Y102460D02*
X170520D01*
X170100Y102530D02*
X170520D01*
X170100Y102600D02*
X170450D01*
X170100Y102670D02*
X170450D01*
X170100Y102740D02*
X170380D01*
X172340Y102810D02*
X174020D01*
X170030D02*
X170380D01*
X172340Y102880D02*
X174020D01*
X170030D02*
X170310D01*
X172340Y102950D02*
X174020D01*
X169960D02*
X170310D01*
X172410Y103020D02*
X174020D01*
X169960D02*
X170240D01*
X172410Y103090D02*
X174020D01*
X169890D02*
X170240D01*
X172410Y103160D02*
X174020D01*
X169890D02*
X170170D01*
X172410Y103230D02*
X174020D01*
X169820D02*
X170170D01*
X172410Y103300D02*
X174020D01*
X169820D02*
X170100D01*
X172410Y103370D02*
X174020D01*
X169750D02*
X170100D01*
X172410Y103440D02*
X174020D01*
X169680D02*
X170030D01*
X172410Y103510D02*
X174020D01*
X169610D02*
X170030D01*
X172410Y103580D02*
X174020D01*
X169610D02*
X169960D01*
X172410Y103650D02*
X174020D01*
X169540D02*
X169960D01*
X172410Y103720D02*
X174020D01*
X169470D02*
X169890D01*
X172410Y103790D02*
X174020D01*
X169400D02*
X169890D01*
X172410Y103860D02*
X174020D01*
X169330D02*
X169820D01*
X172410Y103930D02*
X174020D01*
X169260D02*
X169820D01*
X172410Y104000D02*
X174020D01*
X172410Y104070D02*
X174020D01*
X172410Y104140D02*
X174020D01*
X172410Y104210D02*
X174020D01*
X172340Y104280D02*
X174020D01*
X168700Y104630D02*
X169400D01*
X171850Y105680D02*
X173110D01*
X171850Y105750D02*
X172900D01*
X171780Y105820D02*
X172830D01*
X171780Y105890D02*
X172760D01*
X171780Y105960D02*
X172690D01*
X171710Y106030D02*
X172620D01*
X171710Y106100D02*
X172550D01*
X171640Y106170D02*
X172550D01*
X171640Y106240D02*
X172480D01*
X171570Y106310D02*
X172480D01*
X171570Y106380D02*
X172410D01*
X171570Y106450D02*
X172340D01*
X171500Y106520D02*
X172340D01*
X171500Y106590D02*
X172340D01*
X171430Y106660D02*
X172340D01*
X171430Y106730D02*
X172340D01*
X171430Y106800D02*
X172340D01*
X171500Y106870D02*
X172340D01*
X171500Y106940D02*
X172340D01*
X171500Y107010D02*
X172340D01*
X171500Y107080D02*
X172340D01*
X171500Y107150D02*
X172340D01*
X171500Y107220D02*
X172340D01*
X171500Y107290D02*
X172340D01*
X171570Y107360D02*
X172340D01*
X171570Y107430D02*
X172340D01*
X171570Y107500D02*
X172340D01*
X171570Y107570D02*
X172340D01*
X171570Y107640D02*
X172340D01*
X171570Y107710D02*
X172340D01*
X171570Y107780D02*
X172340D01*
X171570Y107850D02*
X172340D01*
X171640Y107920D02*
X172340D01*
X171640Y107990D02*
X172340D01*
X171640Y108060D02*
X172340D01*
X171640Y108130D02*
X172410D01*
X171640Y108200D02*
X172410D01*
X171640Y108270D02*
X172410D01*
X171640Y108340D02*
X172410D01*
X171710Y108410D02*
X172410D01*
X171710Y108480D02*
X172410D01*
X171710Y108550D02*
X172410D01*
X171710Y108690D02*
X172410D01*
X171710Y108760D02*
X172410D01*
X173390Y108830D02*
X174020D01*
X171710D02*
X172410D01*
X173390Y108900D02*
X174020D01*
X171710D02*
X172410D01*
X173390Y108970D02*
X173950D01*
X171710D02*
X172410D01*
X173390Y109040D02*
X173950D01*
X171780D02*
X172410D01*
X173390Y109110D02*
X173950D01*
X171780D02*
X172410D01*
X173390Y109180D02*
X173880D01*
X171780D02*
X172480D01*
X173390Y109250D02*
X173880D01*
X171780D02*
X172480D01*
X173390Y109320D02*
X173880D01*
X171780D02*
X172480D01*
X173390Y109390D02*
X173880D01*
X171780D02*
X172480D01*
X173390Y109460D02*
X173950D01*
X171780D02*
X172480D01*
X173390Y109530D02*
X173950D01*
X171780D02*
X172480D01*
X173390Y109600D02*
X173950D01*
X171780D02*
X172480D01*
X173390Y109670D02*
X174020D01*
X171850D02*
X172480D01*
X173390Y109740D02*
X174020D01*
X171850D02*
X172480D01*
X171850Y109810D02*
X172480D01*
X171850Y109880D02*
X172480D01*
X171850Y109950D02*
X172550D01*
X171850Y110020D02*
X172550D01*
X171850Y110090D02*
X172550D01*
X171850Y110160D02*
X172550D01*
X171850Y110230D02*
X172550D01*
X171850Y110300D02*
X172550D01*
X171850Y110370D02*
X172550D01*
X171850Y110440D02*
X172550D01*
X171850Y110510D02*
X172550D01*
X171850Y110580D02*
X172550D01*
X171850Y110650D02*
X172550D01*
X171850Y110720D02*
X172550D01*
X171850Y110790D02*
X172620D01*
X171850Y110860D02*
X172620D01*
X171920Y110930D02*
X172690D01*
X171990Y111000D02*
X172690D01*
X172060Y111070D02*
X172760D01*
X172130Y111140D02*
X172830D01*
X172200Y111210D02*
X172900D01*
X172270Y111280D02*
X172900D01*
X172340Y111350D02*
X172970D01*
X172340Y111420D02*
X173040D01*
X172410Y111490D02*
X173110D01*
X172480Y111560D02*
X173180D01*
X172550Y111630D02*
X173250D01*
X172620Y111700D02*
X173320D01*
X172690Y111770D02*
X173390D01*
X172760Y111840D02*
X173460D01*
X166180Y115900D02*
X169610D01*
X166180Y115970D02*
X169680D01*
X166250Y116040D02*
X169680D01*
X166320Y116110D02*
X169750D01*
X166320Y116180D02*
X169750D01*
X166390Y116250D02*
X169680D01*
X166460Y116320D02*
X169540D01*
X166460Y116390D02*
X169470D01*
X166530Y116460D02*
X169330D01*
X166530Y116530D02*
X169190D01*
X166600Y116600D02*
X169120D01*
X166670Y116740D02*
X168910D01*
X166740Y116810D02*
X168770D01*
X166810Y116880D02*
X168630D01*
X166810Y116950D02*
X168560D01*
X166880Y117020D02*
X168420D01*
X166880Y117090D02*
X168280D01*
X166950Y117160D02*
X168210D01*
X167020Y117230D02*
X168070D01*
X167020Y117300D02*
X167930D01*
X167090Y117370D02*
X167860D01*
X167160Y117440D02*
X167720D01*
X167160Y117510D02*
X167580D01*
X167230Y117580D02*
X167510D01*
X167230Y117650D02*
X167370D01*
X171640Y119190D02*
X171780D01*
X171500Y119260D02*
X171850D01*
X171360Y119330D02*
X171850D01*
X171290Y119400D02*
X171920D01*
X171150Y119470D02*
X171990D01*
X171010Y119540D02*
X171990D01*
X170940Y119610D02*
X172060D01*
X170800Y119680D02*
X172130D01*
X170660Y119750D02*
X172200D01*
X170590Y119820D02*
X172200D01*
X170450Y119890D02*
X172270D01*
X170310Y119960D02*
X172340D01*
X170240Y120030D02*
X172410D01*
X170100Y120100D02*
X172410D01*
X170030Y120170D02*
X172480D01*
X169890Y120240D02*
X172550D01*
X169750Y120310D02*
X172620D01*
X169680Y120380D02*
X172690D01*
X169540Y120450D02*
X172760D01*
X169400Y120520D02*
X172830D01*
X169330Y120590D02*
X172900D01*
X169190Y120660D02*
X172970D01*
X169190Y120730D02*
X173040D01*
X169190Y120800D02*
X173180D01*
X169260Y120870D02*
X173250D01*
X169330Y120940D02*
X173320D01*
X169330Y121010D02*
X173460D01*
X169400Y121080D02*
X173530D01*
X169470Y121150D02*
X173670D01*
X169470Y121220D02*
X173810D01*
X169540Y121290D02*
X174020D01*
X176540Y100990D02*
X178990D01*
X176680Y101060D02*
X178500D01*
X176820Y101130D02*
X178360D01*
X176890Y101200D02*
X178220D01*
X176960Y101270D02*
X178150D01*
X177030Y101340D02*
X178080D01*
X177100Y101410D02*
X178080D01*
X177170Y101480D02*
X178010D01*
X177170Y101550D02*
X178010D01*
X177240Y101620D02*
X178010D01*
X177310Y101690D02*
X178080D01*
X177310Y101760D02*
X178080D01*
X177380Y101830D02*
X178080D01*
X177450Y101900D02*
X178150D01*
X177450Y101970D02*
X178150D01*
X177520Y102040D02*
X178220D01*
X177520Y102110D02*
X178220D01*
X177520Y102180D02*
X178290D01*
X177590Y102250D02*
X178360D01*
X177590Y102320D02*
X178360D01*
X177660Y102390D02*
X178430D01*
X177660Y102460D02*
X178430D01*
X177660Y102530D02*
X178500D01*
X177660Y102600D02*
X178500D01*
X177660Y102670D02*
X178570D01*
X177660Y102740D02*
X178570D01*
X177660Y102810D02*
X178640D01*
X174230D02*
X175350D01*
X177660Y102880D02*
X178640D01*
X174440D02*
X175420D01*
X177660Y102950D02*
X178710D01*
X174650D02*
X175420D01*
X177660Y103020D02*
X178780D01*
X174650D02*
X175490D01*
X177660Y103090D02*
X178780D01*
X174650D02*
X175560D01*
X177660Y103160D02*
X178850D01*
X174720D02*
X175560D01*
X177660Y103230D02*
X178920D01*
X174720D02*
X175630D01*
X177660Y103300D02*
X178990D01*
X174790D02*
X175700D01*
X177660Y103370D02*
X179060D01*
X174790D02*
X175770D01*
X179900Y103440D02*
X181230D01*
X177590D02*
X179130D01*
X174860D02*
X175840D01*
X179830Y103510D02*
X180950D01*
X177590D02*
X179200D01*
X174930D02*
X175910D01*
X179690Y103580D02*
X180810D01*
X177450D02*
X179270D01*
X174930D02*
X176050D01*
X179620Y103650D02*
X180810D01*
X177310D02*
X179410D01*
X175000D02*
X176190D01*
X177030Y103720D02*
X180740D01*
X175000D02*
X176470D01*
X178290Y103790D02*
X180670D01*
X175070D02*
X178220D01*
X178360Y103860D02*
X180600D01*
X175140D02*
X178150D01*
X178430Y103930D02*
X180600D01*
X175210D02*
X178080D01*
X178500Y104000D02*
X180530D01*
X175280D02*
X178010D01*
X178570Y104070D02*
X180460D01*
X175350D02*
X177940D01*
X178640Y104140D02*
X180460D01*
X175350D02*
X177870D01*
X178710Y104210D02*
X180390D01*
X175490D02*
X177730D01*
X178780Y104280D02*
X180390D01*
X175560D02*
X177660D01*
X178780Y104350D02*
X180390D01*
X175630D02*
X177520D01*
X178850Y104420D02*
X180320D01*
X175770D02*
X177380D01*
X178920Y104490D02*
X180320D01*
X175840D02*
X177240D01*
X178990Y104560D02*
X180320D01*
X176050D02*
X177100D01*
X179060Y104630D02*
X180320D01*
X176260D02*
X176820D01*
X179130Y104700D02*
X180320D01*
X179200Y104770D02*
X180320D01*
X179270Y104840D02*
X180320D01*
X179340Y104910D02*
X180390D01*
X179410Y104980D02*
X180390D01*
X179480Y105050D02*
X180390D01*
X179550Y105120D02*
X180460D01*
X179620Y105190D02*
X180460D01*
X179690Y105260D02*
X180530D01*
X179760Y105330D02*
X180530D01*
X179830Y105400D02*
X180600D01*
X179900Y105470D02*
X180670D01*
X179970Y105540D02*
X180740D01*
X180040Y105610D02*
X180810D01*
X180110Y105680D02*
X180880D01*
X180180Y105750D02*
X181020D01*
X180250Y105820D02*
X181160D01*
X180320Y105890D02*
X181440D01*
X174930Y108130D02*
X176050D01*
X175070Y108200D02*
X176050D01*
X175140Y108270D02*
X176120D01*
X175210Y108340D02*
X176190D01*
X175210Y108410D02*
X176260D01*
X175210Y108480D02*
X176330D01*
X175210Y108550D02*
X176400D01*
X175210Y108690D02*
X176540D01*
X175210Y108760D02*
X176540D01*
X175210Y108830D02*
X176610D01*
X175210Y108900D02*
X176680D01*
X175210Y108970D02*
X176750D01*
X175210Y109040D02*
X176820D01*
X175210Y109110D02*
X176890D01*
X175140Y109180D02*
X176960D01*
X175140Y109250D02*
X177030D01*
X175070Y109320D02*
X177030D01*
X176190Y109390D02*
X177100D01*
X175070D02*
X175910D01*
X176260Y109460D02*
X177170D01*
X175000D02*
X175770D01*
X176260Y109530D02*
X177240D01*
X175000D02*
X175700D01*
X176260Y109600D02*
X177310D01*
X174930D02*
X175630D01*
X176260Y109670D02*
X177380D01*
X174860D02*
X175560D01*
X176190Y109740D02*
X177380D01*
X174790D02*
X175560D01*
X176190Y109810D02*
X177450D01*
X174720D02*
X175490D01*
X176190Y109880D02*
X177520D01*
X174650D02*
X175490D01*
X176120Y109950D02*
X177590D01*
X174580D02*
X175420D01*
X176120Y110020D02*
X177660D01*
X174510D02*
X175420D01*
X176120Y110090D02*
X177730D01*
X176050Y110160D02*
X177730D01*
X176050Y110230D02*
X177800D01*
X176050Y110300D02*
X177870D01*
X176050Y110370D02*
X177940D01*
X176050Y110440D02*
X178010D01*
X176120Y110510D02*
X178010D01*
X176120Y110580D02*
X178080D01*
X176120Y110650D02*
X178150D01*
X176190Y110720D02*
X178220D01*
X176260Y110790D02*
X178220D01*
X176260Y110860D02*
X178290D01*
X176330Y110930D02*
X178290D01*
X176330Y111000D02*
X178360D01*
X174720D02*
X175420D01*
X176330Y111070D02*
X178220D01*
X174790D02*
X175420D01*
X176330Y111140D02*
X178150D01*
X174790D02*
X175490D01*
X176260Y111210D02*
X178010D01*
X174860D02*
X175630D01*
X176120Y111280D02*
X177940D01*
X174860D02*
X176050D01*
X174860Y111350D02*
X177800D01*
X174860Y111420D02*
X177660D01*
X174860Y111490D02*
X177590D01*
X174860Y111560D02*
X177450D01*
X174860Y111630D02*
X177310D01*
X174860Y111700D02*
X177240D01*
X174860Y111770D02*
X177100D01*
X174860Y111840D02*
X176960D01*
X174860Y111910D02*
X176890D01*
X174860Y111980D02*
X176750D01*
X174720Y112050D02*
X176610D01*
X178150Y135150D02*
X182070D01*
X178220Y135220D02*
X182000D01*
X178220Y135290D02*
X182000D01*
X178290Y135360D02*
X181930D01*
X178360Y135430D02*
X181930D01*
X178360Y135500D02*
X181860D01*
X178430Y135570D02*
X181790D01*
X178430Y135640D02*
X181790D01*
X178500Y135710D02*
X181720D01*
X178570Y135780D02*
X181720D01*
X178570Y135850D02*
X181650D01*
X178640Y135920D02*
X181650D01*
X178710Y135990D02*
X181580D01*
X178710Y136060D02*
X181510D01*
X178780Y136130D02*
X181510D01*
X178780Y136200D02*
X181440D01*
X178850Y136270D02*
X181440D01*
X178920Y136340D02*
X181370D01*
X178920Y136410D02*
X181300D01*
X178990Y136480D02*
X181300D01*
X179060Y136550D02*
X181230D01*
X179060Y136620D02*
X181230D01*
X179130Y136690D02*
X181160D01*
X179130Y136760D02*
X181090D01*
X179200Y136830D02*
X181090D01*
X179270Y136900D02*
X181020D01*
X179270Y136970D02*
X181020D01*
X179340Y137040D02*
X180950D01*
X179410Y137110D02*
X180950D01*
X179410Y137180D02*
X180880D01*
X179480Y137250D02*
X180810D01*
X179480Y137320D02*
X180810D01*
X179550Y137390D02*
X180740D01*
X179620Y137460D02*
X180740D01*
X179620Y137530D02*
X180670D01*
X179690Y137600D02*
X180600D01*
X179760Y137670D02*
X180600D01*
X179760Y137740D02*
X180530D01*
X179830Y137810D02*
X180530D01*
X179830Y137880D02*
X180460D01*
X179900Y137950D02*
X180460D01*
X179970Y138020D02*
X180390D01*
X179970Y138090D02*
X180320D01*
X180040Y138160D02*
X180320D01*
X180110Y138230D02*
X180250D01*
X180110Y138300D02*
X180250D01*
X182280Y103930D02*
X190050D01*
X182280Y104000D02*
X189980D01*
X182280Y104070D02*
X189840D01*
X182280Y104140D02*
X189700D01*
X182280Y104210D02*
X189630D01*
X182280Y104280D02*
X189490D01*
X182280Y104350D02*
X189350D01*
X182280Y104420D02*
X189280D01*
X182280Y104490D02*
X189140D01*
X182350Y104560D02*
X189000D01*
X182350Y104630D02*
X188930D01*
X182350Y104700D02*
X188790D01*
X182350Y104770D02*
X188650D01*
X182350Y104840D02*
X188580D01*
X182350Y104910D02*
X188440D01*
X182350Y104980D02*
X188300D01*
X182350Y105050D02*
X188230D01*
X182350Y105120D02*
X188090D01*
X182350Y105190D02*
X187950D01*
X182280Y105260D02*
X187880D01*
X182280Y105330D02*
X187740D01*
X182280Y105400D02*
X187600D01*
X182280Y105470D02*
X187530D01*
X182280Y105540D02*
X187390D01*
X182210Y105610D02*
X187250D01*
X182210Y107780D02*
X183680D01*
X182280Y107850D02*
X183610D01*
X182350Y107920D02*
X183470D01*
X182420Y107990D02*
X183330D01*
X182490Y108060D02*
X183260D01*
X182560Y108130D02*
X183120D01*
X182630Y108200D02*
X182980D01*
X182700Y108270D02*
X182910D01*
X190260Y107920D02*
X198030D01*
X190190Y114920D02*
X193970D01*
X190190Y114990D02*
X193900D01*
X190260Y115060D02*
X193830D01*
X190330Y115130D02*
X193830D01*
X190400Y115200D02*
X193760D01*
X190400Y115270D02*
X193760D01*
X190470Y115340D02*
X193690D01*
X190470Y115410D02*
X193690D01*
X190540Y115480D02*
X193620D01*
X190610Y115550D02*
X193550D01*
X190610Y115620D02*
X193550D01*
X190680Y115690D02*
X193480D01*
X190680Y115760D02*
X193480D01*
X190750Y115830D02*
X193410D01*
X190750Y115900D02*
X193340D01*
X190820Y115970D02*
X193340D01*
X190820Y116040D02*
X193270D01*
X190820Y116110D02*
X193270D01*
X190820Y116180D02*
X193200D01*
X190960Y116250D02*
X193130D01*
X191170Y116320D02*
X193130D01*
X191310Y116390D02*
X193060D01*
X191450Y116460D02*
X193060D01*
X191590Y116530D02*
X192990D01*
X191800Y116600D02*
X192990D01*
X192080Y116740D02*
X192850D01*
X192220Y116810D02*
X192850D01*
X192360Y116880D02*
X192780D01*
X192570Y116950D02*
X192780D01*
X202160Y100710D02*
X202230D01*
X202090Y100780D02*
X202230D01*
X201950Y100850D02*
X202230D01*
X201810Y100920D02*
X202160D01*
X201740Y100990D02*
X202090D01*
X201600Y101060D02*
X202090D01*
X201460Y101130D02*
X202020D01*
X201390Y101200D02*
X202020D01*
X201250Y101270D02*
X201950D01*
X201110Y101340D02*
X201950D01*
X201040Y101410D02*
X201880D01*
X200900Y101480D02*
X201810D01*
X200760Y101550D02*
X201810D01*
X200690Y101620D02*
X201740D01*
X200550Y101690D02*
X201740D01*
X200410Y101760D02*
X201670D01*
X200340Y101830D02*
X201600D01*
X200200Y101900D02*
X201600D01*
X200060Y101970D02*
X201530D01*
X199990Y102040D02*
X201530D01*
X199850Y102110D02*
X201460D01*
X199710Y102180D02*
X201390D01*
X199640Y102250D02*
X201390D01*
X199500Y102320D02*
X201320D01*
X199430Y102390D02*
X201320D01*
X199290Y102460D02*
X201250D01*
X199150Y102530D02*
X201250D01*
X199080Y102600D02*
X201180D01*
X198940Y102670D02*
X201110D01*
X198800Y102740D02*
X201110D01*
X198730Y102810D02*
X201040D01*
X198590Y102880D02*
X201040D01*
X198450Y102950D02*
X200970D01*
X198380Y103020D02*
X200900D01*
X198240Y103090D02*
X200900D01*
X171710Y108620D02*
X172410D01*
X166670Y116670D02*
X168980D01*
X175210Y108620D02*
X176470D01*
X191940Y116670D02*
X192920D01*
X157290Y101620D02*
X169540D01*
X157290Y101690D02*
X169400D01*
X157360Y101760D02*
X169330D01*
X157430Y101830D02*
X169330D01*
X157430Y101900D02*
X169330D01*
X157500Y101970D02*
X169260D01*
X157500Y102040D02*
X169260D01*
X157570Y102110D02*
X169190D01*
X157640Y102180D02*
X169190D01*
X157640Y102250D02*
X169190D01*
X157710Y102320D02*
X169120D01*
X157780Y102390D02*
X169120D01*
X157780Y102460D02*
X169120D01*
X157850Y102530D02*
X169050D01*
X157850Y102600D02*
X169050D01*
X157920Y102670D02*
X169050D01*
X157990Y102740D02*
X169050D01*
X157990Y102810D02*
X168980D01*
X158060Y102880D02*
X168980D01*
X158130Y102950D02*
X168980D01*
X158130Y103020D02*
X168980D01*
X158200Y103090D02*
X168910D01*
X158200Y103160D02*
X168910D01*
X158270Y103230D02*
X168910D01*
X158340Y103300D02*
X168910D01*
X158340Y103370D02*
X168910D01*
X158410Y103440D02*
X168910D01*
X158480Y103510D02*
X168910D01*
X158480Y103580D02*
X168910D01*
X158550Y103650D02*
X168980D01*
X158550Y103720D02*
X168980D01*
X158620Y103790D02*
X168980D01*
X158690Y103860D02*
X168980D01*
X158690Y103930D02*
X169050D01*
X158760Y104000D02*
X169750D01*
X158830Y104070D02*
X169750D01*
X158830Y104140D02*
X169680D01*
X158900Y104210D02*
X169680D01*
X158900Y104280D02*
X169610D01*
X158970Y104350D02*
X169610D01*
X159040Y104420D02*
X169540D01*
X159040Y104490D02*
X169540D01*
X159110Y104560D02*
X169470D01*
X159180Y104630D02*
X168350D01*
X159180Y104700D02*
X168350D01*
X159250Y104770D02*
X168280D01*
X159250Y104840D02*
X168280D01*
X159320Y104910D02*
X168280D01*
X159390Y104980D02*
X168280D01*
X159390Y105050D02*
X168210D01*
X159460Y105120D02*
X168210D01*
X159530Y105190D02*
X168210D01*
X159530Y105260D02*
X168140D01*
X159600Y105330D02*
X168140D01*
X159600Y105400D02*
X168140D01*
X159670Y105470D02*
X168140D01*
X159740Y105540D02*
X168070D01*
X159740Y105610D02*
X168070D01*
X159810Y105680D02*
X168070D01*
X159810Y105750D02*
X168000D01*
X159880Y105820D02*
X168000D01*
X159950Y105890D02*
X168000D01*
X159950Y105960D02*
X168000D01*
X160020Y106030D02*
X167930D01*
X160090Y106100D02*
X167930D01*
X160090Y106170D02*
X167930D01*
X160160Y106240D02*
X167930D01*
X160160Y106310D02*
X167860D01*
X160230Y106380D02*
X167860D01*
X160300Y106450D02*
X167860D01*
X160300Y106520D02*
X167860D01*
X160370Y106590D02*
X167790D01*
X160440Y106660D02*
X167790D01*
X160440Y106730D02*
X167790D01*
X160510Y106800D02*
X167790D01*
X160510Y106870D02*
X167720D01*
X160580Y106940D02*
X167720D01*
X160650Y107010D02*
X167720D01*
X160650Y107080D02*
X167650D01*
X160720Y107150D02*
X167650D01*
X160790Y107220D02*
X167650D01*
X160790Y107290D02*
X167650D01*
X160860Y107360D02*
X167580D01*
X160860Y107430D02*
X167580D01*
X160930Y107500D02*
X167580D01*
X161000Y107570D02*
X167580D01*
X161000Y107640D02*
X167510D01*
X161070Y107710D02*
X167510D01*
X161140Y107780D02*
X167510D01*
X161140Y107850D02*
X167510D01*
X161210Y107920D02*
X167440D01*
X161210Y107990D02*
X167440D01*
X161280Y108060D02*
X167440D01*
X161350Y108130D02*
X167440D01*
X161350Y108200D02*
X167440D01*
X161420Y108270D02*
X167370D01*
X161490Y108340D02*
X167370D01*
X161490Y108410D02*
X167370D01*
X161560Y108480D02*
X167370D01*
X161560Y108550D02*
X167300D01*
X161700Y108690D02*
X167300D01*
X161700Y108760D02*
X167300D01*
X161770Y108830D02*
X167230D01*
X161840Y108900D02*
X167230D01*
X161840Y108970D02*
X167230D01*
X161910Y109040D02*
X167230D01*
X161910Y109110D02*
X167230D01*
X161980Y109180D02*
X167160D01*
X162050Y109250D02*
X167160D01*
X162050Y109320D02*
X167160D01*
X162120Y109390D02*
X167160D01*
X162190Y109460D02*
X167160D01*
X162190Y109530D02*
X167090D01*
X162260Y109600D02*
X167090D01*
X162260Y109670D02*
X167090D01*
X162330Y109740D02*
X167090D01*
X162400Y109810D02*
X167090D01*
X162400Y109880D02*
X167020D01*
X162470Y109950D02*
X167020D01*
X162470Y110020D02*
X167020D01*
X162540Y110090D02*
X167020D01*
X162610Y110160D02*
X167020D01*
X162610Y110230D02*
X167020D01*
X162680Y110300D02*
X167020D01*
X162750Y110370D02*
X166950D01*
X162750Y110440D02*
X166950D01*
X162820Y110510D02*
X166950D01*
X162820Y110580D02*
X166950D01*
X162890Y110650D02*
X166950D01*
X162960Y110720D02*
X166950D01*
X162960Y110790D02*
X166950D01*
X163030Y110860D02*
X166950D01*
X163100Y110930D02*
X166950D01*
X163100Y111000D02*
X166950D01*
X163170Y111070D02*
X166950D01*
X163170Y111140D02*
X166950D01*
X163240Y111210D02*
X166950D01*
X163310Y111280D02*
X166950D01*
X163310Y111350D02*
X166950D01*
X163380Y111420D02*
X166950D01*
X163450Y111490D02*
X166950D01*
X163450Y111560D02*
X167020D01*
X163520Y111630D02*
X167020D01*
X163520Y111700D02*
X167090D01*
X163590Y111770D02*
X167090D01*
X163660Y111840D02*
X167160D01*
X163660Y111910D02*
X167160D01*
X163730Y111980D02*
X167230D01*
X163800Y112050D02*
X167230D01*
X163800Y112120D02*
X167300D01*
X163870Y112190D02*
X167300D01*
X163870Y112260D02*
X167370D01*
X163940Y112330D02*
X167370D01*
X164010Y112400D02*
X167440D01*
X164010Y112470D02*
X167440D01*
X164080Y112540D02*
X167510D01*
X164150Y112610D02*
X167580D01*
X164150Y112680D02*
X167580D01*
X164220Y112750D02*
X167650D01*
X164220Y112820D02*
X167650D01*
X164290Y112890D02*
X167720D01*
X164360Y112960D02*
X167720D01*
X164360Y113030D02*
X167790D01*
X164430Y113100D02*
X167860D01*
X164500Y113170D02*
X167860D01*
X164500Y113240D02*
X167930D01*
X164570Y113310D02*
X167930D01*
X164570Y113380D02*
X168000D01*
X164640Y113450D02*
X168070D01*
X164710Y113520D02*
X168070D01*
X164710Y113590D02*
X168140D01*
X164780Y113660D02*
X168210D01*
X164850Y113730D02*
X168210D01*
X164850Y113800D02*
X168280D01*
X164920Y113870D02*
X168280D01*
X164920Y113940D02*
X168350D01*
X164990Y114010D02*
X168420D01*
X165060Y114080D02*
X168420D01*
X165060Y114150D02*
X168490D01*
X165130Y114220D02*
X168560D01*
X165130Y114290D02*
X168560D01*
X165200Y114360D02*
X168630D01*
X165270Y114430D02*
X168630D01*
X165270Y114500D02*
X168700D01*
X165340Y114570D02*
X168770D01*
X165410Y114640D02*
X168770D01*
X165410Y114710D02*
X168840D01*
X165480Y114780D02*
X168910D01*
X165480Y114850D02*
X168910D01*
X165550Y114920D02*
X168980D01*
X165620Y114990D02*
X169050D01*
X165620Y115060D02*
X169050D01*
X165690Y115130D02*
X169120D01*
X165760Y115200D02*
X169120D01*
X165760Y115270D02*
X169190D01*
X165830Y115340D02*
X169260D01*
X165830Y115410D02*
X169260D01*
X165900Y115480D02*
X169330D01*
X165970Y115550D02*
X169400D01*
X165970Y115620D02*
X169400D01*
X166040Y115690D02*
X169470D01*
X166110Y115760D02*
X169540D01*
X166110Y115830D02*
X169540D01*
X197470Y97840D02*
X200060D01*
X192220Y97910D02*
X199990D01*
X186900Y97980D02*
X199920D01*
X181650Y98050D02*
X199780D01*
X176330Y98120D02*
X199640D01*
X171080Y98190D02*
X199570D01*
X171710Y100920D02*
X195020D01*
X179480Y100990D02*
X194950D01*
X171780D02*
X175140D01*
X179620Y101060D02*
X194810D01*
X171780D02*
X175070D01*
X179690Y101130D02*
X194670D01*
X171850D02*
X175070D01*
X179760Y101200D02*
X194600D01*
X171850D02*
X175070D01*
X179760Y101270D02*
X194460D01*
X171920D02*
X175070D01*
X179830Y101340D02*
X194320D01*
X171920D02*
X175070D01*
X179900Y101410D02*
X194250D01*
X171920D02*
X175070D01*
X179900Y101480D02*
X194110D01*
X171990D02*
X175070D01*
X179900Y101550D02*
X193970D01*
X171990D02*
X175070D01*
X179970Y101620D02*
X193900D01*
X171990D02*
X175070D01*
X179970Y101690D02*
X193760D01*
X172060D02*
X175070D01*
X179970Y101760D02*
X193620D01*
X172060D02*
X175070D01*
X179970Y101830D02*
X193550D01*
X172130D02*
X175070D01*
X179970Y101900D02*
X193410D01*
X172130D02*
X175070D01*
X179970Y101970D02*
X193270D01*
X172130D02*
X175070D01*
X179970Y102040D02*
X193200D01*
X172200D02*
X175070D01*
X179970Y102110D02*
X193060D01*
X172200D02*
X175070D01*
X179970Y102180D02*
X192920D01*
X172200D02*
X175140D01*
X179970Y102250D02*
X192850D01*
X172200D02*
X175140D01*
X179970Y102320D02*
X192710D01*
X172270D02*
X175140D01*
X179970Y102390D02*
X192640D01*
X172270D02*
X175140D01*
X179970Y102460D02*
X192500D01*
X172270D02*
X175140D01*
X179970Y102530D02*
X192360D01*
X172270D02*
X175210D01*
X179970Y102600D02*
X192290D01*
X172340D02*
X175210D01*
X179970Y102670D02*
X192150D01*
X172340D02*
X175280D01*
X179970Y102740D02*
X192010D01*
X172340D02*
X175350D01*
X179970Y102810D02*
X191940D01*
X179970Y102880D02*
X191800D01*
X179970Y102950D02*
X191660D01*
X179970Y103020D02*
X191590D01*
X179970Y103090D02*
X191450D01*
X198100Y103160D02*
X200830D01*
X179970D02*
X191310D01*
X198030Y103230D02*
X200830D01*
X179970D02*
X191240D01*
X197890Y103300D02*
X200760D01*
X179970D02*
X191100D01*
X197750Y103370D02*
X200690D01*
X179970D02*
X190960D01*
X197680Y103440D02*
X200690D01*
X181650D02*
X190890D01*
X197540Y103510D02*
X200620D01*
X181860D02*
X190750D01*
X197400Y103580D02*
X200620D01*
X181930D02*
X190610D01*
X197330Y103650D02*
X200550D01*
X182070D02*
X190540D01*
X197190Y103720D02*
X200550D01*
X182140D02*
X190400D01*
X197050Y103790D02*
X200480D01*
X182140D02*
X190260D01*
X196980Y103860D02*
X200410D01*
X182210D02*
X190190D01*
X196840Y103930D02*
X200410D01*
X196700Y104000D02*
X200340D01*
X196630Y104070D02*
X200340D01*
X196490Y104140D02*
X200270D01*
X196420Y104210D02*
X200200D01*
X196280Y104280D02*
X200200D01*
X196140Y104350D02*
X200130D01*
X172340D02*
X174090D01*
X196070Y104420D02*
X200130D01*
X172340D02*
X174090D01*
X195930Y104490D02*
X200060D01*
X172340D02*
X174090D01*
X195790Y104560D02*
X200060D01*
X172340D02*
X174090D01*
X195720Y104630D02*
X199990D01*
X172270D02*
X174090D01*
X195580Y104700D02*
X199920D01*
X172270D02*
X174090D01*
X195440Y104770D02*
X199920D01*
X172270D02*
X174090D01*
X195370Y104840D02*
X199850D01*
X172270D02*
X174160D01*
X195230Y104910D02*
X199850D01*
X172200D02*
X174160D01*
X195090Y104980D02*
X199780D01*
X172200D02*
X174160D01*
X195020Y105050D02*
X199710D01*
X172130D02*
X174160D01*
X194880Y105120D02*
X199710D01*
X172130D02*
X174160D01*
X194740Y105190D02*
X199640D01*
X172060D02*
X174230D01*
X194670Y105260D02*
X199640D01*
X172060D02*
X174230D01*
X194530Y105330D02*
X199570D01*
X171990D02*
X174230D01*
X194390Y105400D02*
X199500D01*
X171990D02*
X174300D01*
X194320Y105470D02*
X199500D01*
X171990D02*
X174300D01*
X194180Y105540D02*
X199430D01*
X171920D02*
X174300D01*
X194040Y105610D02*
X199430D01*
X171920D02*
X174300D01*
X193970Y105680D02*
X199360D01*
X182140D02*
X187180D01*
X173180D02*
X174370D01*
X193830Y105750D02*
X199360D01*
X182070D02*
X187040D01*
X173250D02*
X174370D01*
X193690Y105820D02*
X199290D01*
X181930D02*
X186970D01*
X173320D02*
X174370D01*
X193620Y105890D02*
X199220D01*
X181720D02*
X186830D01*
X173390D02*
X174440D01*
X193480Y105960D02*
X199220D01*
X180390D02*
X186690D01*
X173390D02*
X174440D01*
X193410Y106030D02*
X199150D01*
X180460D02*
X186620D01*
X173460D02*
X174510D01*
X193270Y106100D02*
X199150D01*
X180530D02*
X186480D01*
X173460D02*
X174510D01*
X193130Y106170D02*
X199080D01*
X180600D02*
X186340D01*
X173530D02*
X174580D01*
X193060Y106240D02*
X199010D01*
X180670D02*
X186270D01*
X173530D02*
X174580D01*
X192920Y106310D02*
X199010D01*
X180740D02*
X186130D01*
X173530D02*
X174580D01*
X192780Y106380D02*
X198940D01*
X180810D02*
X185990D01*
X173530D02*
X174650D01*
X192710Y106450D02*
X198940D01*
X180880D02*
X185920D01*
X173530D02*
X174650D01*
X192570Y106520D02*
X198870D01*
X180950D02*
X185780D01*
X173600D02*
X174720D01*
X192430Y106590D02*
X198800D01*
X181020D02*
X185640D01*
X173600D02*
X174790D01*
X192360Y106660D02*
X198800D01*
X181090D02*
X185570D01*
X173600D02*
X174790D01*
X192220Y106730D02*
X198730D01*
X181160D02*
X185430D01*
X173600D02*
X174860D01*
X192080Y106800D02*
X198730D01*
X181230D02*
X185290D01*
X173600D02*
X174860D01*
X192010Y106870D02*
X198660D01*
X181300D02*
X185220D01*
X173600D02*
X174930D01*
X191870Y106940D02*
X198660D01*
X181370D02*
X185080D01*
X173600D02*
X175000D01*
X191730Y107010D02*
X198590D01*
X181440D02*
X184940D01*
X173530D02*
X175000D01*
X191660Y107080D02*
X198520D01*
X181440D02*
X184870D01*
X173530D02*
X175070D01*
X191520Y107150D02*
X198520D01*
X181510D02*
X184730D01*
X173530D02*
X175140D01*
X191380Y107220D02*
X198450D01*
X181650D02*
X184590D01*
X173530D02*
X175140D01*
X191310Y107290D02*
X198450D01*
X181720D02*
X184520D01*
X173530D02*
X175210D01*
X191170Y107360D02*
X198380D01*
X181790D02*
X184380D01*
X173530D02*
X175280D01*
X191030Y107430D02*
X198310D01*
X181860D02*
X184240D01*
X173530D02*
X175350D01*
X190960Y107500D02*
X198310D01*
X181930D02*
X184170D01*
X173530D02*
X175420D01*
X190820Y107570D02*
X198240D01*
X182000D02*
X184030D01*
X173530D02*
X175490D01*
X190680Y107640D02*
X198240D01*
X182070D02*
X183960D01*
X173530D02*
X175560D01*
X190610Y107710D02*
X198170D01*
X182140D02*
X183820D01*
X173530D02*
X175630D01*
X190470Y107780D02*
X198170D01*
X173530D02*
X175700D01*
X190400Y107850D02*
X198100D01*
X173530D02*
X175770D01*
X173530Y107920D02*
X175840D01*
X190120Y107990D02*
X198030D01*
X173460D02*
X175910D01*
X190050Y108060D02*
X197960D01*
X173460D02*
X175980D01*
X189910Y108130D02*
X197960D01*
X173460D02*
X174440D01*
X189770Y108200D02*
X197890D01*
X173460D02*
X174370D01*
X189700Y108270D02*
X197820D01*
X173460D02*
X174300D01*
X189560Y108340D02*
X197820D01*
X173460D02*
X174230D01*
X189420Y108410D02*
X197750D01*
X173460D02*
X174230D01*
X189350Y108480D02*
X197750D01*
X173460D02*
X174160D01*
X189210Y108550D02*
X197680D01*
X173460D02*
X174160D01*
X189000Y108690D02*
X197610D01*
X173390D02*
X174090D01*
X188860Y108760D02*
X197540D01*
X173390D02*
X174090D01*
X188720Y108830D02*
X197540D01*
X188650Y108900D02*
X197470D01*
X188510Y108970D02*
X197470D01*
X188370Y109040D02*
X197400D01*
X188300Y109110D02*
X197330D01*
X188160Y109180D02*
X197330D01*
X188020Y109250D02*
X197260D01*
X187950Y109320D02*
X197260D01*
X187810Y109390D02*
X197190D01*
X187670Y109460D02*
X197120D01*
X187600Y109530D02*
X197120D01*
X187460Y109600D02*
X197050D01*
X187390Y109670D02*
X197050D01*
X187250Y109740D02*
X196980D01*
X187110Y109810D02*
X196910D01*
X173460D02*
X174090D01*
X187040Y109880D02*
X196910D01*
X173460D02*
X174160D01*
X186900Y109950D02*
X196840D01*
X173460D02*
X174230D01*
X186760Y110020D02*
X196840D01*
X173460D02*
X174300D01*
X186690Y110090D02*
X196770D01*
X173460D02*
X175420D01*
X186550Y110160D02*
X196770D01*
X173460D02*
X175420D01*
X186410Y110230D02*
X196700D01*
X173460D02*
X175350D01*
X186340Y110300D02*
X196630D01*
X173460D02*
X175350D01*
X186200Y110370D02*
X196630D01*
X173460D02*
X175350D01*
X186060Y110440D02*
X196560D01*
X173530D02*
X175350D01*
X185990Y110510D02*
X196560D01*
X173530D02*
X175350D01*
X185850Y110580D02*
X196490D01*
X173530D02*
X175350D01*
X185710Y110650D02*
X196420D01*
X173530D02*
X175350D01*
X185780Y110720D02*
X196420D01*
X173530D02*
X175350D01*
X185850Y110790D02*
X196350D01*
X173530D02*
X175350D01*
X185990Y110860D02*
X196350D01*
X173600D02*
X175350D01*
X186130Y110930D02*
X196280D01*
X173600D02*
X175350D01*
X186200Y111000D02*
X196280D01*
X173600D02*
X174510D01*
X186340Y111070D02*
X196210D01*
X173600D02*
X174440D01*
X186410Y111140D02*
X196140D01*
X173600D02*
X174370D01*
X186480Y111210D02*
X196140D01*
X173600D02*
X174370D01*
X186620Y111280D02*
X196070D01*
X173600D02*
X174370D01*
X186690Y111350D02*
X196070D01*
X173600D02*
X174370D01*
X186760Y111420D02*
X196000D01*
X173600D02*
X174370D01*
X186830Y111490D02*
X195930D01*
X173530D02*
X174370D01*
X186900Y111560D02*
X195930D01*
X173530D02*
X174370D01*
X186970Y111630D02*
X195860D01*
X173530D02*
X174370D01*
X187040Y111700D02*
X195860D01*
X173530D02*
X174370D01*
X187110Y111770D02*
X195790D01*
X173530D02*
X174440D01*
X187250Y111840D02*
X195720D01*
X173530D02*
X174510D01*
X187320Y111910D02*
X195720D01*
X172760D02*
X174580D01*
X187390Y111980D02*
X195650D01*
X172830D02*
X174650D01*
X187460Y112050D02*
X195650D01*
X172900D02*
X174650D01*
X187530Y112120D02*
X195580D01*
X172970D02*
X176540D01*
X187600Y112190D02*
X195580D01*
X173040D02*
X176400D01*
X187670Y112260D02*
X195510D01*
X173040D02*
X176260D01*
X187740Y112330D02*
X195440D01*
X173110D02*
X176190D01*
X187810Y112400D02*
X195440D01*
X173180D02*
X176050D01*
X187880Y112470D02*
X195370D01*
X173250D02*
X175910D01*
X187950Y112540D02*
X195370D01*
X173250D02*
X175840D01*
X188020Y112610D02*
X195300D01*
X173320D02*
X175700D01*
X188090Y112680D02*
X195230D01*
X173390D02*
X175560D01*
X188160Y112750D02*
X195230D01*
X173460D02*
X175490D01*
X188230Y112820D02*
X195160D01*
X173460D02*
X175350D01*
X188300Y112890D02*
X195160D01*
X173530D02*
X175210D01*
X188370Y112960D02*
X195090D01*
X173600D02*
X175140D01*
X188440Y113030D02*
X195020D01*
X173600D02*
X175000D01*
X188510Y113100D02*
X195020D01*
X173670D02*
X174930D01*
X188580Y113170D02*
X194950D01*
X173740D02*
X174790D01*
X188650Y113240D02*
X194950D01*
X173740D02*
X174650D01*
X188720Y113310D02*
X194880D01*
X173810D02*
X174580D01*
X188790Y113380D02*
X194880D01*
X173810D02*
X174440D01*
X188860Y113450D02*
X194810D01*
X173880D02*
X174300D01*
X188930Y113520D02*
X194740D01*
X173880D02*
X174230D01*
X189000Y113590D02*
X194740D01*
X173950D02*
X174090D01*
X189070Y113660D02*
X194670D01*
X189140Y113730D02*
X194670D01*
X189210Y113800D02*
X194600D01*
X189280Y113870D02*
X194530D01*
X189350Y113940D02*
X194530D01*
X189420Y114010D02*
X194460D01*
X189490Y114080D02*
X194460D01*
X189560Y114150D02*
X194390D01*
X189560Y114220D02*
X194390D01*
X189630Y114290D02*
X194320D01*
X189700Y114360D02*
X194250D01*
X189770Y114430D02*
X194250D01*
X189840Y114500D02*
X194180D01*
X189910Y114570D02*
X194180D01*
X189980Y114640D02*
X194110D01*
X189980Y114710D02*
X194040D01*
X190050Y114780D02*
X194040D01*
X190120Y114850D02*
X193970D01*
X170170Y122340D02*
X180600D01*
X170240Y122410D02*
X181440D01*
X170240Y122480D02*
X182210D01*
X170310Y122550D02*
X182770D01*
X170380Y122620D02*
X183190D01*
X170380Y122690D02*
X183540D01*
X170450Y122760D02*
X183820D01*
X170450Y122830D02*
X184030D01*
X170520Y122900D02*
X184240D01*
X170590Y122970D02*
X184450D01*
X170590Y123040D02*
X184660D01*
X170660Y123110D02*
X184800D01*
X170730Y123180D02*
X184940D01*
X170730Y123250D02*
X185080D01*
X170800Y123320D02*
X185220D01*
X170800Y123390D02*
X185360D01*
X170870Y123460D02*
X185500D01*
X170940Y123530D02*
X185710D01*
X170940Y123600D02*
X185850D01*
X171010Y123670D02*
X185990D01*
X171080Y123740D02*
X186130D01*
X171080Y123810D02*
X186270D01*
X171150Y123880D02*
X186410D01*
X171150Y123950D02*
X186550D01*
X171220Y124020D02*
X186690D01*
X171290Y124090D02*
X186830D01*
X171290Y124160D02*
X186970D01*
X171360Y124230D02*
X187180D01*
X171430Y124300D02*
X187320D01*
X171430Y124370D02*
X187460D01*
X171500Y124440D02*
X187600D01*
X171500Y124510D02*
X187740D01*
X171570Y124580D02*
X187880D01*
X171640Y124720D02*
X188160D01*
X171710Y124790D02*
X188160D01*
X171780Y124860D02*
X188090D01*
X171780Y124930D02*
X188090D01*
X171850Y125000D02*
X188020D01*
X171850Y125070D02*
X188020D01*
X171920Y125140D02*
X187950D01*
X171990Y125210D02*
X187880D01*
X171990Y125280D02*
X187880D01*
X172060Y125350D02*
X187810D01*
X172130Y125420D02*
X187810D01*
X172130Y125490D02*
X187740D01*
X172200Y125560D02*
X187670D01*
X172200Y125630D02*
X187670D01*
X172270Y125700D02*
X187600D01*
X172340Y125770D02*
X187600D01*
X172340Y125840D02*
X187530D01*
X172410Y125910D02*
X187460D01*
X172480Y125980D02*
X187460D01*
X172480Y126050D02*
X187390D01*
X172550Y126120D02*
X187390D01*
X172550Y126190D02*
X187320D01*
X172620Y126260D02*
X187320D01*
X172690Y126330D02*
X187250D01*
X172690Y126400D02*
X187180D01*
X172760Y126470D02*
X187180D01*
X172760Y126540D02*
X187110D01*
X172830Y126610D02*
X187110D01*
X172900Y126680D02*
X187040D01*
X172900Y126750D02*
X186970D01*
X172970Y126820D02*
X186970D01*
X173040Y126890D02*
X186900D01*
X173040Y126960D02*
X186900D01*
X173110Y127030D02*
X186830D01*
X173110Y127100D02*
X186830D01*
X173180Y127170D02*
X186760D01*
X173250Y127240D02*
X186690D01*
X173250Y127310D02*
X186690D01*
X173320Y127380D02*
X186620D01*
X173390Y127450D02*
X186620D01*
X173390Y127520D02*
X186550D01*
X173460Y127590D02*
X186480D01*
X173460Y127660D02*
X186480D01*
X173530Y127730D02*
X186410D01*
X173600Y127800D02*
X186410D01*
X173600Y127870D02*
X186340D01*
X173670Y127940D02*
X186270D01*
X173740Y128010D02*
X186270D01*
X173740Y128080D02*
X186200D01*
X173810Y128150D02*
X186200D01*
X173810Y128220D02*
X186130D01*
X173880Y128290D02*
X186130D01*
X173950Y128360D02*
X186060D01*
X173950Y128430D02*
X185990D01*
X174020Y128500D02*
X185990D01*
X174090Y128570D02*
X185920D01*
X174090Y128640D02*
X185920D01*
X174160Y128710D02*
X185850D01*
X174160Y128780D02*
X185780D01*
X174230Y128850D02*
X185780D01*
X174300Y128920D02*
X185710D01*
X174300Y128990D02*
X185710D01*
X174370Y129060D02*
X185640D01*
X174440Y129130D02*
X185570D01*
X174440Y129200D02*
X185570D01*
X174510Y129270D02*
X185500D01*
X174510Y129340D02*
X185500D01*
X174580Y129410D02*
X185430D01*
X174650Y129480D02*
X185430D01*
X174650Y129550D02*
X185360D01*
X174720Y129620D02*
X185290D01*
X174790Y129690D02*
X185290D01*
X174790Y129760D02*
X185220D01*
X174860Y129830D02*
X185220D01*
X174860Y129900D02*
X185150D01*
X174930Y129970D02*
X185080D01*
X175000Y130040D02*
X185080D01*
X175000Y130110D02*
X185010D01*
X175070Y130180D02*
X185010D01*
X175140Y130250D02*
X184940D01*
X175140Y130320D02*
X184870D01*
X175210Y130390D02*
X184870D01*
X175210Y130460D02*
X184800D01*
X175280Y130530D02*
X184800D01*
X175350Y130600D02*
X184730D01*
X175350Y130670D02*
X184730D01*
X175420Y130740D02*
X184660D01*
X175420Y130810D02*
X184590D01*
X175490Y130880D02*
X184590D01*
X175560Y130950D02*
X184520D01*
X175560Y131020D02*
X184520D01*
X175630Y131090D02*
X184450D01*
X175700Y131160D02*
X184380D01*
X175700Y131230D02*
X184380D01*
X175770Y131300D02*
X184310D01*
X175770Y131370D02*
X184310D01*
X175840Y131440D02*
X184240D01*
X175910Y131510D02*
X184240D01*
X175910Y131580D02*
X184170D01*
X175980Y131650D02*
X184100D01*
X176050Y131720D02*
X184100D01*
X176050Y131790D02*
X184030D01*
X176120Y131860D02*
X184030D01*
X176120Y131930D02*
X183960D01*
X176190Y132000D02*
X183890D01*
X176260Y132070D02*
X183890D01*
X176260Y132140D02*
X183820D01*
X176330Y132210D02*
X183820D01*
X176400Y132280D02*
X183750D01*
X176400Y132350D02*
X183680D01*
X176470Y132420D02*
X183680D01*
X176470Y132490D02*
X183610D01*
X176540Y132560D02*
X183610D01*
X176610Y132700D02*
X183540D01*
X176680Y132770D02*
X183470D01*
X176750Y132840D02*
X183400D01*
X176750Y132910D02*
X183400D01*
X176820Y132980D02*
X183330D01*
X176820Y133050D02*
X183330D01*
X176890Y133120D02*
X183260D01*
X176960Y133190D02*
X183190D01*
X176960Y133260D02*
X183190D01*
X177030Y133330D02*
X183120D01*
X177100Y133400D02*
X183120D01*
X177100Y133470D02*
X183050D01*
X177170Y133540D02*
X182980D01*
X177170Y133610D02*
X182980D01*
X177240Y133680D02*
X182910D01*
X177310Y133750D02*
X182910D01*
X177310Y133820D02*
X182840D01*
X177380Y133890D02*
X182840D01*
X177450Y133960D02*
X182770D01*
X177450Y134030D02*
X182700D01*
X177520Y134100D02*
X182700D01*
X177520Y134170D02*
X182630D01*
X177590Y134240D02*
X182630D01*
X177660Y134310D02*
X182560D01*
X177660Y134380D02*
X182490D01*
X177730Y134450D02*
X182490D01*
X177800Y134520D02*
X182420D01*
X177800Y134590D02*
X182420D01*
X177870Y134660D02*
X182350D01*
X177870Y134730D02*
X182350D01*
X177940Y134800D02*
X182280D01*
X178010Y134870D02*
X182210D01*
X178010Y134940D02*
X182210D01*
X178080Y135010D02*
X182140D01*
X178080Y135080D02*
X182140D01*
X161630Y108620D02*
X167300D01*
X189070D02*
X197610D01*
X173460D02*
X174090D01*
X171640Y124650D02*
X188020D01*
X176610Y132630D02*
X183540D01*
X165760Y98260D02*
X199430D01*
X160440Y98330D02*
X199290D01*
X155330Y98400D02*
X199220D01*
X155330Y98470D02*
X199080D01*
X155330Y98540D02*
X198940D01*
X155400Y98610D02*
X198870D01*
X155470Y98680D02*
X198730D01*
X155470Y98750D02*
X198660D01*
X155540Y98820D02*
X198520D01*
X155540Y98890D02*
X198380D01*
X155610Y98960D02*
X198310D01*
X155680Y99030D02*
X198170D01*
X155680Y99100D02*
X198030D01*
X155750Y99170D02*
X197960D01*
X155820Y99240D02*
X197820D01*
X155820Y99310D02*
X197680D01*
X155890Y99380D02*
X197610D01*
X155890Y99450D02*
X197470D01*
X155960Y99520D02*
X197330D01*
X156030Y99590D02*
X197260D01*
X156030Y99660D02*
X197120D01*
X156100Y99730D02*
X196980D01*
X156170Y99800D02*
X196910D01*
X156170Y99870D02*
X196770D01*
X156240Y99940D02*
X196630D01*
X156240Y100010D02*
X196560D01*
X156310Y100080D02*
X196420D01*
X156380Y100150D02*
X196280D01*
X156380Y100220D02*
X196210D01*
X156450Y100290D02*
X196070D01*
X156520Y100360D02*
X195930D01*
X156520Y100430D02*
X195860D01*
X156590Y100500D02*
X195720D01*
X156590Y100570D02*
X195650D01*
X156730Y100710D02*
X195370D01*
X156730Y100780D02*
X195300D01*
X156800Y100850D02*
X195160D01*
X156870Y100920D02*
X171360D01*
X156870Y100990D02*
X171290D01*
X156940Y101060D02*
X171220D01*
X156940Y101130D02*
X171220D01*
X157010Y101200D02*
X171150D01*
X157080Y101270D02*
X171150D01*
X157080Y101340D02*
X171080D01*
X157150Y101410D02*
X171080D01*
X157150Y101480D02*
X171010D01*
X157220Y101550D02*
X171010D01*
X169540Y121360D02*
X174230D01*
X169610Y121430D02*
X174300D01*
X169680Y121500D02*
X174440D01*
X169680Y121570D02*
X174720D01*
X169750Y121640D02*
X174930D01*
X169820Y121710D02*
X175280D01*
X169820Y121780D02*
X175700D01*
X169890Y121850D02*
X176120D01*
X169890Y121920D02*
X176610D01*
X169960Y121990D02*
X177170D01*
X170030Y122060D02*
X177730D01*
X170030Y122130D02*
X178360D01*
X170100Y122200D02*
X179130D01*
X170100Y122270D02*
X179830D01*
X156660Y100640D02*
X195510D01*
D23*
X470887Y29053D02*
D03*
D24*
X378900Y12815D02*
D03*
X17800Y60413D02*
D03*
M02*
