G04*
G04 #@! TF.GenerationSoftware,Altium Limited,Altium Designer,21.9.1 (22)*
G04*
G04 Layer_Color=32768*
%FSLAX25Y25*%
%MOIN*%
G70*
G04*
G04 #@! TF.SameCoordinates,6B560933-D042-473C-9E78-3B088F3B31AC*
G04*
G04*
G04 #@! TF.FilePolarity,Positive*
G04*
G01*
G75*
%ADD11C,0.01181*%
%ADD12C,0.00591*%
%ADD19C,0.00394*%
%ADD135C,0.00500*%
%ADD136C,0.00800*%
%ADD137C,0.00197*%
G36*
X25079Y223609D02*
X21949D01*
Y224391D01*
X25079D01*
Y223609D01*
D02*
G37*
G36*
X40077Y224391D02*
X41251D01*
Y223609D01*
X40077D01*
Y221392D01*
X39294D01*
Y223609D01*
X38121D01*
Y224391D01*
X39294D01*
Y226608D01*
X40077D01*
Y224391D01*
D02*
G37*
G36*
X32608Y201893D02*
X31392D01*
Y206759D01*
X32608D01*
Y201893D01*
D02*
G37*
G36*
Y171682D02*
X36055D01*
Y170466D01*
X32608D01*
Y168641D01*
X31392D01*
Y170466D01*
X27945D01*
Y171682D01*
X31392D01*
Y173507D01*
X32608D01*
Y171682D01*
D02*
G37*
G36*
X58899Y119735D02*
X58101D01*
Y122924D01*
X58899D01*
Y119735D01*
D02*
G37*
G36*
X58943Y106669D02*
X61158D01*
Y105872D01*
X58943D01*
Y104784D01*
X58146D01*
Y105872D01*
X55843D01*
Y106669D01*
X58146D01*
Y107973D01*
X58943D01*
Y106669D01*
D02*
G37*
G36*
X23505Y83110D02*
X20387D01*
Y83890D01*
X23505D01*
Y83110D01*
D02*
G37*
G36*
X43663Y83890D02*
X44813D01*
Y83110D01*
X43663D01*
Y80902D01*
X42884D01*
Y83110D01*
X41695D01*
Y83890D01*
X42884D01*
Y86098D01*
X43663D01*
Y83890D01*
D02*
G37*
G36*
X94691Y39677D02*
X96908D01*
Y38894D01*
X94691D01*
Y37721D01*
X93909D01*
Y38894D01*
X91692D01*
Y39677D01*
X93909D01*
Y40851D01*
X94691D01*
Y39677D01*
D02*
G37*
G36*
Y21549D02*
X93909D01*
Y24679D01*
X94691D01*
Y21549D01*
D02*
G37*
D11*
X79291Y96914D02*
G03*
X79291Y96914I-591J0D01*
G01*
D12*
X522532Y115400D02*
X526469D01*
X524500Y113432D02*
Y117368D01*
X502889Y77263D02*
X506826D01*
X504857Y75295D02*
Y79232D01*
X502102Y71062D02*
Y83562D01*
Y70964D02*
X507613D01*
Y72047D02*
Y82480D01*
X502102Y83562D02*
X507613D01*
Y82480D02*
Y83562D01*
Y71062D02*
Y72047D01*
X513232Y77263D02*
X517169D01*
X515200Y75295D02*
Y79232D01*
X543831Y77200D02*
X547768D01*
X545800Y75231D02*
Y79168D01*
X543044Y70999D02*
Y83499D01*
Y70901D02*
X548556D01*
Y71983D02*
Y82416D01*
X543044Y83499D02*
X548556D01*
Y82416D02*
Y83499D01*
Y70999D02*
Y71983D01*
X554732Y77100D02*
X558669D01*
X556700Y75131D02*
Y79068D01*
X645331Y47167D02*
X649268D01*
X647300Y45198D02*
Y49135D01*
X604232Y47167D02*
X608169D01*
X606200Y45198D02*
Y49135D01*
X563332Y47167D02*
X567269D01*
X565300Y45198D02*
Y49135D01*
X522532Y47167D02*
X526469D01*
X524500Y45198D02*
Y49135D01*
X502889Y13629D02*
X506826D01*
X504857Y11661D02*
Y15598D01*
X502102Y7428D02*
Y19928D01*
Y7330D02*
X507613D01*
Y8413D02*
Y18846D01*
X502102Y19928D02*
X507613D01*
Y18846D02*
Y19928D01*
Y7428D02*
Y8413D01*
X513232Y13643D02*
X517169D01*
X515200Y11675D02*
Y15612D01*
X543831Y13629D02*
X547768D01*
X545800Y11661D02*
Y15598D01*
X543044Y7428D02*
Y19928D01*
Y7330D02*
X548556D01*
Y8413D02*
Y18846D01*
X543044Y19928D02*
X548556D01*
Y18846D02*
Y19928D01*
Y7428D02*
Y8413D01*
X553831Y13643D02*
X557768D01*
X555800Y11675D02*
Y15612D01*
X584232Y13800D02*
X588168D01*
X586200Y11831D02*
Y15768D01*
X583444Y7599D02*
Y20099D01*
Y7501D02*
X588956D01*
Y8584D02*
Y19016D01*
X583444Y20099D02*
X588956D01*
Y19016D02*
Y20099D01*
Y7599D02*
Y8584D01*
X594732Y13500D02*
X598668D01*
X596700Y11531D02*
Y15469D01*
X634382Y13650D02*
X638319D01*
X636350Y11682D02*
Y15619D01*
X624332Y13700D02*
X628268D01*
X626300Y11732D02*
Y15668D01*
X623544Y7499D02*
Y19999D01*
Y7401D02*
X629056D01*
Y8484D02*
Y18916D01*
X623544Y19999D02*
X629056D01*
Y18916D02*
Y19999D01*
Y7499D02*
Y8484D01*
X607400Y67232D02*
Y71169D01*
X605432Y69200D02*
X609369D01*
X601199Y71956D02*
X613699D01*
X601101Y66444D02*
Y71956D01*
X602183Y66444D02*
X612616D01*
X613699D02*
Y71956D01*
X612616Y66444D02*
X613699D01*
X601199D02*
X602183D01*
X581118Y73137D02*
X595882D01*
Y65263D02*
Y73137D01*
X581118Y65263D02*
X595882D01*
X581118D02*
Y73137D01*
X618018Y65263D02*
X632782D01*
X618018D02*
Y73137D01*
X632782D01*
Y65263D02*
Y73137D01*
X638332Y87500D02*
X642269D01*
X640300Y85532D02*
Y89468D01*
X646194Y113657D02*
X650131D01*
X648162Y111688D02*
Y115625D01*
X650918Y107358D02*
Y119858D01*
X645406Y119956D02*
X650918D01*
X645406Y108440D02*
Y118873D01*
Y107358D02*
X650918D01*
X645406D02*
Y108440D01*
Y118873D02*
Y119858D01*
X638091Y113657D02*
X642028D01*
X640060Y111688D02*
Y115625D01*
X642816Y107358D02*
Y119858D01*
X637304Y119956D02*
X642816D01*
X637304Y108440D02*
Y118873D01*
Y107358D02*
X642816D01*
X637304D02*
Y108440D01*
Y118873D02*
Y119858D01*
X629610Y113657D02*
X633547D01*
X631579Y111688D02*
Y115625D01*
X619435Y113657D02*
X623372D01*
X621404Y111688D02*
Y115625D01*
X609932Y113657D02*
X613869D01*
X611900Y111688D02*
Y115625D01*
X601092Y113657D02*
X605029D01*
X603061Y111688D02*
Y115625D01*
X592031Y113657D02*
X595968D01*
X594000Y111688D02*
Y115625D01*
X598139Y80373D02*
Y102027D01*
X628258Y80373D02*
Y100993D01*
X598139Y102027D02*
X628182D01*
X598139Y80373D02*
X628258D01*
X611131Y91200D02*
X615068D01*
X613100Y89231D02*
Y93168D01*
X628182Y102027D02*
X628258Y100993D01*
X582710Y79931D02*
Y83868D01*
X580742Y81900D02*
X584679D01*
X566200Y113432D02*
Y117368D01*
X564231Y115400D02*
X568168D01*
X580742Y91043D02*
X584679D01*
X582710Y89075D02*
Y93012D01*
X75599Y64944D02*
X76583D01*
X87016D02*
X88099D01*
Y70456D01*
X76583Y64944D02*
X87016D01*
X75501D02*
Y70456D01*
X75599D02*
X88099D01*
X79831Y67700D02*
X83768D01*
X81800Y65732D02*
Y69669D01*
X130399Y127844D02*
X131384D01*
X141816D02*
X142899D01*
Y133356D01*
X131384Y127844D02*
X141816D01*
X130301D02*
Y133356D01*
X130399D02*
X142899D01*
X134632Y130600D02*
X138568D01*
X136600Y128631D02*
Y132569D01*
X365444Y25557D02*
Y26541D01*
Y14041D02*
Y15124D01*
Y14041D02*
X370956D01*
X365444Y15124D02*
Y25557D01*
Y26639D02*
X370956D01*
Y14041D02*
Y26541D01*
X368200Y18372D02*
Y22309D01*
X366231Y20340D02*
X370168D01*
X48744Y39116D02*
Y40101D01*
Y27601D02*
Y28684D01*
Y27601D02*
X54256D01*
X48744Y28684D02*
Y39116D01*
Y40199D02*
X54256D01*
Y27601D02*
Y40101D01*
X51500Y31931D02*
Y35868D01*
X49531Y33900D02*
X53469D01*
X447331Y93594D02*
X451268D01*
X449300Y91625D02*
Y95562D01*
X452056Y87295D02*
Y99795D01*
X446544Y99893D02*
X452056D01*
X446544Y88377D02*
Y98810D01*
Y87295D02*
X452056D01*
X446544D02*
Y88377D01*
Y98810D02*
Y99795D01*
X370800Y120431D02*
Y124369D01*
X368831Y122400D02*
X372768D01*
X364599Y125156D02*
X377099D01*
X364501Y119644D02*
Y125156D01*
X365583Y119644D02*
X376016D01*
X377099D02*
Y125156D01*
X376016Y119644D02*
X377099D01*
X364599D02*
X365583D01*
X455737Y104018D02*
Y118782D01*
X447863Y104018D02*
X455737D01*
X447863D02*
Y118782D01*
X455737D01*
X108099Y194883D02*
Y196753D01*
Y190847D02*
Y192717D01*
X99831Y193800D02*
X103769D01*
X101800Y191832D02*
Y195768D01*
X95501Y190847D02*
Y196753D01*
Y190847D02*
X108099D01*
Y192717D02*
Y194883D01*
X95501Y196753D02*
X108099D01*
X143247Y119456D02*
X145117D01*
X147283D02*
X149153D01*
X146200Y111188D02*
Y115125D01*
X144231Y113157D02*
X148169D01*
X143247Y106858D02*
X149153D01*
Y119456D01*
X145117D02*
X147283D01*
X143247Y106858D02*
Y119456D01*
X308032Y19000D02*
X311968D01*
X310000Y17031D02*
Y20968D01*
X265231Y17800D02*
X269168D01*
X267200Y15832D02*
Y19769D01*
X221632Y18873D02*
X225569D01*
X223600Y16904D02*
Y20842D01*
X307732Y10800D02*
X311668D01*
X309700Y8832D02*
Y12768D01*
X265231Y10100D02*
X269168D01*
X267200Y8132D02*
Y12069D01*
X221431Y11064D02*
X225368D01*
X223400Y9096D02*
Y13033D01*
X178532Y18200D02*
X182468D01*
X180500Y16231D02*
Y20168D01*
X138131Y18100D02*
X142069D01*
X140100Y16131D02*
Y20068D01*
X291500Y101646D02*
Y105583D01*
X289531Y103614D02*
X293468D01*
X617132Y143100D02*
X621068D01*
X619100Y141131D02*
Y145069D01*
X578932Y143000D02*
X582868D01*
X580900Y141032D02*
Y144968D01*
X178631Y10100D02*
X182569D01*
X180600Y8132D02*
Y12069D01*
X138232Y10000D02*
X142168D01*
X140200Y8032D02*
Y11969D01*
X283600Y101746D02*
Y105683D01*
X281631Y103714D02*
X285568D01*
X617132Y151000D02*
X621068D01*
X619100Y149031D02*
Y152969D01*
X578731Y150600D02*
X582668D01*
X580700Y148632D02*
Y152568D01*
X539931Y143600D02*
X543868D01*
X541900Y141631D02*
Y145569D01*
X498832Y143200D02*
X502769D01*
X500800Y141232D02*
Y145168D01*
X459531Y142700D02*
X463469D01*
X461500Y140732D02*
Y144668D01*
X420131Y143660D02*
X424068D01*
X422100Y141691D02*
Y145628D01*
X395232Y151400D02*
X399168D01*
X397200Y149432D02*
Y153368D01*
X540132Y151240D02*
X544068D01*
X542100Y149272D02*
Y153209D01*
X498932Y150840D02*
X502869D01*
X500900Y148872D02*
Y152809D01*
X459531Y150600D02*
X463469D01*
X461500Y148632D02*
Y152568D01*
X420188Y151300D02*
X424125D01*
X422157Y149331D02*
Y153269D01*
X395232Y143300D02*
X399168D01*
X397200Y141332D02*
Y145268D01*
X356732Y150300D02*
X360668D01*
X358700Y148331D02*
Y152269D01*
X316332Y151100D02*
X320269D01*
X318300Y149132D02*
Y153068D01*
X275775Y149659D02*
X279712D01*
X277743Y147691D02*
Y151628D01*
X234732Y150359D02*
X238668D01*
X236700Y148391D02*
Y152328D01*
X194088Y150100D02*
X198025D01*
X196057Y148132D02*
Y152068D01*
X356832Y142100D02*
X360769D01*
X358800Y140131D02*
Y144069D01*
X316531Y143400D02*
X320468D01*
X318500Y141431D02*
Y145369D01*
X275875Y142100D02*
X279812D01*
X277843Y140131D02*
Y144069D01*
X234631Y142500D02*
X238568D01*
X236600Y140532D02*
Y144468D01*
X193988Y142500D02*
X197925D01*
X195957Y140532D02*
Y144468D01*
X134158Y209953D02*
X146756D01*
Y205917D02*
Y208083D01*
X134158Y204047D02*
X146756D01*
X134158D02*
Y209953D01*
X140457Y205031D02*
Y208968D01*
X138488Y207000D02*
X142425D01*
X146756Y204047D02*
Y205917D01*
Y208083D02*
Y209953D01*
X134257Y201853D02*
X146856D01*
Y197817D02*
Y199983D01*
X134257Y195947D02*
X146856D01*
X134257D02*
Y201853D01*
X140557Y196932D02*
Y200869D01*
X138588Y198900D02*
X142525D01*
X146856Y195947D02*
Y197817D01*
Y199983D02*
Y201853D01*
X132053Y204501D02*
Y217099D01*
X128017Y204501D02*
X130183D01*
X126147D02*
Y217099D01*
X132053D01*
X127131Y210800D02*
X131069D01*
X129100Y208832D02*
Y212769D01*
X126147Y204501D02*
X128017D01*
X130183D02*
X132053D01*
X459253Y35357D02*
Y47956D01*
X455217Y35357D02*
X457383D01*
X453347D02*
Y47956D01*
X459253D01*
X454331Y41657D02*
X458268D01*
X456300Y39688D02*
Y43625D01*
X453347Y35357D02*
X455217D01*
X457383D02*
X459253D01*
X400647Y118501D02*
Y131099D01*
X402517D02*
X404683D01*
X406553Y118501D02*
Y131099D01*
X400647Y118501D02*
X406553D01*
X401631Y124800D02*
X405569D01*
X403600Y122831D02*
Y126769D01*
X404683Y131099D02*
X406553D01*
X400647D02*
X402517D01*
X391553Y13201D02*
Y25799D01*
X387517Y13201D02*
X389683D01*
X385647D02*
Y25799D01*
X391553D01*
X386631Y19500D02*
X390568D01*
X388600Y17531D02*
Y21468D01*
X385647Y13201D02*
X387517D01*
X389683D02*
X391553D01*
X355347Y14801D02*
Y27399D01*
X357217D02*
X359383D01*
X361253Y14801D02*
Y27399D01*
X355347Y14801D02*
X361253D01*
X356331Y21100D02*
X360268D01*
X358300Y19131D02*
Y23068D01*
X359383Y27399D02*
X361253D01*
X355347D02*
X357217D01*
X459916Y72334D02*
Y84932D01*
X455881Y72334D02*
X458046D01*
X454011D02*
Y84932D01*
X459916D01*
X454995Y78633D02*
X458932D01*
X456964Y76665D02*
Y80602D01*
X454011Y72334D02*
X455881D01*
X458046D02*
X459916D01*
X407401Y28747D02*
X419999D01*
X407401Y30617D02*
Y32783D01*
Y34653D02*
X419999D01*
Y28747D02*
Y34653D01*
X413700Y29732D02*
Y33669D01*
X411731Y31700D02*
X415668D01*
X407401Y32783D02*
Y34653D01*
Y28747D02*
Y30617D01*
X409801Y36847D02*
X422399D01*
X409801Y38717D02*
Y40883D01*
Y42753D02*
X422399D01*
Y36847D02*
Y42753D01*
X416100Y37832D02*
Y41769D01*
X414131Y39800D02*
X418069D01*
X409801Y40883D02*
Y42753D01*
Y36847D02*
Y38717D01*
X407401Y20747D02*
X419999D01*
X407401Y22617D02*
Y24783D01*
Y26653D02*
X419999D01*
Y20747D02*
Y26653D01*
X413700Y21732D02*
Y25668D01*
X411731Y23700D02*
X415668D01*
X407401Y24783D02*
Y26653D01*
Y20747D02*
Y22617D01*
X419999Y120220D02*
X420984D01*
X431417D02*
X432499D01*
Y125731D01*
X420984Y120220D02*
X431417D01*
X419901D02*
Y125731D01*
X419999D02*
X432499D01*
X424231Y122975D02*
X428168D01*
X426200Y121007D02*
Y124944D01*
X435716Y42656D02*
X436701D01*
X424201D02*
X425283D01*
X424201Y37144D02*
Y42656D01*
X425283D02*
X435716D01*
X436799Y37144D02*
Y42656D01*
X424201Y37144D02*
X436701D01*
X428532Y39900D02*
X432469D01*
X430500Y37931D02*
Y41868D01*
X357156Y50099D02*
Y51083D01*
Y61516D02*
Y62599D01*
X351644D02*
X357156D01*
Y51083D02*
Y61516D01*
X351644Y50001D02*
X357156D01*
X351644Y50099D02*
Y62599D01*
X354400Y54331D02*
Y58268D01*
X352432Y56300D02*
X356368D01*
X442644Y75617D02*
Y76601D01*
Y64101D02*
Y65184D01*
Y64101D02*
X448156D01*
X442644Y65184D02*
Y75617D01*
Y76699D02*
X448156D01*
Y64101D02*
Y76601D01*
X445400Y68432D02*
Y72369D01*
X443432Y70400D02*
X447368D01*
X445544Y46773D02*
Y47758D01*
Y35258D02*
Y36340D01*
Y35258D02*
X451056D01*
X445544Y36340D02*
Y46773D01*
Y47856D02*
X451056D01*
Y35258D02*
Y47758D01*
X448300Y39588D02*
Y43525D01*
X446332Y41557D02*
X450269D01*
X418917Y16456D02*
X419901D01*
X407401D02*
X408484D01*
X407401Y10944D02*
Y16456D01*
X408484D02*
X418917D01*
X419999Y10944D02*
Y16456D01*
X407401Y10944D02*
X419901D01*
X411731Y13700D02*
X415668D01*
X413700Y11732D02*
Y15668D01*
X459756Y58799D02*
Y59784D01*
Y70217D02*
Y71299D01*
X454244D02*
X459756D01*
Y59784D02*
Y70217D01*
X454244Y58701D02*
X459756D01*
X454244Y58799D02*
Y71299D01*
X457000Y63032D02*
Y66969D01*
X455031Y65000D02*
X458968D01*
X459720Y87393D02*
Y88377D01*
Y98810D02*
Y99893D01*
X454208D02*
X459720D01*
Y88377D02*
Y98810D01*
X454208Y87295D02*
X459720D01*
X454208Y87393D02*
Y99893D01*
X456964Y91625D02*
Y95562D01*
X454995Y93594D02*
X458932D01*
X24853Y27601D02*
Y40199D01*
X20817Y27601D02*
X22983D01*
X18947D02*
Y40199D01*
X24853D01*
X19931Y33900D02*
X23868D01*
X21900Y31931D02*
Y35868D01*
X18947Y27601D02*
X20817D01*
X22983D02*
X24853D01*
X28947Y27712D02*
Y40310D01*
X30817D02*
X32983D01*
X34853Y27712D02*
Y40310D01*
X28947Y27712D02*
X34853D01*
X29932Y34011D02*
X33869D01*
X31900Y32043D02*
Y35980D01*
X32983Y40310D02*
X34853D01*
X28947D02*
X30817D01*
X40144Y39228D02*
Y40212D01*
Y27712D02*
Y28795D01*
Y27712D02*
X45656D01*
X40144Y28795D02*
Y39228D01*
Y40310D02*
X45656D01*
Y27712D02*
Y40212D01*
X42900Y32043D02*
Y35980D01*
X40931Y34011D02*
X44868D01*
D19*
X586532Y69200D02*
X590469D01*
X588500Y67232D02*
Y71169D01*
X623431Y69200D02*
X627368D01*
X625400Y67231D02*
Y71168D01*
X67600Y65431D02*
Y69368D01*
X65632Y67400D02*
X69569D01*
X451800Y109431D02*
Y113368D01*
X449832Y111400D02*
X453769D01*
X456393Y9318D02*
Y32940D01*
X423322Y9318D02*
Y32940D01*
Y9318D02*
X456393D01*
X423322Y32940D02*
X456393D01*
X437889Y21129D02*
X441826D01*
X439857Y19161D02*
Y23098D01*
X398200Y79232D02*
Y83169D01*
X396232Y81200D02*
X400169D01*
X362176Y117224D02*
X434224D01*
X362176Y45176D02*
X434224D01*
X362176D02*
Y117224D01*
X434224Y45176D02*
Y117224D01*
X80341Y13400D02*
X84278D01*
X82309Y11432D02*
Y15369D01*
D135*
X521200Y122200D02*
X527800D01*
X521200Y108600D02*
Y122200D01*
X527800Y108600D02*
Y122200D01*
X521200Y108600D02*
X527800D01*
X511900Y70463D02*
X518500D01*
Y84063D01*
X511900Y70463D02*
Y84063D01*
X518500D01*
X553400Y70300D02*
X560000D01*
Y83900D01*
X553400Y70300D02*
Y83900D01*
X560000D01*
X644000Y53967D02*
X650600D01*
X644000Y40367D02*
Y53967D01*
X650600Y40367D02*
Y53967D01*
X644000Y40367D02*
X650600D01*
X602900Y53967D02*
X609500D01*
X602900Y40367D02*
Y53967D01*
X609500Y40367D02*
Y53967D01*
X602900Y40367D02*
X609500D01*
X562000Y53967D02*
X568600D01*
X562000Y40367D02*
Y53967D01*
X568600Y40367D02*
Y53967D01*
X562000Y40367D02*
X568600D01*
X521200Y53967D02*
X527800D01*
X521200Y40367D02*
Y53967D01*
X527800Y40367D02*
Y53967D01*
X521200Y40367D02*
X527800D01*
X511900Y6843D02*
X518500D01*
Y20443D01*
X511900Y6843D02*
Y20443D01*
X518500D01*
X552500Y6843D02*
X559100D01*
Y20443D01*
X552500Y6843D02*
Y20443D01*
X559100D01*
X593400Y6700D02*
X600000D01*
Y20300D01*
X593400Y6700D02*
Y20300D01*
X600000D01*
X633050Y6850D02*
X639650D01*
Y20450D01*
X633050Y6850D02*
Y20450D01*
X639650D01*
X637000Y94300D02*
X643600D01*
X637000Y80700D02*
Y94300D01*
X643600Y80700D02*
Y94300D01*
X637000Y80700D02*
X643600D01*
X628279Y120457D02*
X634879D01*
X628279Y106857D02*
Y120457D01*
X634879Y106857D02*
Y120457D01*
X628279Y106857D02*
X634879D01*
X618104Y106857D02*
X624704D01*
Y120457D01*
X618104Y106857D02*
Y120457D01*
X624704D01*
X608600Y106857D02*
X615200D01*
Y120457D01*
X608600Y106857D02*
Y120457D01*
X615200D01*
X599761Y106857D02*
X606361D01*
Y120457D01*
X599761Y106857D02*
Y120457D01*
X606361D01*
X590700Y106857D02*
X597300D01*
Y120457D01*
X590700Y106857D02*
Y120457D01*
X597300D01*
X589510Y78600D02*
Y85200D01*
X575910D02*
X589510D01*
X575910Y78600D02*
X589510D01*
X575910D02*
Y85200D01*
X562900Y108600D02*
X569500D01*
Y122200D01*
X562900Y108600D02*
Y122200D01*
X569500D01*
X575910Y87743D02*
Y94343D01*
Y87743D02*
X589510D01*
X575910Y94343D02*
X589510D01*
Y87743D02*
Y94343D01*
X303200Y15700D02*
Y22300D01*
Y15700D02*
X316800D01*
X303200Y22300D02*
X316800D01*
Y15700D02*
Y22300D01*
X260400Y14500D02*
Y21100D01*
Y14500D02*
X274000D01*
X260400Y21100D02*
X274000D01*
Y14500D02*
Y21100D01*
X216800Y15573D02*
Y22173D01*
Y15573D02*
X230400D01*
X216800Y22173D02*
X230400D01*
Y15573D02*
Y22173D01*
X302900Y7500D02*
Y14100D01*
Y7500D02*
X316500D01*
X302900Y14100D02*
X316500D01*
Y7500D02*
Y14100D01*
X260400Y6800D02*
Y13400D01*
Y6800D02*
X274000D01*
X260400Y13400D02*
X274000D01*
Y6800D02*
Y13400D01*
X216600Y7764D02*
Y14364D01*
Y7764D02*
X230200D01*
X216600Y14364D02*
X230200D01*
Y7764D02*
Y14364D01*
X173700Y14900D02*
Y21500D01*
Y14900D02*
X187300D01*
X173700Y21500D02*
X187300D01*
Y14900D02*
Y21500D01*
X133300Y14800D02*
Y21400D01*
Y14800D02*
X146900D01*
X133300Y21400D02*
X146900D01*
Y14800D02*
Y21400D01*
X288200Y110414D02*
X294800D01*
X288200Y96814D02*
Y110414D01*
X294800Y96814D02*
Y110414D01*
X288200Y96814D02*
X294800D01*
X625900Y139800D02*
Y146400D01*
X612300D02*
X625900D01*
X612300Y139800D02*
X625900D01*
X612300D02*
Y146400D01*
X587700Y139700D02*
Y146300D01*
X574100D02*
X587700D01*
X574100Y139700D02*
X587700D01*
X574100D02*
Y146300D01*
X173800Y6800D02*
Y13400D01*
Y6800D02*
X187400D01*
X173800Y13400D02*
X187400D01*
Y6800D02*
Y13400D01*
X133400Y6700D02*
Y13300D01*
Y6700D02*
X147000D01*
X133400Y13300D02*
X147000D01*
Y6700D02*
Y13300D01*
X280300Y110514D02*
X286900D01*
X280300Y96914D02*
Y110514D01*
X286900Y96914D02*
Y110514D01*
X280300Y96914D02*
X286900D01*
X625900Y147700D02*
Y154300D01*
X612300D02*
X625900D01*
X612300Y147700D02*
X625900D01*
X612300D02*
Y154300D01*
X587500Y147300D02*
Y153900D01*
X573900D02*
X587500D01*
X573900Y147300D02*
X587500D01*
X573900D02*
Y153900D01*
X548700Y140300D02*
Y146900D01*
X535100D02*
X548700D01*
X535100Y140300D02*
X548700D01*
X535100D02*
Y146900D01*
X507600Y139900D02*
Y146500D01*
X494000D02*
X507600D01*
X494000Y139900D02*
X507600D01*
X494000D02*
Y146500D01*
X468300Y139400D02*
Y146000D01*
X454700D02*
X468300D01*
X454700Y139400D02*
X468300D01*
X454700D02*
Y146000D01*
X428900Y140360D02*
Y146960D01*
X415300D02*
X428900D01*
X415300Y140360D02*
X428900D01*
X415300D02*
Y146960D01*
X390400Y148100D02*
Y154700D01*
Y148100D02*
X404000D01*
X390400Y154700D02*
X404000D01*
Y148100D02*
Y154700D01*
X548900Y147940D02*
Y154540D01*
X535300D02*
X548900D01*
X535300Y147940D02*
X548900D01*
X535300D02*
Y154540D01*
X507700Y147540D02*
Y154140D01*
X494100D02*
X507700D01*
X494100Y147540D02*
X507700D01*
X494100D02*
Y154140D01*
X468300Y147300D02*
Y153900D01*
X454700D02*
X468300D01*
X454700Y147300D02*
X468300D01*
X454700D02*
Y153900D01*
X428957Y148000D02*
Y154600D01*
X415357D02*
X428957D01*
X415357Y148000D02*
X428957D01*
X415357D02*
Y154600D01*
X390400Y140000D02*
Y146600D01*
Y140000D02*
X404000D01*
X390400Y146600D02*
X404000D01*
Y140000D02*
Y146600D01*
X351900Y147000D02*
Y153600D01*
Y147000D02*
X365500D01*
X351900Y153600D02*
X365500D01*
Y147000D02*
Y153600D01*
X311500Y147800D02*
Y154400D01*
Y147800D02*
X325100D01*
X311500Y154400D02*
X325100D01*
Y147800D02*
Y154400D01*
X270943Y146359D02*
Y152959D01*
Y146359D02*
X284543D01*
X270943Y152959D02*
X284543D01*
Y146359D02*
Y152959D01*
X229900Y147059D02*
Y153659D01*
Y147059D02*
X243500D01*
X229900Y153659D02*
X243500D01*
Y147059D02*
Y153659D01*
X189257Y146800D02*
Y153400D01*
Y146800D02*
X202857D01*
X189257Y153400D02*
X202857D01*
Y146800D02*
Y153400D01*
X352000Y138800D02*
Y145400D01*
Y138800D02*
X365600D01*
X352000Y145400D02*
X365600D01*
Y138800D02*
Y145400D01*
X311700Y140100D02*
Y146700D01*
Y140100D02*
X325300D01*
X311700Y146700D02*
X325300D01*
Y140100D02*
Y146700D01*
X271043Y138800D02*
Y145400D01*
Y138800D02*
X284643D01*
X271043Y145400D02*
X284643D01*
Y138800D02*
Y145400D01*
X229800Y139200D02*
Y145800D01*
Y139200D02*
X243400D01*
X229800Y145800D02*
X243400D01*
Y139200D02*
Y145800D01*
X189157Y139200D02*
Y145800D01*
Y139200D02*
X202757D01*
X189157Y145800D02*
X202757D01*
Y139200D02*
Y145800D01*
D136*
X492832Y54542D02*
X496769D01*
X494800Y31117D02*
Y35054D01*
X492832Y33086D02*
X496769D01*
X491931Y102586D02*
X495868D01*
X493900Y100617D02*
Y104554D01*
X491931Y124042D02*
X495868D01*
X533431Y102986D02*
X537368D01*
X535400Y101017D02*
Y104954D01*
X533431Y124443D02*
X537368D01*
X614431Y33086D02*
X618368D01*
X616400Y31117D02*
Y35054D01*
X614431Y54542D02*
X618368D01*
X574231Y33086D02*
X578168D01*
X576200Y31117D02*
Y35054D01*
X574231Y54542D02*
X578168D01*
X533032Y33086D02*
X536969D01*
X535000Y31117D02*
Y35054D01*
X533032Y54542D02*
X536969D01*
X376932Y11339D02*
X380869D01*
X376932Y29055D02*
X380869D01*
X378900Y27087D02*
Y31024D01*
X142904Y114746D02*
Y118683D01*
X113770Y114746D02*
Y118683D01*
X111802Y116714D02*
X115739D01*
X359314Y158132D02*
Y162068D01*
X357346Y160100D02*
X361283D01*
X337858Y158132D02*
Y162068D01*
X319514Y158231D02*
Y162169D01*
X317546Y160200D02*
X321483D01*
X298058Y158231D02*
Y162169D01*
X280114Y158031D02*
Y161969D01*
X278146Y160000D02*
X282083D01*
X258658Y158031D02*
Y161969D01*
X238924Y158332D02*
Y162268D01*
X236956Y160300D02*
X240893D01*
X217468Y158332D02*
Y162268D01*
X198514Y157832D02*
Y161768D01*
X196546Y159800D02*
X200483D01*
X177058Y157832D02*
Y161768D01*
X560914Y158431D02*
Y162369D01*
X558946Y160400D02*
X562883D01*
X539458Y158431D02*
Y162369D01*
X519314Y158231D02*
Y162169D01*
X517346Y160200D02*
X521283D01*
X497858Y158231D02*
Y162169D01*
X480714Y158132D02*
Y162068D01*
X478746Y160100D02*
X482683D01*
X459258Y158132D02*
Y162068D01*
X439414Y158632D02*
Y162568D01*
X437446Y160600D02*
X441383D01*
X417957Y158632D02*
Y162568D01*
X399414Y158431D02*
Y162369D01*
X397446Y160400D02*
X401383D01*
X377958Y158431D02*
Y162369D01*
X183314Y26632D02*
Y30569D01*
X181346Y28600D02*
X185283D01*
X161857Y26632D02*
Y30569D01*
X141114Y26232D02*
Y30169D01*
X139146Y28200D02*
X143083D01*
X119658Y26232D02*
Y30169D01*
X269932Y125014D02*
X273868D01*
X271900Y123046D02*
Y126983D01*
X269932Y103558D02*
X273868D01*
X641314Y158132D02*
Y162068D01*
X639346Y160100D02*
X643283D01*
X619858Y158132D02*
Y162068D01*
X601214Y158132D02*
Y162068D01*
X599246Y160100D02*
X603183D01*
X579757Y158132D02*
Y162068D01*
X310814Y26831D02*
Y30768D01*
X308846Y28800D02*
X312783D01*
X289357Y26831D02*
Y30768D01*
X268014Y26432D02*
Y30369D01*
X266046Y28400D02*
X269983D01*
X246557Y26432D02*
Y30369D01*
X225614Y26531D02*
Y30468D01*
X223646Y28500D02*
X227583D01*
X204157Y26531D02*
Y30468D01*
X15832Y61889D02*
X19769D01*
X15832Y44172D02*
X19769D01*
X17800Y42204D02*
Y46141D01*
D137*
X581414Y65263D02*
Y73137D01*
X595587Y65263D02*
Y73137D01*
X581414D02*
X595587D01*
X581414Y65263D02*
X595587D01*
X632486Y65263D02*
Y73137D01*
X618313Y65263D02*
Y73137D01*
Y65263D02*
X632486D01*
X618313Y73137D02*
X632486D01*
X447863Y118486D02*
X455737D01*
X447863Y104313D02*
X455737D01*
Y118486D01*
X447863Y104313D02*
Y118486D01*
M02*
