G04*
G04 #@! TF.GenerationSoftware,Altium Limited,Altium Designer,21.9.1 (22)*
G04*
G04 Layer_Color=255*
%FSLAX25Y25*%
%MOIN*%
G70*
G04*
G04 #@! TF.SameCoordinates,6B560933-D042-473C-9E78-3B088F3B31AC*
G04*
G04*
G04 #@! TF.FilePolarity,Positive*
G04*
G01*
G75*
%ADD118C,0.06299*%
%ADD119C,0.05118*%
%ADD120C,0.05906*%
%ADD121R,0.05906X0.05906*%
%ADD122C,0.16000*%
%ADD123C,0.07500*%
%ADD124C,0.06299*%
%ADD125R,0.06299X0.06299*%
%ADD126R,0.06299X0.06299*%
D118*
X67600Y179472D02*
D03*
Y209000D02*
D03*
D119*
X352100Y105700D02*
D03*
X366000Y39100D02*
D03*
X45900Y19011D02*
D03*
X94900Y53877D02*
D03*
X31200Y19300D02*
D03*
D120*
X337200Y100400D02*
D03*
Y90400D02*
D03*
Y80400D02*
D03*
X141982Y176690D02*
D03*
X131982D02*
D03*
X121982D02*
D03*
X141982Y146690D02*
D03*
X131982D02*
D03*
X121982D02*
D03*
X337200Y28400D02*
D03*
Y38400D02*
D03*
Y48400D02*
D03*
D121*
Y70400D02*
D03*
X111982Y146690D02*
D03*
X337200Y18400D02*
D03*
D122*
X577300Y252832D02*
D03*
X80800Y252331D02*
D03*
D123*
X549457Y235973D02*
D03*
X536308D02*
D03*
X523158D02*
D03*
X510009D02*
D03*
X496859D02*
D03*
X483709D02*
D03*
X470560D02*
D03*
X457410D02*
D03*
X444261D02*
D03*
X431111D02*
D03*
X417961D02*
D03*
X404812D02*
D03*
X391662D02*
D03*
X378513D02*
D03*
X549457Y253690D02*
D03*
X536308D02*
D03*
X523158D02*
D03*
X510009D02*
D03*
X496859D02*
D03*
X483709D02*
D03*
X470560D02*
D03*
X457410D02*
D03*
X444261D02*
D03*
X431111D02*
D03*
X417961D02*
D03*
X404812D02*
D03*
X391662D02*
D03*
X378513D02*
D03*
X280087Y235973D02*
D03*
X266938D02*
D03*
X253788D02*
D03*
X240639D02*
D03*
X227489D02*
D03*
X214339D02*
D03*
X188040D02*
D03*
X201190D02*
D03*
X174891D02*
D03*
X161741D02*
D03*
X148591D02*
D03*
X135442D02*
D03*
X122292D02*
D03*
X109143D02*
D03*
X280087Y253690D02*
D03*
X266938D02*
D03*
X253788D02*
D03*
X240639D02*
D03*
X227489D02*
D03*
X214339D02*
D03*
X201190D02*
D03*
X188040D02*
D03*
X174891D02*
D03*
X161741D02*
D03*
X148591D02*
D03*
X135442D02*
D03*
X122292D02*
D03*
X109143D02*
D03*
D124*
X358227Y212000D02*
D03*
Y182000D02*
D03*
X338227Y172000D02*
D03*
Y182000D02*
D03*
Y212000D02*
D03*
X318045D02*
D03*
Y182000D02*
D03*
X298045Y172000D02*
D03*
Y182000D02*
D03*
Y212000D02*
D03*
X277864D02*
D03*
Y182000D02*
D03*
X257864Y172000D02*
D03*
Y182000D02*
D03*
Y212000D02*
D03*
X237682D02*
D03*
Y182000D02*
D03*
X217682Y172000D02*
D03*
Y182000D02*
D03*
Y212000D02*
D03*
X197500D02*
D03*
Y182000D02*
D03*
X177500Y172000D02*
D03*
Y182000D02*
D03*
Y212000D02*
D03*
X559136D02*
D03*
Y182000D02*
D03*
X539136Y172000D02*
D03*
Y182000D02*
D03*
Y212000D02*
D03*
X518955D02*
D03*
Y182000D02*
D03*
X498954Y172000D02*
D03*
Y182000D02*
D03*
Y212000D02*
D03*
X478773D02*
D03*
Y182000D02*
D03*
X458773Y172000D02*
D03*
Y182000D02*
D03*
Y212000D02*
D03*
X438591D02*
D03*
Y182000D02*
D03*
X418591Y172000D02*
D03*
Y182000D02*
D03*
Y212000D02*
D03*
X398409D02*
D03*
Y182000D02*
D03*
X378409Y172000D02*
D03*
Y182000D02*
D03*
Y212000D02*
D03*
X183000Y79900D02*
D03*
Y49900D02*
D03*
X163000Y39900D02*
D03*
Y49900D02*
D03*
Y79900D02*
D03*
X140100D02*
D03*
Y49900D02*
D03*
X120100Y39900D02*
D03*
Y49900D02*
D03*
Y79900D02*
D03*
X216800Y123300D02*
D03*
X246800D02*
D03*
X256800Y103300D02*
D03*
X246800D02*
D03*
X216800D02*
D03*
X639500Y212000D02*
D03*
Y182000D02*
D03*
X619500Y172000D02*
D03*
Y182000D02*
D03*
Y212000D02*
D03*
X599318D02*
D03*
Y182000D02*
D03*
X579318Y172000D02*
D03*
Y182000D02*
D03*
Y212000D02*
D03*
X310100Y80532D02*
D03*
Y50532D02*
D03*
X290100Y40532D02*
D03*
Y50532D02*
D03*
Y80532D02*
D03*
X267800D02*
D03*
Y50532D02*
D03*
X247800Y40532D02*
D03*
Y50532D02*
D03*
Y80532D02*
D03*
X225500Y80100D02*
D03*
Y50100D02*
D03*
X205500Y40100D02*
D03*
Y50100D02*
D03*
Y80100D02*
D03*
D125*
X358227Y172000D02*
D03*
X318045D02*
D03*
X277864D02*
D03*
X237682D02*
D03*
X197500D02*
D03*
X559136D02*
D03*
X518955D02*
D03*
X478773D02*
D03*
X438591D02*
D03*
X398409D02*
D03*
X183000Y39900D02*
D03*
X140100D02*
D03*
X639500Y172000D02*
D03*
X599318D02*
D03*
X310100Y40532D02*
D03*
X267800D02*
D03*
X225500Y40100D02*
D03*
D126*
X256800Y123300D02*
D03*
M02*
