G04*
G04 #@! TF.GenerationSoftware,Altium Limited,Altium Designer,21.9.1 (22)*
G04*
G04 Layer_Color=16711935*
%FSLAX25Y25*%
%MOIN*%
G70*
G04*
G04 #@! TF.SameCoordinates,6B560933-D042-473C-9E78-3B088F3B31AC*
G04*
G04*
G04 #@! TF.FilePolarity,Positive*
G04*
G01*
G75*
%ADD14C,0.00600*%
%ADD16C,0.01000*%
%ADD114C,0.04000*%
D14*
X305107Y313101D02*
X307106D01*
X306107D01*
Y319099D01*
X305107Y318099D01*
X314104Y319099D02*
X312105Y318099D01*
X310105Y316100D01*
Y314101D01*
X311105Y313101D01*
X313105D01*
X314104Y314101D01*
Y315100D01*
X313105Y316100D01*
X310105D01*
X320102Y319099D02*
X318103Y318099D01*
X316104Y316100D01*
Y314101D01*
X317103Y313101D01*
X319103D01*
X320102Y314101D01*
Y315100D01*
X319103Y316100D01*
X316104D01*
X322102Y313101D02*
Y314101D01*
X323101D01*
Y313101D01*
X322102D01*
X327100Y314101D02*
X328100Y313101D01*
X330099D01*
X331099Y314101D01*
Y318099D01*
X330099Y319099D01*
X328100D01*
X327100Y318099D01*
Y317100D01*
X328100Y316100D01*
X331099D01*
X333098Y318099D02*
X334098Y319099D01*
X336097D01*
X337097Y318099D01*
Y317100D01*
X336097Y316100D01*
X337097Y315100D01*
Y314101D01*
X336097Y313101D01*
X334098D01*
X333098Y314101D01*
Y315100D01*
X334098Y316100D01*
X333098Y317100D01*
Y318099D01*
X334098Y316100D02*
X336097D01*
X339096Y313101D02*
Y317100D01*
X340096D01*
X341095Y316100D01*
Y313101D01*
Y316100D01*
X342095Y317100D01*
X343095Y316100D01*
Y313101D01*
X345094D02*
Y317100D01*
X346094D01*
X347094Y316100D01*
Y313101D01*
Y316100D01*
X348093Y317100D01*
X349093Y316100D01*
Y313101D01*
X700601Y120154D02*
Y124153D01*
X701601D01*
X705599Y120154D01*
X706599D01*
Y126152D02*
Y128152D01*
Y127152D01*
X700601D01*
X701601Y126152D01*
X706599Y131151D02*
X705599D01*
Y132150D01*
X706599D01*
Y131151D01*
X700601Y140148D02*
Y136149D01*
X703600D01*
X702600Y138148D01*
Y139148D01*
X703600Y140148D01*
X705599D01*
X706599Y139148D01*
Y137149D01*
X705599Y136149D01*
X701601Y142147D02*
X700601Y143147D01*
Y145146D01*
X701601Y146146D01*
X705599D01*
X706599Y145146D01*
Y143147D01*
X705599Y142147D01*
X701601D01*
X706599Y148145D02*
X702600D01*
Y149145D01*
X703600Y150145D01*
X706599D01*
X703600D01*
X702600Y151144D01*
X703600Y152144D01*
X706599D01*
Y154143D02*
X702600D01*
Y155143D01*
X703600Y156142D01*
X706599D01*
X703600D01*
X702600Y157142D01*
X703600Y158142D01*
X706599D01*
D16*
X0Y316700D02*
X6000Y318700D01*
X0Y316700D02*
X6000Y314700D01*
X651400D02*
X657400Y316700D01*
X651400Y318700D02*
X657400Y316700D01*
X0D02*
X303507D01*
X350693D02*
X657400D01*
X0Y276700D02*
Y317700D01*
X657400Y276800D02*
Y317700D01*
X703000Y281496D02*
X705000Y275496D01*
X701000D02*
X703000Y281496D01*
X701000Y6000D02*
X703000Y0D01*
X705000Y6000D01*
X703000Y159742D02*
Y281496D01*
Y0D02*
Y118554D01*
X653224Y281496D02*
X704000D01*
X653295Y0D02*
X704000D01*
D114*
X657400Y7200D02*
Y273800D01*
X0Y273700D02*
X7796Y281496D01*
X0Y7874D02*
X7874Y0D01*
X0Y7874D02*
Y273700D01*
X7796Y281496D02*
X650224D01*
X7874Y0D02*
X650295D01*
X650224Y280976D02*
Y281496D01*
Y280976D02*
X657400Y273800D01*
X651200Y0D02*
X657400Y6200D01*
M02*
