G04*
G04 #@! TF.GenerationSoftware,Altium Limited,Altium Designer,21.9.1 (22)*
G04*
G04 Layer_Color=16711935*
%FSLAX25Y25*%
%MOIN*%
G70*
G04*
G04 #@! TF.SameCoordinates,6B560933-D042-473C-9E78-3B088F3B31AC*
G04*
G04*
G04 #@! TF.FilePolarity,Negative*
G04*
G01*
G75*
%ADD95C,0.07099*%
%ADD96C,0.05918*%
%ADD97C,0.06706*%
%ADD98R,0.06706X0.06706*%
%ADD99C,0.16800*%
%ADD100C,0.08300*%
%ADD101C,0.07099*%
%ADD102R,0.07099X0.07099*%
%ADD103R,0.07099X0.07099*%
%ADD104C,0.03300*%
%ADD105C,0.04300*%
%ADD106C,0.05300*%
%ADD107C,0.02800*%
%ADD108C,0.03200*%
%ADD109C,0.03800*%
%ADD110C,0.05800*%
%ADD111C,0.04800*%
D95*
X67600Y179472D02*
D03*
Y209000D02*
D03*
D96*
X352100Y105700D02*
D03*
X366000Y39100D02*
D03*
X45900Y19011D02*
D03*
X94900Y53877D02*
D03*
X31200Y19300D02*
D03*
D97*
X337200Y100400D02*
D03*
Y90400D02*
D03*
Y80400D02*
D03*
X141982Y176690D02*
D03*
X131982D02*
D03*
X121982D02*
D03*
X141982Y146690D02*
D03*
X131982D02*
D03*
X121982D02*
D03*
X337200Y28400D02*
D03*
Y38400D02*
D03*
Y48400D02*
D03*
D98*
Y70400D02*
D03*
X111982Y146690D02*
D03*
X337200Y18400D02*
D03*
D99*
X577300Y252832D02*
D03*
X80800Y252331D02*
D03*
D100*
X549457Y235973D02*
D03*
X536308D02*
D03*
X523158D02*
D03*
X510009D02*
D03*
X496859D02*
D03*
X483709D02*
D03*
X470560D02*
D03*
X457410D02*
D03*
X444261D02*
D03*
X431111D02*
D03*
X417961D02*
D03*
X404812D02*
D03*
X391662D02*
D03*
X378513D02*
D03*
X549457Y253690D02*
D03*
X536308D02*
D03*
X523158D02*
D03*
X510009D02*
D03*
X496859D02*
D03*
X483709D02*
D03*
X470560D02*
D03*
X457410D02*
D03*
X444261D02*
D03*
X431111D02*
D03*
X417961D02*
D03*
X404812D02*
D03*
X391662D02*
D03*
X378513D02*
D03*
X280087Y235973D02*
D03*
X266938D02*
D03*
X253788D02*
D03*
X240639D02*
D03*
X227489D02*
D03*
X214339D02*
D03*
X188040D02*
D03*
X201190D02*
D03*
X174891D02*
D03*
X161741D02*
D03*
X148591D02*
D03*
X135442D02*
D03*
X122292D02*
D03*
X109143D02*
D03*
X280087Y253690D02*
D03*
X266938D02*
D03*
X253788D02*
D03*
X240639D02*
D03*
X227489D02*
D03*
X214339D02*
D03*
X201190D02*
D03*
X188040D02*
D03*
X174891D02*
D03*
X161741D02*
D03*
X148591D02*
D03*
X135442D02*
D03*
X122292D02*
D03*
X109143D02*
D03*
D101*
X358227Y212000D02*
D03*
Y182000D02*
D03*
X338227Y172000D02*
D03*
Y182000D02*
D03*
Y212000D02*
D03*
X318045D02*
D03*
Y182000D02*
D03*
X298045Y172000D02*
D03*
Y182000D02*
D03*
Y212000D02*
D03*
X277864D02*
D03*
Y182000D02*
D03*
X257864Y172000D02*
D03*
Y182000D02*
D03*
Y212000D02*
D03*
X237682D02*
D03*
Y182000D02*
D03*
X217682Y172000D02*
D03*
Y182000D02*
D03*
Y212000D02*
D03*
X197500D02*
D03*
Y182000D02*
D03*
X177500Y172000D02*
D03*
Y182000D02*
D03*
Y212000D02*
D03*
X559136D02*
D03*
Y182000D02*
D03*
X539136Y172000D02*
D03*
Y182000D02*
D03*
Y212000D02*
D03*
X518955D02*
D03*
Y182000D02*
D03*
X498954Y172000D02*
D03*
Y182000D02*
D03*
Y212000D02*
D03*
X478773D02*
D03*
Y182000D02*
D03*
X458773Y172000D02*
D03*
Y182000D02*
D03*
Y212000D02*
D03*
X438591D02*
D03*
Y182000D02*
D03*
X418591Y172000D02*
D03*
Y182000D02*
D03*
Y212000D02*
D03*
X398409D02*
D03*
Y182000D02*
D03*
X378409Y172000D02*
D03*
Y182000D02*
D03*
Y212000D02*
D03*
X183000Y79900D02*
D03*
Y49900D02*
D03*
X163000Y39900D02*
D03*
Y49900D02*
D03*
Y79900D02*
D03*
X140100D02*
D03*
Y49900D02*
D03*
X120100Y39900D02*
D03*
Y49900D02*
D03*
Y79900D02*
D03*
X216800Y123300D02*
D03*
X246800D02*
D03*
X256800Y103300D02*
D03*
X246800D02*
D03*
X216800D02*
D03*
X639500Y212000D02*
D03*
Y182000D02*
D03*
X619500Y172000D02*
D03*
Y182000D02*
D03*
Y212000D02*
D03*
X599318D02*
D03*
Y182000D02*
D03*
X579318Y172000D02*
D03*
Y182000D02*
D03*
Y212000D02*
D03*
X310100Y80532D02*
D03*
Y50532D02*
D03*
X290100Y40532D02*
D03*
Y50532D02*
D03*
Y80532D02*
D03*
X267800D02*
D03*
Y50532D02*
D03*
X247800Y40532D02*
D03*
Y50532D02*
D03*
Y80532D02*
D03*
X225500Y80100D02*
D03*
Y50100D02*
D03*
X205500Y40100D02*
D03*
Y50100D02*
D03*
Y80100D02*
D03*
D102*
X358227Y172000D02*
D03*
X318045D02*
D03*
X277864D02*
D03*
X237682D02*
D03*
X197500D02*
D03*
X559136D02*
D03*
X518955D02*
D03*
X478773D02*
D03*
X438591D02*
D03*
X398409D02*
D03*
X183000Y39900D02*
D03*
X140100D02*
D03*
X639500Y172000D02*
D03*
X599318D02*
D03*
X310100Y40532D02*
D03*
X267800D02*
D03*
X225500Y40100D02*
D03*
D103*
X256800Y123300D02*
D03*
D104*
X539232Y73534D02*
D03*
X577500Y70964D02*
D03*
X527300Y244500D02*
D03*
X597300Y79725D02*
D03*
X646194Y91335D02*
D03*
X640060Y123800D02*
D03*
X624700Y129600D02*
D03*
X648162D02*
D03*
D105*
X649268Y100900D02*
D03*
X592496Y75657D02*
D03*
X631900Y83500D02*
D03*
D106*
X606300Y36000D02*
D03*
X648162D02*
D03*
X524300D02*
D03*
X567300D02*
D03*
X564400Y58400D02*
D03*
X561800Y105000D02*
D03*
X524300D02*
D03*
X616000Y132201D02*
D03*
D107*
X445351Y99598D02*
D03*
X603200Y122800D02*
D03*
X587400Y101900D02*
D03*
X521300Y78300D02*
D03*
X483600Y73534D02*
D03*
X486900Y80978D02*
D03*
X540378D02*
D03*
X481400Y51590D02*
D03*
X577000Y24500D02*
D03*
X616800Y22600D02*
D03*
X481821Y47209D02*
D03*
X539900Y22900D02*
D03*
X497700Y23500D02*
D03*
X444261Y103800D02*
D03*
X414000Y44800D02*
D03*
X417500Y44700D02*
D03*
X321700Y18700D02*
D03*
X277100Y13100D02*
D03*
X327800Y156300D02*
D03*
X324500Y156400D02*
D03*
X368100Y116800D02*
D03*
X324300Y194200D02*
D03*
X320600Y194600D02*
D03*
X383900Y101900D02*
D03*
X389400Y101557D02*
D03*
X414200Y61600D02*
D03*
X378335Y102500D02*
D03*
X415500Y94300D02*
D03*
X379500Y62200D02*
D03*
X354200Y87400D02*
D03*
X349200Y89700D02*
D03*
X438743Y142120D02*
D03*
X297200Y99800D02*
D03*
X234500Y18500D02*
D03*
X189300Y18700D02*
D03*
X148800Y21800D02*
D03*
X317500Y92500D02*
D03*
X345600Y91600D02*
D03*
X359100Y85400D02*
D03*
X317300Y108200D02*
D03*
X443900Y49500D02*
D03*
X295981Y107158D02*
D03*
X472200Y138600D02*
D03*
X512500Y139700D02*
D03*
X545963Y138239D02*
D03*
X584803Y137479D02*
D03*
X631579Y137579D02*
D03*
X442550Y90050D02*
D03*
X443600Y116919D02*
D03*
X378900Y10000D02*
D03*
X460500Y10900D02*
D03*
X449503Y32400D02*
D03*
X423000Y13629D02*
D03*
X406000Y35500D02*
D03*
X422600Y23700D02*
D03*
X430700Y48600D02*
D03*
X425100Y44700D02*
D03*
X459200Y32000D02*
D03*
X444100Y84200D02*
D03*
X438743Y66857D02*
D03*
X439700Y73943D02*
D03*
X363457Y52757D02*
D03*
X360000Y59547D02*
D03*
X376547Y117800D02*
D03*
X427600Y117100D02*
D03*
X418700Y119000D02*
D03*
D108*
X538200Y138400D02*
D03*
X441200Y129500D02*
D03*
X446300Y132100D02*
D03*
X410800Y80900D02*
D03*
X401600Y74479D02*
D03*
X401800Y87300D02*
D03*
X96262Y65800D02*
D03*
X403100Y28900D02*
D03*
X393600Y41000D02*
D03*
X336900Y133500D02*
D03*
X88169Y112268D02*
D03*
X84232D02*
D03*
Y108331D02*
D03*
X88169D02*
D03*
X453500Y138600D02*
D03*
X322500Y137800D02*
D03*
X88014Y199886D02*
D03*
X615300Y138000D02*
D03*
X577500Y137300D02*
D03*
X496300Y137000D02*
D03*
X405900Y133200D02*
D03*
X438300Y135000D02*
D03*
X450000Y126800D02*
D03*
X287800Y141300D02*
D03*
X234700Y135900D02*
D03*
X205500Y142200D02*
D03*
X337100Y126400D02*
D03*
X342100Y130200D02*
D03*
X333200Y137300D02*
D03*
X444000Y138300D02*
D03*
X116900Y193800D02*
D03*
D109*
X639500Y100900D02*
D03*
X595300Y88900D02*
D03*
X643600Y10400D02*
D03*
X603857Y10157D02*
D03*
X563200D02*
D03*
X522000Y10400D02*
D03*
X351300Y20800D02*
D03*
D110*
X638200Y69200D02*
D03*
X489200Y62400D02*
D03*
X486900Y17700D02*
D03*
D111*
X111700Y49200D02*
D03*
X97265Y78535D02*
D03*
X91100Y130500D02*
D03*
X47172Y199900D02*
D03*
X20600Y143700D02*
D03*
M02*
